SplineFontDB: 3.0
FontName: FontAwesome5Free-Solid
FullName: Font Awesome 5 Free Solid
FamilyName: Font Awesome 5 Free Solid
Weight: Solid
Copyright: Copyright (c) Font Awesome
Version: 330.498 (Font Awesome version: 5.11.2)
ItalicAngle: 0
UnderlinePosition: -51
UnderlineWidth: 25
Ascent: 448
Descent: 64
InvalidEm: 0
sfntRevision: 0x014a7f7c
LayerCount: 2
Layer: 0 0 "Back" 1
Layer: 1 0 "Fore" 0
XUID: [1021 718 -10252168 10677055]
StyleMap: 0x0000
FSType: 0
OS2Version: 4
OS2_WeightWidthSlopeOnly: 0
OS2_UseTypoMetrics: 1
CreationTime: 1569261225
ModificationTime: 1575972106
PfmFamily: 17
TTFWeight: 900
TTFWidth: 5
LineGap: 0
VLineGap: 0
Panose: 2 0 5 3 0 0 0 0 0 0
OS2TypoAscent: 448
OS2TypoAOffset: 0
OS2TypoDescent: -64
OS2TypoDOffset: 0
OS2TypoLinegap: 46
OS2WinAscent: 460
OS2WinAOffset: 0
OS2WinDescent: 84
OS2WinDOffset: 0
HheadAscent: 448
HheadAOffset: 0
HheadDescent: -64
HheadDOffset: 0
OS2SubXSize: 332
OS2SubYSize: 358
OS2SubXOff: 0
OS2SubYOff: 71
OS2SupXSize: 332
OS2SupYSize: 358
OS2SupXOff: 0
OS2SupYOff: 245
OS2StrikeYSize: 25
OS2StrikeYPos: 132
OS2CapHeight: 421
OS2XHeight: 314
OS2Vendor: 'PfEd'
OS2CodePages: 80000001.00000000
OS2UnicodeRanges: 00000001.10000000.00000000.00000000

StartChar: .notdef
Encoding: 65536 -1 0
Width: 256
Flags: MW
HStem: 0 25<50 206 50 231> 273 25<50 206 50 50>
VStem: 25 25<25 25 25 273> 206 25<25 273 273 273>
LayerCount: 2
Fore
SplineSet
25 0 m 1
 25 298 l 1
 231 298 l 1
 231 0 l 1
 25 0 l 1
50 25 m 1
 206 25 l 1
 206 273 l 1
 50 273 l 1
 50 25 l 1
EndSplineSet
Validated: 1
EndChar

StartChar: hyphen
Encoding: 45 45 2
Width: 219
GlyphClass: 2
Flags: W
LayerCount: 2
Fore
SplineSet
182 211 m 1
 182 176 l 1
 37 176 l 1
 37 211 l 1
 182 211 l 1
EndSplineSet
Validated: 1
EndChar

StartChar: period
Encoding: 46 46 3
Width: 119
GlyphClass: 2
Flags: W
LayerCount: 2
Fore
SplineSet
86 56 m 1
 33 56 l 1
 33 109 l 1
 86 109 l 1
 86 56 l 1
EndSplineSet
Validated: 1
EndChar

StartChar: zero
Encoding: 48 48 4
Width: 307
GlyphClass: 2
Flags: W
LayerCount: 2
Fore
SplineSet
26 238 m 0
 26 361 70 425 154 425 c 0
 237 425 281 360 281 239 c 0
 281 116 237 52 154 52 c 0
 70 52 26 116 26 238 c 0
239 239 m 0
 239 342 212 389 154 389 c 0
 96 389 69 342 69 239 c 0
 69 136 96 87 154 87 c 0
 211 87 239 135 239 239 c 0
EndSplineSet
Validated: 1
EndChar

StartChar: one
Encoding: 49 49 5
Width: 335
GlyphClass: 2
Flags: W
LayerCount: 2
Fore
SplineSet
164 421 m 1
 188 421 l 1
 188 91 l 1
 269 91 l 1
 269 56 l 1
 66 56 l 1
 66 91 l 1
 146 91 l 1
 146 368 l 1
 71 321 l 1
 71 361 l 1
 164 421 l 1
EndSplineSet
Validated: 1
EndChar

StartChar: two
Encoding: 50 50 6
Width: 310
GlyphClass: 2
Flags: W
LayerCount: 2
Fore
SplineSet
201 204 m 2
 97 91 l 1
 277 91 l 1
 277 56 l 1
 42 56 l 1
 42 88 l 1
 170 229 l 2
 204 267 219 296 219 327 c 0
 219 367 195 389 152 389 c 0
 117 389 83 375 49 347 c 1
 33 380 l 1
 61 407 109 425 153 425 c 0
 220 425 262 388 262 329 c 0
 262 287 244 251 201 204 c 2
EndSplineSet
Validated: 1
EndChar

StartChar: three
Encoding: 51 51 7
Width: 297
GlyphClass: 2
Flags: W
LayerCount: 2
Fore
SplineSet
270 155 m 0
 270 91 224 52 150 52 c 0
 103 52 57 69 27 97 c 1
 44 130 l 1
 77 102 113 88 149 88 c 0
 201 88 228 111 228 156 c 0
 228 201 200 223 144 223 c 2
 102 223 l 1
 102 259 l 1
 136 259 l 2
 190 259 220 283 220 328 c 0
 220 367 195 389 152 389 c 0
 117 389 83 375 49 347 c 1
 33 380 l 1
 62 408 107 425 154 425 c 0
 219 425 262 389 262 332 c 0
 262 290 240 257 204 243 c 1
 247 231 270 200 270 155 c 0
EndSplineSet
Validated: 1
EndChar

StartChar: four
Encoding: 52 52 8
Width: 315
GlyphClass: 2
Flags: W
LayerCount: 2
Fore
SplineSet
235 421 m 1
 235 170 l 1
 290 170 l 1
 290 135 l 1
 235 135 l 1
 235 56 l 1
 193 56 l 1
 193 135 l 1
 25 135 l 1
 25 167 l 1
 201 421 l 1
 235 421 l 1
193 170 m 1
 193 349 l 1
 69 170 l 1
 193 170 l 1
EndSplineSet
Validated: 1
EndChar

StartChar: five
Encoding: 53 53 9
Width: 322
GlyphClass: 2
Flags: W
LayerCount: 2
Fore
SplineSet
283 169 m 0
 283 100 234 52 159 52 c 0
 115 52 69 69 39 97 c 1
 55 130 l 1
 89 102 124 88 159 88 c 0
 210 88 241 119 241 169 c 0
 241 217 210 250 162 250 c 0
 127 250 100 235 79 207 c 1
 50 207 l 1
 50 421 l 1
 268 421 l 1
 268 386 l 1
 92 386 l 1
 92 256 l 1
 112 275 138 285 169 285 c 0
 238 285 283 238 283 169 c 0
EndSplineSet
Validated: 1
EndChar

StartChar: six
Encoding: 54 54 10
Width: 311
GlyphClass: 2
Flags: W
LayerCount: 2
Fore
SplineSet
283 169 m 0
 283 102 233 52 165 52 c 0
 77 52 28 116 28 229 c 0
 28 352 80 425 168 425 c 0
 210 425 252 408 282 380 c 1
 266 347 l 1
 232 376 202 389 169 389 c 0
 106 389 70 330 70 230 c 2
 70 222 l 1
 86 261 123 285 169 285 c 0
 236 285 283 237 283 169 c 0
241 169 m 0
 241 217 209 250 163 250 c 0
 115 250 82 216 82 169 c 0
 82 120 115 87 163 87 c 0
 210 87 241 119 241 169 c 0
EndSplineSet
Validated: 1
EndChar

StartChar: seven
Encoding: 55 55 11
Width: 307
GlyphClass: 2
Flags: W
LayerCount: 2
Fore
SplineSet
228 385 m 1
 33 385 l 1
 33 421 l 1
 274 421 l 1
 274 389 l 1
 103 56 l 1
 58 56 l 1
 228 385 l 1
EndSplineSet
Validated: 1
EndChar

StartChar: eight
Encoding: 56 56 12
Width: 307
GlyphClass: 2
Flags: W
LayerCount: 2
Fore
SplineSet
284 153 m 0
 284 91 233 52 154 52 c 0
 74 52 23 91 23 153 c 0
 23 197 52 231 99 243 c 1
 55 256 31 287 31 328 c 0
 31 386 81 425 154 425 c 0
 226 425 276 386 276 328 c 0
 276 287 251 256 209 243 c 1
 257 231 284 197 284 153 c 0
154 255 m 1
 203 261 234 286 234 325 c 0
 234 365 204 390 154 390 c 0
 103 390 73 365 73 325 c 0
 73 286 104 261 154 255 c 1
243 155 m 0
 243 196 207 220 154 226 c 1
 100 220 65 196 65 155 c 0
 65 111 96 87 154 87 c 0
 211 87 243 111 243 155 c 0
EndSplineSet
Validated: 1
EndChar

StartChar: nine
Encoding: 57 57 13
Width: 305
GlyphClass: 2
Flags: W
LayerCount: 2
Fore
SplineSet
280 247 m 0
 280 124 228 52 139 52 c 0
 98 52 56 68 25 97 c 1
 41 129 l 1
 76 100 106 87 139 87 c 0
 202 87 238 146 238 247 c 2
 238 254 l 1
 222 215 184 192 138 192 c 0
 72 192 25 239 25 307 c 0
 25 375 75 425 142 425 c 0
 230 425 280 361 280 247 c 0
226 308 m 0
 226 357 193 389 144 389 c 0
 98 389 67 357 67 308 c 0
 67 259 98 227 145 227 c 0
 193 227 226 260 226 308 c 0
EndSplineSet
Validated: 1
EndChar

StartChar: A
Encoding: 65 65 14
Width: 376
GlyphClass: 2
Flags: W
LayerCount: 2
Fore
SplineSet
206 421 m 1
 367 56 l 1
 324 56 l 1
 284 150 l 1
 93 150 l 1
 53 56 l 1
 9 56 l 1
 169 421 l 1
 206 421 l 1
269 185 m 1
 188 372 l 1
 108 185 l 1
 269 185 l 1
EndSplineSet
Validated: 1
EndChar

StartChar: B
Encoding: 66 66 15
Width: 363
GlyphClass: 2
Flags: W
LayerCount: 2
Fore
SplineSet
318 155 m 0
 318 92 274 56 197 56 c 2
 45 56 l 1
 45 421 l 1
 191 421 l 2
 266 421 309 386 309 325 c 0
 309 286 288 257 252 243 c 1
 293 232 318 200 318 155 c 0
185 386 m 2
 87 386 l 1
 87 259 l 1
 185 259 l 2
 240 259 268 281 268 323 c 0
 268 365 240 386 185 386 c 2
276 156 m 0
 276 201 249 223 193 223 c 2
 87 223 l 1
 87 91 l 1
 193 91 l 2
 250 91 276 112 276 156 c 0
EndSplineSet
Validated: 1
EndChar

StartChar: C
Encoding: 67 67 16
Width: 357
GlyphClass: 2
Flags: W
LayerCount: 2
Fore
SplineSet
32 239 m 0
 32 353 97 425 201 425 c 0
 251 425 294 409 325 379 c 1
 309 346 l 1
 274 377 242 388 201 388 c 0
 121 388 75 335 75 239 c 0
 75 143 121 88 201 88 c 0
 242 88 274 100 309 130 c 1
 325 98 l 1
 294 67 251 52 201 52 c 0
 97 52 32 124 32 239 c 0
EndSplineSet
Validated: 1
EndChar

StartChar: D
Encoding: 68 68 17
Width: 396
GlyphClass: 2
Flags: W
LayerCount: 2
Fore
SplineSet
167 56 m 2
 45 56 l 1
 45 421 l 1
 167 421 l 2
 284 421 351 355 351 239 c 0
 351 122 284 56 167 56 c 2
87 385 m 1
 87 92 l 1
 165 92 l 2
 259 92 307 141 307 239 c 0
 307 336 260 385 165 385 c 2
 87 385 l 1
EndSplineSet
Validated: 1
EndChar

StartChar: E
Encoding: 69 69 18
Width: 320
GlyphClass: 2
Flags: W
LayerCount: 2
Fore
SplineSet
275 91 m 1
 275 56 l 1
 45 56 l 1
 45 421 l 1
 275 421 l 1
 275 386 l 1
 87 386 l 1
 87 259 l 1
 265 259 l 1
 265 223 l 1
 87 223 l 1
 87 91 l 1
 275 91 l 1
EndSplineSet
Validated: 1
EndChar

StartChar: F
Encoding: 70 70 19
Width: 315
GlyphClass: 2
Flags: W
LayerCount: 2
Fore
SplineSet
87 223 m 1
 87 56 l 1
 45 56 l 1
 45 421 l 1
 270 421 l 1
 270 385 l 1
 87 385 l 1
 87 259 l 1
 260 259 l 1
 260 223 l 1
 87 223 l 1
EndSplineSet
Validated: 1
EndChar

StartChar: G
Encoding: 71 71 20
Width: 365
GlyphClass: 2
Flags: W
LayerCount: 2
Fore
SplineSet
204 213 m 1
 204 246 l 1
 333 246 l 1
 333 77 l 1
 305 62 254 52 206 52 c 0
 97 52 32 122 32 239 c 0
 32 354 97 425 203 425 c 0
 254 425 298 409 329 379 c 1
 312 346 l 1
 277 377 246 389 203 389 c 0
 121 389 75 336 75 239 c 0
 75 140 121 87 207 87 c 0
 238 87 267 92 295 102 c 1
 295 213 l 1
 204 213 l 1
EndSplineSet
Validated: 1
EndChar

StartChar: H
Encoding: 72 72 21
Width: 392
GlyphClass: 2
Flags: W
LayerCount: 2
Fore
SplineSet
87 259 m 1
 305 259 l 1
 305 421 l 1
 347 421 l 1
 347 56 l 1
 305 56 l 1
 305 223 l 1
 87 223 l 1
 87 56 l 1
 45 56 l 1
 45 421 l 1
 87 421 l 1
 87 259 l 1
EndSplineSet
Validated: 1
EndChar

StartChar: I
Encoding: 73 73 22
Width: 132
GlyphClass: 2
Flags: W
LayerCount: 2
Fore
SplineSet
87 421 m 1
 87 56 l 1
 45 56 l 1
 45 421 l 1
 87 421 l 1
EndSplineSet
Validated: 1
EndChar

StartChar: J
Encoding: 74 74 23
Width: 126
GlyphClass: 2
Flags: W
LayerCount: 2
Fore
SplineSet
-3 -35 m 1
 -3 1 l 1
 13 -1 25 -3 34 -3 c 0
 69 -3 81 15 81 62 c 2
 81 421 l 1
 123 421 l 1
 123 61 l 2
 123 -10 100 -39 41 -39 c 0
 29 -39 15 -38 -3 -35 c 1
EndSplineSet
Validated: 1
EndChar

StartChar: K
Encoding: 75 75 24
Width: 375
GlyphClass: 2
Flags: W
LayerCount: 2
Fore
SplineSet
320 421 m 1
 130 243 l 1
 330 56 l 1
 275 56 l 1
 87 230 l 1
 87 56 l 1
 45 56 l 1
 45 421 l 1
 87 421 l 1
 87 253 l 1
 266 421 l 1
 320 421 l 1
EndSplineSet
Validated: 1
EndChar

StartChar: L
Encoding: 76 76 25
Width: 315
GlyphClass: 2
Flags: W
LayerCount: 2
Fore
SplineSet
270 92 m 1
 270 56 l 1
 45 56 l 1
 45 421 l 1
 87 421 l 1
 87 92 l 1
 270 92 l 1
EndSplineSet
Validated: 1
EndChar

StartChar: M
Encoding: 77 77 26
Width: 435
GlyphClass: 2
Flags: W
LayerCount: 2
Fore
SplineSet
80 421 m 1
 218 106 l 1
 355 421 l 1
 390 421 l 1
 390 56 l 1
 351 56 l 1
 351 327 l 1
 232 56 l 1
 203 56 l 1
 83 325 l 1
 84 56 l 1
 45 56 l 1
 45 421 l 1
 80 421 l 1
EndSplineSet
Validated: 1
EndChar

StartChar: N
Encoding: 78 78 27
Width: 382
GlyphClass: 2
Flags: W
LayerCount: 2
Fore
SplineSet
77 421 m 1
 297 127 l 1
 297 421 l 1
 337 421 l 1
 337 56 l 1
 305 56 l 1
 84 349 l 1
 84 56 l 1
 45 56 l 1
 45 421 l 1
 77 421 l 1
EndSplineSet
Validated: 1
EndChar

StartChar: O
Encoding: 79 79 28
Width: 396
GlyphClass: 2
Flags: W
LayerCount: 2
Fore
SplineSet
32 238 m 0
 32 353 95 425 198 425 c 0
 301 425 364 353 364 239 c 0
 364 124 299 52 198 52 c 0
 96 52 32 124 32 238 c 0
320 239 m 0
 320 335 275 389 198 389 c 0
 120 389 75 335 75 239 c 0
 75 143 120 88 198 88 c 0
 275 88 320 143 320 239 c 0
EndSplineSet
Validated: 1
EndChar

StartChar: P
Encoding: 80 80 29
Width: 355
GlyphClass: 2
Flags: W
LayerCount: 2
Fore
SplineSet
87 56 m 1
 45 56 l 1
 45 421 l 1
 190 421 l 2
 266 421 310 382 310 319 c 0
 310 255 265 216 190 216 c 2
 87 216 l 1
 87 56 l 1
87 386 m 1
 87 251 l 1
 187 251 l 2
 241 251 268 275 268 319 c 0
 268 362 241 386 187 386 c 2
 87 386 l 1
EndSplineSet
Validated: 1
EndChar

StartChar: Q
Encoding: 81 81 30
Width: 396
GlyphClass: 2
Flags: W
LayerCount: 2
Fore
SplineSet
325 -15 m 1
 296 -42 l 1
 267 -20 237 16 216 53 c 1
 208 52 202 52 198 52 c 0
 96 52 32 124 32 238 c 0
 32 353 95 425 198 425 c 0
 301 425 364 353 364 239 c 0
 364 149 325 86 259 62 c 1
 274 35 296 9 325 -15 c 1
198 88 m 0
 275 88 320 143 320 239 c 0
 320 335 275 389 198 389 c 0
 120 389 75 335 75 239 c 0
 75 143 120 88 198 88 c 0
EndSplineSet
Validated: 1
EndChar

StartChar: R
Encoding: 82 82 31
Width: 376
GlyphClass: 2
Flags: W
LayerCount: 2
Fore
SplineSet
285 179 m 2
 331 56 l 1
 287 56 l 1
 242 177 l 2
 231 207 213 215 178 215 c 2
 87 215 l 1
 87 56 l 1
 45 56 l 1
 45 421 l 1
 190 421 l 2
 268 421 312 385 312 319 c 0
 312 272 286 238 239 224 c 1
 260 221 275 207 285 179 c 2
87 386 m 1
 87 250 l 1
 186 250 l 2
 242 250 270 273 270 319 c 0
 270 364 244 386 186 386 c 2
 87 386 l 1
EndSplineSet
Validated: 1
EndChar

StartChar: S
Encoding: 83 83 32
Width: 320
GlyphClass: 2
Flags: W
LayerCount: 2
Fore
SplineSet
25 98 m 1
 40 130 l 1
 77 100 112 88 161 88 c 0
 220 88 254 112 253 153 c 0
 252 192 221 201 161 215 c 0
 133 222 110 228 92 235 c 0
 56 250 31 276 31 319 c 0
 31 382 84 425 164 425 c 0
 215 425 260 409 290 379 c 1
 273 346 l 1
 239 375 205 389 164 389 c 0
 107 389 73 363 73 321 c 0
 73 284 101 269 159 255 c 0
 190 248 214 240 232 234 c 0
 269 222 295 197 295 155 c 0
 295 93 243 52 161 52 c 0
 104 52 58 67 25 98 c 1
EndSplineSet
Validated: 33
EndChar

StartChar: T
Encoding: 84 84 33
Width: 309
GlyphClass: 2
Flags: W
LayerCount: 2
Fore
SplineSet
176 385 m 1
 176 56 l 1
 133 56 l 1
 133 385 l 1
 6 385 l 1
 6 421 l 1
 303 421 l 1
 303 385 l 1
 176 385 l 1
EndSplineSet
Validated: 1
EndChar

StartChar: U
Encoding: 85 85 34
Width: 374
GlyphClass: 2
Flags: W
LayerCount: 2
Fore
SplineSet
42 199 m 2
 42 421 l 1
 84 421 l 1
 84 195 l 2
 84 124 119 88 187 88 c 0
 255 88 290 124 290 195 c 2
 290 421 l 1
 332 421 l 1
 332 199 l 2
 332 103 282 52 187 52 c 0
 92 52 42 102 42 199 c 2
EndSplineSet
Validated: 1
EndChar

StartChar: V
Encoding: 86 86 35
Width: 357
GlyphClass: 2
Flags: W
LayerCount: 2
Fore
SplineSet
46 421 m 1
 179 109 l 1
 313 421 l 1
 356 421 l 1
 197 56 l 1
 160 56 l 1
 1 421 l 1
 46 421 l 1
EndSplineSet
Validated: 1
EndChar

StartChar: W
Encoding: 87 87 36
Width: 569
GlyphClass: 2
Flags: W
LayerCount: 2
Fore
SplineSet
302 420 m 1
 406 115 l 1
 510 421 l 1
 552 421 l 1
 424 56 l 1
 389 56 l 1
 285 354 l 1
 180 56 l 1
 145 56 l 1
 17 421 l 1
 60 421 l 1
 163 116 l 1
 269 421 l 1
 302 420 l 1
EndSplineSet
Validated: 1
EndChar

StartChar: X
Encoding: 88 88 37
Width: 334
GlyphClass: 2
Flags: W
LayerCount: 2
Fore
SplineSet
274 421 m 1
 324 421 l 1
 191 242 l 1
 330 56 l 1
 280 56 l 1
 167 211 l 1
 54 56 l 1
 4 56 l 1
 143 243 l 1
 11 421 l 1
 61 421 l 1
 167 274 l 1
 274 421 l 1
EndSplineSet
Validated: 1
EndChar

StartChar: Y
Encoding: 89 89 38
Width: 328
GlyphClass: 2
Flags: W
LayerCount: 2
Fore
SplineSet
156 241 m 1
 271 421 l 1
 319 421 l 1
 176 203 l 1
 176 56 l 1
 134 56 l 1
 134 204 l 1
 -9 421 l 1
 40 421 l 1
 156 241 l 1
EndSplineSet
Validated: 1
EndChar

StartChar: Z
Encoding: 90 90 39
Width: 309
GlyphClass: 2
Flags: W
LayerCount: 2
Fore
SplineSet
281 421 m 1
 281 390 l 1
 72 91 l 1
 286 91 l 1
 286 56 l 1
 23 56 l 1
 23 87 l 1
 232 385 l 1
 23 385 l 1
 23 421 l 1
 281 421 l 1
EndSplineSet
Validated: 1
EndChar

StartChar: a
Encoding: 97 97 40
Width: 292
GlyphClass: 2
Flags: W
LayerCount: 2
Fore
SplineSet
226 269 m 1
 226 314 l 1
 267 314 l 1
 267 56 l 1
 226 56 l 1
 226 103 l 1
 211 70 179 52 139 52 c 0
 70 52 25 105 25 185 c 0
 25 265 71 320 139 320 c 0
 179 320 210 301 226 269 c 1
226 186 m 0
 226 250 198 285 147 285 c 0
 96 285 67 248 67 185 c 0
 67 122 96 87 147 87 c 0
 198 87 226 123 226 186 c 0
EndSplineSet
Validated: 1
EndChar

StartChar: b
Encoding: 98 98 41
Width: 323
GlyphClass: 2
Flags: W
LayerCount: 2
Fore
SplineSet
283 187 m 0
 283 107 237 52 168 52 c 0
 128 52 97 71 81 104 c 1
 81 56 l 1
 40 56 l 1
 40 433 l 1
 81 433 l 1
 81 268 l 1
 96 301 128 320 168 320 c 0
 237 320 283 267 283 187 c 0
240 187 m 0
 240 249 211 285 161 285 c 0
 110 285 81 250 81 186 c 0
 81 123 110 87 161 87 c 0
 210 87 240 124 240 187 c 0
EndSplineSet
Validated: 1
EndChar

StartChar: c
Encoding: 99 99 42
Width: 266
GlyphClass: 2
Flags: W
LayerCount: 2
Fore
SplineSet
25 185 m 0
 25 265 74 320 150 320 c 0
 185 320 220 307 241 286 c 1
 227 255 l 1
 201 276 177 285 152 285 c 0
 99 285 68 248 68 185 c 0
 68 123 99 87 152 87 c 0
 177 87 201 96 227 116 c 1
 241 86 l 1
 219 65 183 52 148 52 c 0
 73 52 25 105 25 185 c 0
EndSplineSet
Validated: 1
EndChar

StartChar: d
Encoding: 100 100 43
Width: 292
GlyphClass: 2
Flags: W
LayerCount: 2
Fore
SplineSet
225 270 m 1
 225 433 l 1
 267 433 l 1
 267 56 l 1
 226 56 l 1
 226 103 l 1
 211 70 179 52 139 52 c 0
 71 52 25 107 25 187 c 0
 25 267 70 320 139 320 c 0
 179 320 210 301 225 270 c 1
226 186 m 0
 226 249 198 285 147 285 c 0
 96 285 67 249 67 187 c 0
 67 124 96 87 147 87 c 0
 198 87 226 123 226 186 c 0
EndSplineSet
Validated: 1
EndChar

StartChar: e
Encoding: 101 101 44
Width: 280
GlyphClass: 2
Flags: W
LayerCount: 2
Fore
SplineSet
255 194 m 2
 255 186 l 1
 67 186 l 1
 67 121 97 87 154 87 c 0
 184 87 212 97 237 117 c 1
 251 87 l 1
 228 66 190 52 154 52 c 0
 73 52 25 103 25 186 c 0
 25 265 75 320 146 320 c 0
 214 320 255 272 255 194 c 2
68 213 m 1
 218 213 l 1
 214 262 189 287 146 287 c 0
 103 287 76 260 68 213 c 1
EndSplineSet
Validated: 1
EndChar

StartChar: f
Encoding: 102 102 45
Width: 169
GlyphClass: 2
Flags: W
LayerCount: 2
Fore
SplineSet
95 348 m 2
 95 314 l 1
 158 314 l 1
 158 281 l 1
 95 281 l 1
 95 56 l 1
 54 56 l 1
 54 281 l 1
 4 281 l 1
 4 314 l 1
 54 314 l 1
 54 353 l 2
 54 407 82 435 131 435 c 0
 142 435 154 433 165 430 c 1
 165 395 l 1
 156 398 147 399 139 399 c 0
 112 399 95 385 95 348 c 2
EndSplineSet
Validated: 1
EndChar

StartChar: g
Encoding: 103 103 46
Width: 294
GlyphClass: 2
Flags: W
LayerCount: 2
Fore
SplineSet
228 269 m 1
 228 314 l 1
 269 314 l 1
 269 58 l 2
 269 -18 229 -58 153 -58 c 0
 114 -58 80 -49 52 -32 c 1
 59 2 l 1
 92 -16 118 -24 153 -24 c 0
 203 -24 228 3 228 54 c 2
 228 115 l 1
 212 83 181 64 140 64 c 0
 71 64 25 115 25 192 c 0
 25 268 71 320 140 320 c 0
 181 320 212 301 228 269 c 1
228 192 m 0
 228 250 198 285 148 285 c 0
 97 285 67 250 67 192 c 0
 67 134 97 98 148 98 c 0
 198 98 228 134 228 192 c 0
EndSplineSet
Validated: 1
EndChar

StartChar: h
Encoding: 104 104 47
Width: 301
GlyphClass: 2
Flags: W
LayerCount: 2
Fore
SplineSet
261 218 m 2
 261 56 l 1
 220 56 l 1
 220 216 l 2
 220 263 201 285 160 285 c 0
 113 285 81 253 81 203 c 2
 81 56 l 1
 40 56 l 1
 40 433 l 1
 81 433 l 1
 81 272 l 1
 98 303 130 320 168 320 c 0
 230 320 261 286 261 218 c 2
EndSplineSet
Validated: 1
EndChar

StartChar: i
Encoding: 105 105 48
Width: 122
GlyphClass: 2
Flags: W
LayerCount: 2
Fore
SplineSet
86 376 m 1
 36 376 l 1
 36 423 l 1
 86 423 l 1
 86 376 l 1
81 314 m 1
 81 56 l 1
 40 56 l 1
 40 314 l 1
 81 314 l 1
EndSplineSet
Validated: 1
EndChar

StartChar: j
Encoding: 106 106 49
Width: 114
GlyphClass: 2
Flags: W
LayerCount: 2
Fore
SplineSet
86 376 m 1
 36 376 l 1
 36 423 l 1
 86 423 l 1
 86 376 l 1
-3 -21 m 0
 26 -21 40 -4 40 30 c 2
 40 314 l 1
 81 314 l 1
 81 25 l 2
 81 -28 53 -57 6 -57 c 0
 -6 -57 -17 -55 -28 -52 c 1
 -28 -17 l 1
 -19 -19 -11 -21 -3 -21 c 0
EndSplineSet
Validated: 1
EndChar

StartChar: k
Encoding: 107 107 50
Width: 308
GlyphClass: 2
Flags: W
LayerCount: 2
Fore
SplineSet
255 313 m 1
 126 190 l 1
 268 56 l 1
 214 56 l 1
 81 180 l 1
 81 56 l 1
 40 56 l 1
 40 433 l 1
 81 433 l 1
 81 195 l 1
 203 313 l 1
 255 313 l 1
EndSplineSet
Validated: 1
EndChar

StartChar: l
Encoding: 108 108 51
Width: 121
GlyphClass: 2
Flags: W
LayerCount: 2
Fore
SplineSet
81 433 m 1
 81 56 l 1
 40 56 l 1
 40 433 l 1
 81 433 l 1
EndSplineSet
Validated: 1
EndChar

StartChar: m
Encoding: 109 109 52
Width: 447
GlyphClass: 2
Flags: W
LayerCount: 2
Fore
SplineSet
411 218 m 2
 411 56 l 1
 370 56 l 1
 370 216 l 2
 370 264 354 285 316 285 c 0
 273 285 247 254 247 203 c 2
 247 56 l 1
 205 56 l 1
 205 216 l 2
 205 263 189 285 152 285 c 0
 108 285 81 254 81 203 c 2
 81 56 l 1
 40 56 l 1
 40 241 l 2
 40 268 38 292 36 314 c 1
 75 314 l 1
 79 268 l 1
 94 301 123 320 161 320 c 0
 202 320 227 304 240 270 c 1
 255 300 287 320 326 320 c 0
 382 320 411 286 411 218 c 2
EndSplineSet
Validated: 1
EndChar

StartChar: n
Encoding: 110 110 53
Width: 297
GlyphClass: 2
Flags: W
LayerCount: 2
Fore
SplineSet
261 218 m 2
 261 56 l 1
 220 56 l 1
 220 216 l 2
 220 263 201 285 160 285 c 0
 113 285 81 253 81 203 c 2
 81 56 l 1
 40 56 l 1
 40 241 l 2
 40 268 38 292 36 314 c 1
 75 314 l 1
 79 267 l 1
 95 301 128 320 168 320 c 0
 230 320 261 286 261 218 c 2
EndSplineSet
Validated: 1
EndChar

StartChar: o
Encoding: 111 111 54
Width: 293
GlyphClass: 2
Flags: W
LayerCount: 2
Fore
SplineSet
25 186 m 0
 25 267 73 320 146 320 c 0
 220 320 268 267 268 186 c 0
 268 105 220 52 146 52 c 0
 73 52 25 105 25 186 c 0
226 186 m 0
 226 249 196 285 146 285 c 0
 96 285 67 249 67 186 c 0
 67 121 95 87 146 87 c 0
 198 87 226 121 226 186 c 0
EndSplineSet
Validated: 1
EndChar

StartChar: p
Encoding: 112 112 55
Width: 319
GlyphClass: 2
Flags: W
LayerCount: 2
Fore
SplineSet
283 185 m 0
 283 105 237 52 168 52 c 0
 128 52 97 71 81 104 c 1
 81 -55 l 1
 40 -55 l 1
 40 241 l 2
 40 268 38 292 36 314 c 1
 75 314 l 1
 79 264 l 1
 94 299 126 320 168 320 c 0
 237 320 283 265 283 185 c 0
240 185 m 0
 240 248 210 285 161 285 c 0
 110 285 81 250 81 186 c 0
 81 123 110 87 161 87 c 0
 211 87 240 122 240 185 c 0
EndSplineSet
Validated: 1
EndChar

StartChar: q
Encoding: 113 113 56
Width: 296
GlyphClass: 2
Flags: W
LayerCount: 2
Fore
SplineSet
227 265 m 1
 232 314 l 1
 271 314 l 1
 268 292 267 268 267 241 c 2
 267 -55 l 1
 225 -55 l 1
 225 102 l 1
 210 70 179 52 139 52 c 0
 70 52 25 105 25 185 c 0
 25 265 71 320 139 320 c 0
 180 320 212 300 227 265 c 1
226 186 m 0
 226 250 198 285 147 285 c 0
 96 285 67 248 67 185 c 0
 67 122 96 87 147 87 c 0
 198 87 226 123 226 186 c 0
EndSplineSet
Validated: 1
EndChar

StartChar: r
Encoding: 114 114 57
Width: 219
GlyphClass: 2
Flags: W
LayerCount: 2
Fore
SplineSet
183 317 m 1
 182 279 l 1
 175 281 165 283 155 283 c 0
 130 283 112 275 99 259 c 0
 88 244 81 225 81 203 c 2
 81 56 l 1
 40 56 l 1
 40 241 l 2
 40 268 38 292 36 314 c 1
 75 314 l 1
 79 266 l 1
 92 301 123 320 160 320 c 0
 168 320 176 319 183 317 c 1
EndSplineSet
Validated: 1
EndChar

StartChar: s
Encoding: 115 115 58
Width: 252
GlyphClass: 2
Flags: W
LayerCount: 2
Fore
SplineSet
24 86 m 1
 38 116 l 1
 66 94 93 86 129 86 c 0
 167 86 188 100 188 125 c 0
 188 145 175 156 144 164 c 2
 100 174 l 2
 57 184 33 209 33 243 c 0
 33 288 72 320 132 320 c 0
 168 320 201 308 223 286 c 1
 209 256 l 1
 185 276 159 286 132 286 c 0
 95 286 74 271 74 246 c 0
 74 225 86 213 114 207 c 2
 157 196 l 2
 205 184 228 162 228 126 c 0
 228 81 189 52 127 52 c 0
 83 52 49 64 24 86 c 1
EndSplineSet
Validated: 1
EndChar

StartChar: t
Encoding: 116 116 59
Width: 173
GlyphClass: 2
Flags: W
LayerCount: 2
Fore
SplineSet
169 314 m 1
 169 281 l 1
 95 281 l 1
 95 140 l 2
 95 102 112 88 140 88 c 0
 150 88 159 90 168 93 c 1
 168 58 l 1
 157 54 145 52 132 52 c 0
 83 52 54 81 54 134 c 2
 54 281 l 1
 4 281 l 1
 4 314 l 1
 54 314 l 1
 54 380 l 1
 95 394 l 1
 95 314 l 1
 169 314 l 1
EndSplineSet
Validated: 1
EndChar

StartChar: u
Encoding: 117 117 60
Width: 293
GlyphClass: 2
Flags: W
LayerCount: 2
Fore
SplineSet
214 168 m 2
 214 314 l 1
 255 314 l 1
 255 56 l 1
 215 56 l 1
 215 101 l 1
 199 69 168 52 131 52 c 0
 70 52 38 87 38 154 c 2
 38 314 l 1
 80 314 l 1
 80 155 l 2
 80 108 99 87 138 87 c 0
 183 87 214 119 214 168 c 2
EndSplineSet
Validated: 1
EndChar

StartChar: v
Encoding: 118 118 61
Width: 272
GlyphClass: 2
Flags: W
LayerCount: 2
Fore
SplineSet
50 313 m 1
 137 101 l 1
 225 313 l 1
 266 313 l 1
 155 56 l 1
 116 56 l 1
 6 313 l 1
 50 313 l 1
EndSplineSet
Validated: 1
EndChar

StartChar: w
Encoding: 119 119 62
Width: 445
GlyphClass: 2
Flags: W
LayerCount: 2
Fore
SplineSet
242 314 m 1
 316 105 l 1
 390 314 l 1
 431 314 l 1
 336 56 l 1
 296 56 l 1
 222 257 l 1
 149 56 l 1
 109 56 l 1
 14 314 l 1
 57 314 l 1
 130 106 l 1
 205 314 l 1
 242 314 l 1
EndSplineSet
Validated: 1
EndChar

StartChar: x
Encoding: 120 120 63
Width: 274
GlyphClass: 2
Flags: W
LayerCount: 2
Fore
SplineSet
211 314 m 1
 262 314 l 1
 162 189 l 1
 268 56 l 1
 218 56 l 1
 137 157 l 1
 56 56 l 1
 6 56 l 1
 113 189 l 1
 12 314 l 1
 62 314 l 1
 137 219 l 1
 211 314 l 1
EndSplineSet
Validated: 1
EndChar

StartChar: y
Encoding: 121 121 64
Width: 272
GlyphClass: 2
Flags: W
LayerCount: 2
Fore
SplineSet
137 101 m 1
 225 314 l 1
 266 314 l 1
 146 32 l 2
 121 -26 83 -50 28 -60 c 1
 19 -28 l 1
 43 -22 61 -15 74 -6 c 0
 86 3 97 17 105 36 c 2
 115 59 l 1
 6 314 l 1
 50 314 l 1
 137 101 l 1
EndSplineSet
Validated: 1
EndChar

StartChar: z
Encoding: 122 122 65
Width: 269
GlyphClass: 2
Flags: W
LayerCount: 2
Fore
SplineSet
238 314 m 1
 238 283 l 1
 77 89 l 1
 243 89 l 1
 243 56 l 1
 26 56 l 1
 26 85 l 1
 188 281 l 1
 31 281 l 1
 31 314 l 1
 238 314 l 1
EndSplineSet
Validated: 1
EndChar

StartChar: glass-martini
Encoding: 61440 61440 66
Width: 512
GlyphClass: 3
Flags: W
LayerCount: 2
Fore
SplineSet
502.049804688 390.400390625 m 2
 288 176.360351562 l 1
 288 -16 l 1
 344 -16 l 2
 366.08984375 -16 384 -33.91015625 384 -56 c 0
 384 -60.419921875 380.419921875 -64 376 -64 c 2
 136 -64 l 2
 131.580078125 -64 128 -60.419921875 128 -56 c 0
 128 -33.91015625 145.91015625 -16 168 -16 c 2
 224 -16 l 1
 224 176.360351562 l 1
 9.9501953125 390.400390625 l 2
 -11.2998046875 411.66015625 3.75 448 33.7998046875 448 c 2
 478.200195312 448 l 2
 508.25 448 523.299804688 411.66015625 502.049804688 390.400390625 c 2
EndSplineSet
Validated: 524833
Ligature2: "'liga' Standard Ligatures in Latin lookup 0 per glyph data 30" g l a s s hyphen m a r t i n i
Ligature2: "'liga' Standard Ligatures in Latin lookup 0 per glyph data 30" G l a s s hyphen M a r t i n i
Ligature2: "'liga' Standard Ligatures in Latin lookup 0 per glyph data 30" G l a s s hyphen m a r t i n i
Ligature2: "'liga' Standard Ligatures in Latin lookup 0 per glyph data 30" G L A S S hyphen M A R T I N I
EndChar

StartChar: music
Encoding: 61441 61441 67
Width: 512
GlyphClass: 3
Flags: W
LayerCount: 2
Fore
SplineSet
470.379882812 446.490234375 m 2
 472.97265625 447.306640625 477.282226562 447.970703125 480 447.970703125 c 0
 497.647460938 447.970703125 511.983398438 433.647460938 512 416 c 2
 512 64 l 2
 512 28.650390625 469 0 416 0 c 0
 363 0 320 28.66015625 320 64 c 0
 320 99.33984375 363 128 416 128 c 0
 424.958984375 127.951171875 439.294921875 126.190429688 448 124.0703125 c 1
 448 308.6796875 l 1
 192 233.6796875 l 1
 192 0 l 2
 192 -35.33984375 149 -64 96 -64 c 0
 43 -64 0 -35.33984375 0 0 c 0
 0 35.33984375 43 64 96 64 c 0
 104.958007812 63.94921875 119.293945312 62.193359375 128 60.080078125 c 1
 128 321.490234375 l 2
 128.0078125 334.448242188 138.047851562 348.116210938 150.41015625 352 c 2
 470.379882812 446.490234375 l 2
EndSplineSet
Validated: 524289
Ligature2: "'liga' Standard Ligatures in Latin lookup 0 per glyph data 55" m u s i c
Ligature2: "'liga' Standard Ligatures in Latin lookup 0 per glyph data 55" M u s i c
Ligature2: "'liga' Standard Ligatures in Latin lookup 0 per glyph data 55" M U S I C
EndChar

StartChar: search
Encoding: 61442 61442 68
Width: 512
GlyphClass: 3
Flags: W
LayerCount: 2
Fore
SplineSet
505 5.2998046875 m 2
 514.299804688 -4.099609375 514.299804688 -19.2998046875 504.900390625 -28.7001953125 c 2
 476.599609375 -57 l 2
 467.299804688 -66.400390625 452.099609375 -66.400390625 442.700195312 -57 c 2
 343 42.7001953125 l 2
 338.5 47.2001953125 336 53.2998046875 336 59.7001953125 c 2
 336 76 l 1
 300.700195312 48.400390625 256.299804688 32 208 32 c 0
 93.099609375 32 0 125.099609375 0 240 c 0
 0 354.900390625 93.099609375 448 208 448 c 0
 322.900390625 448 416 354.900390625 416 240 c 0
 416 191.700195312 399.599609375 147.299804688 372 112 c 1
 388.299804688 112 l 2
 394.700195312 112 400.799804688 109.5 405.299804688 105 c 2
 505 5.2998046875 l 2
208 112 m 0
 278.799804688 112 336 169.299804688 336 240 c 0
 336 310.799804688 278.700195312 368 208 368 c 0
 137.200195312 368 80 310.700195312 80 240 c 0
 80 169.200195312 137.299804688 112 208 112 c 0
EndSplineSet
Validated: 524321
Ligature2: "'liga' Standard Ligatures in Latin lookup 0 per glyph data 51" s e a r c h
Ligature2: "'liga' Standard Ligatures in Latin lookup 0 per glyph data 51" S e a r c h
Ligature2: "'liga' Standard Ligatures in Latin lookup 0 per glyph data 51" S E A R C H
EndChar

StartChar: heart
Encoding: 61444 61444 69
Width: 512
GlyphClass: 3
Flags: W
LayerCount: 2
Fore
SplineSet
462.299804688 385.400390625 m 0
 525.099609375 331.799804688 528.400390625 235.599609375 472.099609375 177.5 c 2
 278.599609375 -22.2998046875 l 2
 266.099609375 -35.2001953125 245.799804688 -35.2001953125 233.299804688 -22.2998046875 c 2
 39.7998046875 177.5 l 2
 -16.400390625 235.599609375 -13.099609375 331.799804688 49.7001953125 385.400390625 c 0
 104.5 432.099609375 186.099609375 423.700195312 236.299804688 371.799804688 c 2
 256 351.5 l 1
 275.700195312 371.799804688 l 2
 326 423.700195312 407.5 432.099609375 462.299804688 385.400390625 c 0
EndSplineSet
Validated: 524321
Ligature2: "'liga' Standard Ligatures in Latin lookup 0 per glyph data 53" h e a r t
Ligature2: "'liga' Standard Ligatures in Latin lookup 0 per glyph data 53" H E A R T
Ligature2: "'liga' Standard Ligatures in Latin lookup 0 per glyph data 53" H e a r t
EndChar

StartChar: star
Encoding: 61445 61445 70
Width: 576
GlyphClass: 3
Flags: W
LayerCount: 2
Fore
SplineSet
259.299804688 430.200195312 m 2
 271.099609375 454.099609375 305 453.799804688 316.700195312 430.200195312 c 2
 382 297.799804688 l 1
 528.099609375 276.5 l 2
 554.299804688 272.700195312 564.799804688 240.400390625 545.799804688 221.900390625 c 2
 440.099609375 118.900390625 l 1
 465.099609375 -26.599609375 l 2
 469.599609375 -52.900390625 441.900390625 -72.5 418.700195312 -60.2998046875 c 2
 288 8.400390625 l 1
 157.299804688 -60.2998046875 l 2
 134.099609375 -72.599609375 106.400390625 -52.900390625 110.900390625 -26.599609375 c 2
 135.900390625 118.900390625 l 1
 30.2001953125 221.900390625 l 2
 11.2001953125 240.400390625 21.7001953125 272.700195312 47.900390625 276.5 c 2
 194 297.799804688 l 1
 259.299804688 430.200195312 l 2
EndSplineSet
Validated: 524321
Ligature2: "'liga' Standard Ligatures in Latin lookup 0 per glyph data 58" s t a r
Ligature2: "'liga' Standard Ligatures in Latin lookup 0 per glyph data 58" S t a r
Ligature2: "'liga' Standard Ligatures in Latin lookup 0 per glyph data 58" S T A R
EndChar

StartChar: user
Encoding: 61447 61447 71
Width: 448
GlyphClass: 3
Flags: W
LayerCount: 2
Fore
SplineSet
224 192 m 0
 153.299804688 192 96 249.299804688 96 320 c 0
 96 390.700195312 153.299804688 448 224 448 c 0
 294.700195312 448 352 390.700195312 352 320 c 0
 352 249.299804688 294.700195312 192 224 192 c 0
313.599609375 160 m 2
 387.799804688 160 448 99.7998046875 448 25.599609375 c 2
 448 -16 l 2
 448 -42.5 426.5 -64 400 -64 c 2
 48 -64 l 2
 21.5 -64 0 -42.5 0 -16 c 2
 0 25.599609375 l 2
 0 99.7998046875 60.2001953125 160 134.400390625 160 c 2
 151.099609375 160 l 1
 173.400390625 149.799804688 198 144 224 144 c 0
 250 144 274.700195312 149.799804688 296.900390625 160 c 1
 313.599609375 160 l 2
EndSplineSet
Validated: 524289
Ligature2: "'liga' Standard Ligatures in Latin lookup 0 per glyph data 56" u s e r
Ligature2: "'liga' Standard Ligatures in Latin lookup 0 per glyph data 56" U S E R
Ligature2: "'liga' Standard Ligatures in Latin lookup 0 per glyph data 56" U s e r
EndChar

StartChar: film
Encoding: 61448 61448 72
Width: 512
GlyphClass: 3
Flags: W
LayerCount: 2
Fore
SplineSet
488 384 m 2
 501.299804688 384 512 373.299804688 512 360 c 2
 512 24 l 2
 512 10.7001953125 501.299804688 0 488 0 c 2
 480 0 l 1
 480 20 l 2
 480 26.599609375 474.599609375 32 468 32 c 2
 428 32 l 2
 421.400390625 32 416 26.599609375 416 20 c 2
 416 0 l 1
 96 0 l 1
 96 20 l 2
 96 26.599609375 90.599609375 32 84 32 c 2
 44 32 l 2
 37.400390625 32 32 26.599609375 32 20 c 2
 32 0 l 1
 24 0 l 2
 10.7001953125 0 0 10.7001953125 0 24 c 2
 0 360 l 2
 0 373.299804688 10.7001953125 384 24 384 c 2
 32 384 l 1
 32 364 l 2
 32 357.400390625 37.400390625 352 44 352 c 2
 84 352 l 2
 90.599609375 352 96 357.400390625 96 364 c 2
 96 384 l 1
 416 384 l 1
 416 364 l 2
 416 357.400390625 421.400390625 352 428 352 c 2
 468 352 l 2
 474.599609375 352 480 357.400390625 480 364 c 2
 480 384 l 1
 488 384 l 2
96 76 m 2
 96 116 l 2
 96 122.599609375 90.599609375 128 84 128 c 2
 44 128 l 2
 37.400390625 128 32 122.599609375 32 116 c 2
 32 76 l 2
 32 69.400390625 37.400390625 64 44 64 c 2
 84 64 l 2
 90.599609375 64 96 69.400390625 96 76 c 2
96 172 m 2
 96 212 l 2
 96 218.599609375 90.599609375 224 84 224 c 2
 44 224 l 2
 37.400390625 224 32 218.599609375 32 212 c 2
 32 172 l 2
 32 165.400390625 37.400390625 160 44 160 c 2
 84 160 l 2
 90.599609375 160 96 165.400390625 96 172 c 2
96 268 m 2
 96 308 l 2
 96 314.599609375 90.599609375 320 84 320 c 2
 44 320 l 2
 37.400390625 320 32 314.599609375 32 308 c 2
 32 268 l 2
 32 261.400390625 37.400390625 256 44 256 c 2
 84 256 l 2
 90.599609375 256 96 261.400390625 96 268 c 2
368 60 m 2
 368 156 l 2
 368 162.599609375 362.599609375 168 356 168 c 2
 156 168 l 2
 149.400390625 168 144 162.599609375 144 156 c 2
 144 60 l 2
 144 53.400390625 149.400390625 48 156 48 c 2
 356 48 l 2
 362.599609375 48 368 53.400390625 368 60 c 2
368 228 m 2
 368 324 l 2
 368 330.599609375 362.599609375 336 356 336 c 2
 156 336 l 2
 149.400390625 336 144 330.599609375 144 324 c 2
 144 228 l 2
 144 221.400390625 149.400390625 216 156 216 c 2
 356 216 l 2
 362.599609375 216 368 221.400390625 368 228 c 2
480 76 m 2
 480 116 l 2
 480 122.599609375 474.599609375 128 468 128 c 2
 428 128 l 2
 421.400390625 128 416 122.599609375 416 116 c 2
 416 76 l 2
 416 69.400390625 421.400390625 64 428 64 c 2
 468 64 l 2
 474.599609375 64 480 69.400390625 480 76 c 2
480 172 m 2
 480 212 l 2
 480 218.599609375 474.599609375 224 468 224 c 2
 428 224 l 2
 421.400390625 224 416 218.599609375 416 212 c 2
 416 172 l 2
 416 165.400390625 421.400390625 160 428 160 c 2
 468 160 l 2
 474.599609375 160 480 165.400390625 480 172 c 2
480 268 m 2
 480 308 l 2
 480 314.599609375 474.599609375 320 468 320 c 2
 428 320 l 2
 421.400390625 320 416 314.599609375 416 308 c 2
 416 268 l 2
 416 261.400390625 421.400390625 256 428 256 c 2
 468 256 l 2
 474.599609375 256 480 261.400390625 480 268 c 2
EndSplineSet
Validated: 524289
Ligature2: "'liga' Standard Ligatures in Latin lookup 0 per glyph data 57" f i l m
Ligature2: "'liga' Standard Ligatures in Latin lookup 0 per glyph data 57" F i l m
Ligature2: "'liga' Standard Ligatures in Latin lookup 0 per glyph data 57" F I L M
EndChar

StartChar: th-large
Encoding: 61449 61449 73
Width: 512
GlyphClass: 3
Flags: W
LayerCount: 2
Fore
SplineSet
296 416 m 2
 488 416 l 2
 501.254882812 416 512 405.254882812 512 392 c 2
 512 232 l 2
 512 218.745117188 501.254882812 208 488 208 c 2
 296 208 l 2
 282.745117188 208 272 218.745117188 272 232 c 2
 272 392 l 2
 272 405.254882812 282.745117188 416 296 416 c 2
216 416 m 2
 229.254882812 416 240 405.254882812 240 392 c 2
 240 232 l 2
 240 218.745117188 229.254882812 208 216 208 c 2
 24 208 l 2
 10.7451171875 208 0 218.745117188 0 232 c 2
 0 392 l 2
 0 405.254882812 10.7451171875 416 24 416 c 2
 216 416 l 2
0 152 m 2
 0 165.254882812 10.7451171875 176 24 176 c 2
 216 176 l 2
 229.254882812 176 240 165.254882812 240 152 c 2
 240 -8 l 2
 240 -21.2548828125 229.254882812 -32 216 -32 c 2
 24 -32 l 2
 10.7451171875 -32 0 -21.2548828125 0 -8 c 2
 0 152 l 2
296 -32 m 2
 282.745117188 -32 272 -21.2548828125 272 -8 c 2
 272 152 l 2
 272 165.254882812 282.745117188 176 296 176 c 2
 488 176 l 2
 501.254882812 176 512 165.254882812 512 152 c 2
 512 -8 l 2
 512 -21.2548828125 501.254882812 -32 488 -32 c 2
 296 -32 l 2
EndSplineSet
Validated: 524801
Ligature2: "'liga' Standard Ligatures in Latin lookup 0 per glyph data 45" t h hyphen l a r g e
Ligature2: "'liga' Standard Ligatures in Latin lookup 0 per glyph data 45" T h hyphen L a r g e
Ligature2: "'liga' Standard Ligatures in Latin lookup 0 per glyph data 45" T h hyphen l a r g e
Ligature2: "'liga' Standard Ligatures in Latin lookup 0 per glyph data 45" T H hyphen L A R G E
EndChar

StartChar: th
Encoding: 61450 61450 74
Width: 512
GlyphClass: 3
Flags: W
LayerCount: 2
Fore
SplineSet
149.333007812 392 m 2
 149.333007812 312 l 2
 149.333007812 298.745117188 138.587890625 288 125.333007812 288 c 2
 24 288 l 2
 10.7451171875 288 0 298.745117188 0 312 c 2
 0 392 l 2
 0 405.254882812 10.7451171875 416 24 416 c 2
 125.333007812 416 l 2
 138.587890625 416 149.333007812 405.254882812 149.333007812 392 c 2
330.666992188 152 m 2
 330.666992188 138.745117188 319.921875 128 306.666015625 128 c 2
 205.333007812 128 l 2
 192.078125 128 181.333007812 138.745117188 181.333007812 152 c 2
 181.333007812 232 l 2
 181.333007812 245.254882812 192.078125 256 205.333007812 256 c 2
 306.666992188 256 l 2
 319.921875 256 330.666992188 245.254882812 330.666992188 232 c 2
 330.666992188 152 l 2
362.666992188 392 m 2
 362.666992188 405.254882812 373.412109375 416 386.666992188 416 c 2
 488 416 l 2
 501.254882812 416 512 405.254882812 512 392 c 2
 512 312 l 2
 512 298.745117188 501.254882812 288 488 288 c 2
 386.666992188 288 l 2
 373.412109375 288 362.666992188 298.745117188 362.666992188 312 c 2
 362.666992188 392 l 2
330.666992188 312 m 2
 330.666992188 298.745117188 319.921875 288 306.666015625 288 c 2
 205.333007812 288 l 2
 192.078125 288 181.333007812 298.745117188 181.333007812 312 c 2
 181.333007812 392 l 2
 181.333007812 405.254882812 192.078125 416 205.333007812 416 c 2
 306.666992188 416 l 2
 319.921875 416 330.666992188 405.254882812 330.666992188 392 c 2
 330.666992188 312 l 2
125.333007812 256 m 2
 138.587890625 256 149.333007812 245.254882812 149.333007812 232 c 2
 149.333007812 152 l 2
 149.333007812 138.745117188 138.587890625 128 125.333007812 128 c 2
 24 128 l 2
 10.7451171875 128 0 138.745117188 0 152 c 2
 0 232 l 2
 0 245.254882812 10.7451171875 256 24 256 c 2
 125.333007812 256 l 2
0 72 m 2
 0 85.2548828125 10.7451171875 96 24 96 c 2
 125.333007812 96 l 2
 138.587890625 96 149.333007812 85.2548828125 149.333007812 72 c 2
 149.333007812 -8 l 2
 149.333007812 -21.2548828125 138.587890625 -32 125.333007812 -32 c 2
 24 -32 l 2
 10.7451171875 -32 0 -21.2548828125 0 -8 c 2
 0 72 l 2
386.666992188 128 m 2
 373.412109375 128 362.666992188 138.745117188 362.666992188 152 c 2
 362.666992188 232 l 2
 362.666992188 245.254882812 373.412109375 256 386.666992188 256 c 2
 488 256 l 2
 501.254882812 256 512 245.254882812 512 232 c 2
 512 152 l 2
 512 138.745117188 501.254882812 128 488 128 c 2
 386.666992188 128 l 2
386.666992188 -32 m 2
 373.412109375 -32 362.666992188 -21.2548828125 362.666992188 -8 c 2
 362.666992188 72 l 2
 362.666992188 85.2548828125 373.412109375 96 386.666992188 96 c 2
 488 96 l 2
 501.254882812 96 512 85.2548828125 512 72 c 2
 512 -8 l 2
 512 -21.2548828125 501.254882812 -32 488 -32 c 2
 386.666992188 -32 l 2
181.333007812 72 m 2
 181.333007812 85.2548828125 192.078125 96 205.333007812 96 c 2
 306.666015625 96 l 2
 319.920898438 96 330.666015625 85.2548828125 330.666015625 72 c 2
 330.666015625 -8 l 2
 330.666015625 -21.2548828125 319.920898438 -32 306.666015625 -32 c 2
 205.333007812 -32 l 2
 192.078125 -32 181.333007812 -21.2548828125 181.333007812 -8 c 2
 181.333007812 72 l 2
EndSplineSet
Validated: 524289
Ligature2: "'liga' Standard Ligatures in Latin lookup 0 per glyph data 62" t h
Ligature2: "'liga' Standard Ligatures in Latin lookup 0 per glyph data 62" T h
Ligature2: "'liga' Standard Ligatures in Latin lookup 0 per glyph data 62" T H
EndChar

StartChar: th-list
Encoding: 61451 61451 75
Width: 512
GlyphClass: 3
Flags: W
LayerCount: 2
Fore
SplineSet
149.333007812 232 m 2
 149.333007812 152 l 2
 149.333007812 138.745117188 138.587890625 128 125.333007812 128 c 2
 24 128 l 2
 10.7451171875 128 0 138.745117188 0 152 c 2
 0 232 l 2
 0 245.254882812 10.7451171875 256 24 256 c 2
 125.333007812 256 l 2
 138.587890625 256 149.333007812 245.254882812 149.333007812 232 c 2
0 72 m 2
 0 85.2548828125 10.7451171875 96 24 96 c 2
 125.333007812 96 l 2
 138.587890625 96 149.333007812 85.2548828125 149.333007812 72 c 2
 149.333007812 -8 l 2
 149.333007812 -21.2548828125 138.587890625 -32 125.333007812 -32 c 2
 24 -32 l 2
 10.7451171875 -32 0 -21.2548828125 0 -8 c 2
 0 72 l 2
125.333007812 416 m 2
 138.587890625 416 149.333007812 405.254882812 149.333007812 392 c 2
 149.333007812 312 l 2
 149.333007812 298.745117188 138.587890625 288 125.333007812 288 c 2
 24 288 l 2
 10.7451171875 288 0 298.745117188 0 312 c 2
 0 392 l 2
 0 405.254882812 10.7451171875 416 24 416 c 2
 125.333007812 416 l 2
205.333007812 -32 m 2
 192.078125 -32 181.333007812 -21.2548828125 181.333007812 -8 c 2
 181.333007812 72 l 2
 181.333007812 85.2548828125 192.078125 96 205.333007812 96 c 2
 488 96 l 2
 501.254882812 96 512 85.2548828125 512 72 c 2
 512 -8 l 2
 512 -21.2548828125 501.254882812 -32 488 -32 c 2
 205.333007812 -32 l 2
181.333007812 392 m 2
 181.333007812 405.254882812 192.078125 416 205.333007812 416 c 2
 488 416 l 2
 501.254882812 416 512 405.254882812 512 392 c 2
 512 312 l 2
 512 298.745117188 501.254882812 288 488 288 c 2
 205.333007812 288 l 2
 192.078125 288 181.333007812 298.745117188 181.333007812 312 c 2
 181.333007812 392 l 2
205.333007812 128 m 2
 192.078125 128 181.333007812 138.745117188 181.333007812 152 c 2
 181.333007812 232 l 2
 181.333007812 245.254882812 192.078125 256 205.333007812 256 c 2
 488 256 l 2
 501.254882812 256 512 245.254882812 512 232 c 2
 512 152 l 2
 512 138.745117188 501.254882812 128 488 128 c 2
 205.333007812 128 l 2
EndSplineSet
Validated: 524801
Ligature2: "'liga' Standard Ligatures in Latin lookup 0 per glyph data 48" t h hyphen l i s t
Ligature2: "'liga' Standard Ligatures in Latin lookup 0 per glyph data 48" T h hyphen L i s t
Ligature2: "'liga' Standard Ligatures in Latin lookup 0 per glyph data 48" T h hyphen l i s t
Ligature2: "'liga' Standard Ligatures in Latin lookup 0 per glyph data 48" T H hyphen L I S T
EndChar

StartChar: check
Encoding: 61452 61452 76
Width: 512
GlyphClass: 3
Flags: W
LayerCount: 2
Fore
SplineSet
173.8984375 8.595703125 m 2
 7.498046875 174.99609375 l 2
 -2.4990234375 184.993164062 -2.4990234375 201.202148438 7.498046875 211.200195312 c 2
 43.701171875 247.404296875 l 2
 53.6982421875 257.40234375 69.908203125 257.40234375 79.9052734375 247.404296875 c 2
 192 135.309570312 l 1
 432.094726562 375.404296875 l 2
 442.091796875 385.401367188 458.301757812 385.401367188 468.298828125 375.404296875 c 2
 504.501953125 339.200195312 l 2
 514.499023438 329.203125 514.499023438 312.994140625 504.501953125 302.99609375 c 2
 210.1015625 8.5947265625 l 2
 200.103515625 -1.40234375 183.89453125 -1.40234375 173.8984375 8.595703125 c 2
EndSplineSet
Validated: 524321
Ligature2: "'liga' Standard Ligatures in Latin lookup 0 per glyph data 55" c h e c k
Ligature2: "'liga' Standard Ligatures in Latin lookup 0 per glyph data 55" C h e c k
Ligature2: "'liga' Standard Ligatures in Latin lookup 0 per glyph data 55" C H E C K
EndChar

StartChar: times
Encoding: 61453 61453 77
Width: 352
GlyphClass: 3
Flags: W
LayerCount: 2
Fore
SplineSet
242.719726562 192 m 1
 342.790039062 91.9296875 l 2
 355.0703125 79.6396484375 355.0703125 59.73046875 342.790039062 47.4501953125 c 2
 320.549804688 25.2099609375 l 2
 308.26953125 12.9296875 288.349609375 12.9296875 276.0703125 25.2099609375 c 2
 176 125.280273438 l 1
 75.9296875 25.2099609375 l 2
 63.650390625 12.9296875 43.73046875 12.9296875 31.4501953125 25.2099609375 c 2
 9.2099609375 47.4501953125 l 2
 -3.0703125 59.740234375 -3.0703125 79.650390625 9.2099609375 91.9296875 c 2
 109.280273438 192 l 1
 9.2099609375 292.0703125 l 2
 -3.0703125 304.360351562 -3.0703125 324.26953125 9.2099609375 336.549804688 c 2
 31.4501953125 358.790039062 l 2
 43.740234375 371.0703125 63.650390625 371.0703125 75.9296875 358.790039062 c 2
 176 258.719726562 l 1
 276.0703125 358.790039062 l 2
 288.360351562 371.0703125 308.26953125 371.0703125 320.549804688 358.790039062 c 2
 342.790039062 336.549804688 l 2
 355.0703125 324.259765625 355.0703125 304.349609375 342.790039062 292.0703125 c 2
 242.719726562 192 l 1
EndSplineSet
Validated: 524321
Ligature2: "'liga' Standard Ligatures in Latin lookup 0 per glyph data 55" t i m e s
Ligature2: "'liga' Standard Ligatures in Latin lookup 0 per glyph data 55" T i m e s
Ligature2: "'liga' Standard Ligatures in Latin lookup 0 per glyph data 55" T I M E S
EndChar

StartChar: search-plus
Encoding: 61454 61454 78
Width: 512
GlyphClass: 3
Flags: W
LayerCount: 2
Fore
SplineSet
304 256 m 2
 304 224 l 2
 304 217.400390625 298.599609375 212 292 212 c 2
 236 212 l 1
 236 156 l 2
 236 149.400390625 230.599609375 144 224 144 c 2
 192 144 l 2
 185.400390625 144 180 149.400390625 180 156 c 2
 180 212 l 1
 124 212 l 2
 117.400390625 212 112 217.400390625 112 224 c 2
 112 256 l 2
 112 262.599609375 117.400390625 268 124 268 c 2
 180 268 l 1
 180 324 l 2
 180 330.599609375 185.400390625 336 192 336 c 2
 224 336 l 2
 230.599609375 336 236 330.599609375 236 324 c 2
 236 268 l 1
 292 268 l 2
 298.599609375 268 304 262.599609375 304 256 c 2
505 -28.7001953125 m 2
 476.700195312 -57 l 2
 467.299804688 -66.400390625 452.099609375 -66.400390625 442.799804688 -57 c 2
 343 42.7001953125 l 2
 338.5 47.2001953125 336 53.2998046875 336 59.7001953125 c 2
 336 76 l 1
 300.700195312 48.400390625 256.299804688 32 208 32 c 0
 93.099609375 32 0 125.099609375 0 240 c 0
 0 354.900390625 93.099609375 448 208 448 c 0
 322.900390625 448 416 354.900390625 416 240 c 0
 416 191.700195312 399.599609375 147.299804688 372 112 c 1
 388.299804688 112 l 2
 394.700195312 112 400.799804688 109.5 405.299804688 105 c 2
 505 5.2998046875 l 2
 514.299804688 -4.099609375 514.299804688 -19.2998046875 505 -28.7001953125 c 2
344 240 m 0
 344 315.200195312 283.200195312 376 208 376 c 0
 132.799804688 376 72 315.200195312 72 240 c 0
 72 164.799804688 132.799804688 104 208 104 c 0
 283.200195312 104 344 164.799804688 344 240 c 0
EndSplineSet
Validated: 524833
Ligature2: "'liga' Standard Ligatures in Latin lookup 0 per glyph data 37" s e a r c h hyphen p l u s
Ligature2: "'liga' Standard Ligatures in Latin lookup 0 per glyph data 37" S e a r c h hyphen p l u s
Ligature2: "'liga' Standard Ligatures in Latin lookup 0 per glyph data 37" S E A R C H hyphen P L U S
Ligature2: "'liga' Standard Ligatures in Latin lookup 0 per glyph data 37" S e a r c h hyphen P l u s
EndChar

StartChar: search-minus
Encoding: 61456 61456 79
Width: 512
GlyphClass: 3
Flags: W
LayerCount: 2
Fore
SplineSet
304 256 m 2
 304 224 l 2
 304 217.400390625 298.599609375 212 292 212 c 2
 124 212 l 2
 117.400390625 212 112 217.400390625 112 224 c 2
 112 256 l 2
 112 262.599609375 117.400390625 268 124 268 c 2
 292 268 l 2
 298.599609375 268 304 262.599609375 304 256 c 2
505 -28.7001953125 m 2
 476.700195312 -57 l 2
 467.299804688 -66.400390625 452.099609375 -66.400390625 442.799804688 -57 c 2
 343 42.7001953125 l 2
 338.5 47.2001953125 336 53.2998046875 336 59.7001953125 c 2
 336 76 l 1
 300.700195312 48.400390625 256.299804688 32 208 32 c 0
 93.099609375 32 0 125.099609375 0 240 c 0
 0 354.900390625 93.099609375 448 208 448 c 0
 322.900390625 448 416 354.900390625 416 240 c 0
 416 191.700195312 399.599609375 147.299804688 372 112 c 1
 388.299804688 112 l 2
 394.700195312 112 400.799804688 109.5 405.299804688 105 c 2
 505 5.2998046875 l 2
 514.299804688 -4.099609375 514.299804688 -19.2998046875 505 -28.7001953125 c 2
344 240 m 0
 344 315.200195312 283.200195312 376 208 376 c 0
 132.799804688 376 72 315.200195312 72 240 c 0
 72 164.799804688 132.799804688 104 208 104 c 0
 283.200195312 104 344 164.799804688 344 240 c 0
EndSplineSet
Validated: 524833
Ligature2: "'liga' Standard Ligatures in Latin lookup 0 per glyph data 33" s e a r c h hyphen m i n u s
Ligature2: "'liga' Standard Ligatures in Latin lookup 0 per glyph data 33" S e a r c h hyphen M i n u s
Ligature2: "'liga' Standard Ligatures in Latin lookup 0 per glyph data 33" S e a r c h hyphen m i n u s
Ligature2: "'liga' Standard Ligatures in Latin lookup 0 per glyph data 33" S E A R C H hyphen M I N U S
EndChar

StartChar: power-off
Encoding: 61457 61457 80
Width: 512
GlyphClass: 3
Flags: W
LayerCount: 2
Fore
SplineSet
400 393.900390625 m 0
 463 348.900390625 504 275.299804688 504 192 c 0
 504 55.2001953125 393.200195312 -55.7001953125 256.5 -56 c 0
 120 -56.2998046875 8.2001953125 55 8 191.599609375 c 0
 7.900390625 274.900390625 48.900390625 348.700195312 111.799804688 393.799804688 c 0
 123.5 402.099609375 139.799804688 398.599609375 146.799804688 386.099609375 c 2
 162.599609375 358 l 2
 168.5 347.5 165.700195312 334.200195312 156 327 c 0
 114.5 296.200195312 88 247.400390625 88 192.099609375 c 0
 87.900390625 99.7998046875 162.5 24 256 24 c 0
 347.599609375 24 424.599609375 98.2001953125 424 193.099609375 c 0
 423.700195312 244.900390625 399.299804688 294.900390625 355.900390625 327.099609375 c 0
 346.200195312 334.299804688 343.5 347.599609375 349.400390625 358 c 2
 365.200195312 386.099609375 l 2
 372.200195312 398.5 388.400390625 402.200195312 400 393.900390625 c 0
296 184 m 2
 296 170.700195312 285.299804688 160 272 160 c 2
 240 160 l 2
 226.700195312 160 216 170.700195312 216 184 c 2
 216 424 l 2
 216 437.299804688 226.700195312 448 240 448 c 2
 272 448 l 2
 285.299804688 448 296 437.299804688 296 424 c 2
 296 184 l 2
EndSplineSet
Validated: 524833
Ligature2: "'liga' Standard Ligatures in Latin lookup 0 per glyph data 41" p o w e r hyphen o f f
Ligature2: "'liga' Standard Ligatures in Latin lookup 0 per glyph data 41" P o w e r hyphen O f f
Ligature2: "'liga' Standard Ligatures in Latin lookup 0 per glyph data 41" P o w e r hyphen o f f
Ligature2: "'liga' Standard Ligatures in Latin lookup 0 per glyph data 41" P O W E R hyphen O F F
EndChar

StartChar: signal
Encoding: 61458 61458 81
Width: 640
GlyphClass: 3
Flags: W
LayerCount: 2
Fore
SplineSet
216 160 m 2
 224.83984375 160 232 152.83984375 232 144 c 2
 232 -48 l 2
 232 -56.83984375 224.83984375 -64 216 -64 c 2
 168 -64 l 2
 159.16015625 -64 152 -56.83984375 152 -48 c 2
 152 144 l 2
 152 152.83984375 159.16015625 160 168 160 c 2
 216 160 l 2
88 64 m 2
 96.83984375 64 104 56.83984375 104 48 c 2
 104 -48 l 2
 104 -56.83984375 96.83984375 -64 88 -64 c 2
 40 -64 l 2
 31.16015625 -64 24 -56.83984375 24 -48 c 2
 24 48 l 2
 24 56.83984375 31.16015625 64 40 64 c 2
 88 64 l 2
344 256 m 2
 352.83984375 256 360 248.83984375 360 240 c 2
 360 -48 l 2
 360 -56.83984375 352.83984375 -64 344 -64 c 2
 296 -64 l 2
 287.16015625 -64 280 -56.83984375 280 -48 c 2
 280 240 l 2
 280 248.83984375 287.16015625 256 296 256 c 2
 344 256 l 2
472 352 m 2
 480.83984375 352 488 344.83984375 488 336 c 2
 488 -48 l 2
 488 -56.83984375 480.83984375 -64 472 -64 c 2
 424 -64 l 2
 415.16015625 -64 408 -56.83984375 408 -48 c 2
 408 336 l 2
 408 344.83984375 415.16015625 352 424 352 c 2
 472 352 l 2
600 448 m 2
 608.83984375 448 616 440.83984375 616 432 c 2
 616 -48 l 2
 616 -56.83984375 608.83984375 -64 600 -64 c 2
 552 -64 l 2
 543.16015625 -64 536 -56.83984375 536 -48 c 2
 536 432 l 2
 536 440.83984375 543.16015625 448 552 448 c 2
 600 448 l 2
EndSplineSet
Validated: 524289
Ligature2: "'liga' Standard Ligatures in Latin lookup 0 per glyph data 50" s i g n a l
Ligature2: "'liga' Standard Ligatures in Latin lookup 0 per glyph data 50" S i g n a l
Ligature2: "'liga' Standard Ligatures in Latin lookup 0 per glyph data 50" S I G N A L
EndChar

StartChar: cog
Encoding: 61459 61459 82
Width: 512
GlyphClass: 3
Flags: W
LayerCount: 2
Fore
SplineSet
487.400390625 132.299804688 m 2
 492.299804688 129.5 494.5 123.700195312 493 118.200195312 c 0
 481.900390625 82.5 463 50.2998046875 438.299804688 23.599609375 c 0
 434.5 19.400390625 428.400390625 18.5 423.5 21.2998046875 c 2
 380.900390625 45.900390625 l 1
 362.900390625 30.599609375 342.299804688 18.7001953125 320.099609375 10.7998046875 c 1
 320.099609375 -38.400390625 l 2
 320.099609375 -44 316.200195312 -48.900390625 310.700195312 -50.099609375 c 0
 275.799804688 -57.900390625 238.200195312 -58.2998046875 201.5 -50.099609375 c 0
 196 -48.900390625 192.099609375 -44 192.099609375 -38.400390625 c 2
 192.099609375 10.7998046875 l 1
 169.799804688 18.599609375 149.200195312 30.5 131.299804688 45.900390625 c 1
 88.7001953125 21.2998046875 l 2
 83.900390625 18.5 77.7001953125 19.5 73.900390625 23.599609375 c 0
 49.2001953125 50.400390625 30.2998046875 82.599609375 19.2001953125 118.200195312 c 0
 17.599609375 123.599609375 19.7998046875 129.400390625 24.7001953125 132.200195312 c 2
 67.2998046875 156.799804688 l 1
 63 180 63 203.799804688 67.2998046875 227 c 1
 24.7001953125 251.599609375 l 2
 19.7998046875 254.400390625 17.5 260.200195312 19.2001953125 265.599609375 c 0
 30.2998046875 301.299804688 49.2001953125 333.5 73.900390625 360.200195312 c 0
 77.7001953125 364.400390625 83.7998046875 365.299804688 88.7001953125 362.5 c 2
 131.200195312 337.900390625 l 1
 149.200195312 353.200195312 169.799804688 365.099609375 192 373 c 1
 192 422.200195312 l 2
 192 427.799804688 195.900390625 432.700195312 201.400390625 433.900390625 c 0
 236.299804688 441.700195312 273.900390625 442.099609375 310.599609375 433.900390625 c 0
 316.099609375 432.700195312 320 427.799804688 320 422.200195312 c 2
 320 373.099609375 l 1
 342.299804688 365.299804688 362.900390625 353.400390625 380.799804688 338 c 1
 423.400390625 362.599609375 l 2
 428.200195312 365.400390625 434.400390625 364.400390625 438.200195312 360.299804688 c 0
 462.900390625 333.5 481.799804688 301.299804688 492.900390625 265.700195312 c 0
 494.5 260.299804688 492.299804688 254.5 487.400390625 251.700195312 c 2
 444.799804688 227.099609375 l 1
 449.099609375 203.900390625 449.099609375 180.099609375 444.799804688 156.900390625 c 1
 487.400390625 132.299804688 l 2
256 112 m 0
 300.099609375 112 336 147.900390625 336 192 c 0
 336 236.099609375 300.099609375 272 256 272 c 0
 211.900390625 272 176 236.099609375 176 192 c 0
 176 147.900390625 211.900390625 112 256 112 c 0
EndSplineSet
Validated: 524321
Ligature2: "'liga' Standard Ligatures in Latin lookup 0 per glyph data 59" c o g
Ligature2: "'liga' Standard Ligatures in Latin lookup 0 per glyph data 59" C o g
Ligature2: "'liga' Standard Ligatures in Latin lookup 0 per glyph data 59" C O G
EndChar

StartChar: home
Encoding: 61461 61461 83
Width: 576
GlyphClass: 3
Flags: W
LayerCount: 2
Fore
SplineSet
280.370117188 299.740234375 m 2
 282.21875 301.23046875 285.645507812 302.439453125 288.01953125 302.439453125 c 0
 290.39453125 302.439453125 293.821289062 301.23046875 295.669921875 299.740234375 c 2
 480 148 l 1
 480 -16 l 2
 480 -24.83203125 472.83203125 -32 464 -32 c 2
 351.98046875 -31.6904296875 l 1
 351.979492188 -31.6904296875 l 2
 343.147460938 -31.6904296875 335.979492188 -24.5224609375 335.979492188 -15.6904296875 c 0
 335.979492188 -15.67578125 335.979492188 -15.6533203125 335.98046875 -15.6396484375 c 2
 335.98046875 80 l 2
 335.98046875 88.83203125 328.811523438 96 319.98046875 96 c 2
 255.98046875 96 l 2
 247.1484375 96 239.98046875 88.83203125 239.98046875 80 c 2
 239.98046875 -15.7099609375 l 1
 239.98046875 -15.7099609375 l 1
 239.98046875 -24.498046875 232.84765625 -31.666015625 224.059570312 -31.7099609375 c 2
 112 -32 l 2
 103.16796875 -32 96 -24.83203125 96 -16 c 2
 96 147.889648438 l 1
 280.370117188 299.740234375 l 2
571.599609375 196.530273438 m 2
 574.044921875 194.541992188 576.029296875 190.37109375 576.029296875 187.219726562 c 0
 576.029296875 184.846679688 574.806640625 181.43359375 573.299804688 179.599609375 c 2
 547.799804688 148.599609375 l 2
 545.813476562 146.196289062 541.668945312 144.245117188 538.55078125 144.245117188 c 0
 536.165039062 144.245117188 532.737304688 145.479492188 530.900390625 147 c 2
 295.669921875 340.740234375 l 2
 293.821289062 342.23046875 290.39453125 343.439453125 288.01953125 343.439453125 c 0
 285.645507812 343.439453125 282.21875 342.23046875 280.370117188 340.740234375 c 2
 45.150390625 147 l 2
 43.3134765625 145.483398438 39.8896484375 144.251953125 37.5078125 144.251953125 c 0
 34.3798828125 144.251953125 30.2275390625 146.213867188 28.240234375 148.629882812 c 2
 2.740234375 179.629882812 l 2
 1.2197265625 181.467773438 -0.0146484375 184.895507812 -0.0146484375 187.280273438 c 0
 -0.0146484375 190.399414062 1.9365234375 194.54296875 4.33984375 196.530273438 c 2
 257.469726562 405 l 2
 264.805664062 411.036132812 278.469726562 415.935546875 287.969726562 415.935546875 c 0
 297.470703125 415.935546875 311.133789062 411.036132812 318.469726562 405 c 2
 408 331.33984375 l 1
 408 403.950195312 l 2
 408 410.57421875 413.375976562 415.950195312 420 415.950195312 c 2
 476 415.950195312 l 2
 482.624023438 415.950195312 488 410.57421875 488 403.950195312 c 2
 488 265.440429688 l 1
 571.599609375 196.530273438 l 2
EndSplineSet
Validated: 524293
Ligature2: "'liga' Standard Ligatures in Latin lookup 0 per glyph data 56" h o m e
Ligature2: "'liga' Standard Ligatures in Latin lookup 0 per glyph data 56" H o m e
Ligature2: "'liga' Standard Ligatures in Latin lookup 0 per glyph data 56" H O M E
EndChar

StartChar: clock
Encoding: 61463 61463 84
Width: 512
GlyphClass: 3
Flags: W
LayerCount: 2
Fore
SplineSet
256 440 m 0
 393 440 504 329 504 192 c 0
 504 55 393 -56 256 -56 c 0
 119 -56 8 55 8 192 c 0
 8 329 119 440 256 440 c 0
313.099609375 89.900390625 m 2
 318.5 86 326 87.2001953125 329.900390625 92.5 c 2
 358.099609375 131.299804688 l 2
 362 136.700195312 360.900390625 144.200195312 355.5 148.099609375 c 2
 292 194.299804688 l 1
 292 332 l 2
 292 338.599609375 286.599609375 344 280 344 c 2
 232 344 l 2
 225.400390625 344 220 338.599609375 220 332 c 2
 220 163.700195312 l 2
 220 159.900390625 221.799804688 156.299804688 224.900390625 154 c 2
 313.099609375 89.900390625 l 2
EndSplineSet
Validated: 524321
Ligature2: "'liga' Standard Ligatures in Latin lookup 0 per glyph data 53" c l o c k
Ligature2: "'liga' Standard Ligatures in Latin lookup 0 per glyph data 53" C l o c k
Ligature2: "'liga' Standard Ligatures in Latin lookup 0 per glyph data 53" C L O C K
EndChar

StartChar: road
Encoding: 61464 61464 85
Width: 576
GlyphClass: 3
Flags: W
LayerCount: 2
Fore
SplineSet
573.190429688 45.330078125 m 2
 582.450195312 24.1396484375 567.690429688 0 545.459960938 0 c 2
 348.620117188 0 l 1
 338.309570312 97.6796875 l 2
 337.450195312 105.8203125 330.58984375 112 322.400390625 112 c 2
 253.599609375 112 l 2
 245.41015625 112 238.549804688 105.8203125 237.690429688 97.6796875 c 2
 227.379882812 0 l 1
 30.5400390625 0 l 2
 8.3095703125 0 -6.4501953125 24.1396484375 2.7998046875 45.330078125 c 2
 142.58984375 365.330078125 l 2
 147.559570312 376.709960938 158.389648438 384 170.3203125 384 c 2
 267.91015625 384 l 1
 265.459960938 360.83984375 l 2
 264.959960938 356.120117188 268.669921875 352 273.419921875 352 c 2
 302.580078125 352 l 2
 307.330078125 352 311.040039062 356.120117188 310.540039062 360.83984375 c 2
 308.08984375 384 l 1
 405.6796875 384 l 2
 417.599609375 384 428.4296875 376.709960938 433.400390625 365.330078125 c 2
 573.190429688 45.330078125 l 2
260.400390625 312.83984375 m 2
 255.809570312 269.259765625 l 2
 255.059570312 262.169921875 260.610351562 256 267.740234375 256 c 2
 308.280273438 256 l 2
 315.400390625 256 320.959960938 262.169921875 320.209960938 269.259765625 c 2
 315.610351562 312.83984375 l 2
 315.1796875 316.91015625 311.740234375 320 307.650390625 320 c 2
 268.360351562 320 l 1
 268.35546875 320 l 2
 264.381835938 320 260.817382812 316.791992188 260.400390625 312.83984375 c 2
315.639648438 144 m 2
 325.139648438 144 332.549804688 152.23046875 331.549804688 161.6796875 c 2
 326.48046875 209.6796875 l 2
 325.620117188 217.8203125 318.759765625 224 310.5703125 224 c 2
 265.419921875 224 l 2
 257.23046875 224 250.370117188 217.8203125 249.509765625 209.6796875 c 2
 244.440429688 161.6796875 l 2
 243.440429688 152.23046875 250.849609375 144 260.349609375 144 c 2
 315.639648438 144 l 2
EndSplineSet
Validated: 524321
Ligature2: "'liga' Standard Ligatures in Latin lookup 0 per glyph data 57" r o a d
Ligature2: "'liga' Standard Ligatures in Latin lookup 0 per glyph data 57" R o a d
Ligature2: "'liga' Standard Ligatures in Latin lookup 0 per glyph data 57" R O A D
EndChar

StartChar: download
Encoding: 61465 61465 86
Width: 512
GlyphClass: 3
Flags: W
LayerCount: 2
Fore
SplineSet
216 448 m 2
 296 448 l 2
 309.299804688 448 320 437.299804688 320 424 c 2
 320 256 l 1
 407.700195312 256 l 2
 425.5 256 434.400390625 234.5 421.799804688 221.900390625 c 2
 269.700195312 69.7001953125 l 2
 262.200195312 62.2001953125 249.900390625 62.2001953125 242.400390625 69.7001953125 c 2
 90.099609375 221.900390625 l 2
 77.5 234.5 86.400390625 256 104.200195312 256 c 2
 192 256 l 1
 192 424 l 2
 192 437.299804688 202.700195312 448 216 448 c 2
512 72 m 2
 512 -40 l 2
 512 -53.2998046875 501.299804688 -64 488 -64 c 2
 24 -64 l 2
 10.7001953125 -64 0 -53.2998046875 0 -40 c 2
 0 72 l 2
 0 85.2998046875 10.7001953125 96 24 96 c 2
 170.700195312 96 l 1
 219.700195312 47 l 2
 239.799804688 26.900390625 272.200195312 26.900390625 292.299804688 47 c 2
 341.299804688 96 l 1
 488 96 l 2
 501.299804688 96 512 85.2998046875 512 72 c 2
388 -16 m 0
 388 -5 379 4 368 4 c 0
 357 4 348 -5 348 -16 c 0
 348 -27 357 -36 368 -36 c 0
 379 -36 388 -27 388 -16 c 0
452 -16 m 0
 452 -5 443 4 432 4 c 0
 421 4 412 -5 412 -16 c 0
 412 -27 421 -36 432 -36 c 0
 443 -36 452 -27 452 -16 c 0
EndSplineSet
Validated: 524321
Ligature2: "'liga' Standard Ligatures in Latin lookup 0 per glyph data 45" d o w n l o a d
Ligature2: "'liga' Standard Ligatures in Latin lookup 0 per glyph data 45" D o w n l o a d
Ligature2: "'liga' Standard Ligatures in Latin lookup 0 per glyph data 45" D O W N L O A D
EndChar

StartChar: inbox
Encoding: 61468 61468 87
Width: 576
GlyphClass: 3
Flags: W
LayerCount: 2
Fore
SplineSet
567.938476562 204.091796875 m 2
 572.388671875 197.416992188 576 185.489257812 576 177.467773438 c 2
 576 177.466796875 l 1
 576 48 l 2
 576 21.490234375 554.509765625 0 528 0 c 2
 48 0 l 2
 21.490234375 0 0 21.490234375 0 48 c 2
 0 177.466796875 l 1
 0 177.467773438 l 2
 0 185.489257812 3.611328125 197.416992188 8.0615234375 204.091796875 c 2
 113.750976562 362.625976562 l 2
 121.6171875 374.424804688 139.508789062 384 153.689453125 384 c 2
 422.310546875 384 l 2
 436.491210938 384 454.383789062 374.423828125 462.25 362.625976562 c 2
 567.938476562 204.091796875 l 2
162.251953125 320 m 1
 76.91796875 192 l 1
 200 192 l 1
 232 128 l 1
 344 128 l 1
 376 192 l 1
 499.08203125 192 l 1
 413.749023438 320 l 1
 162.251953125 320 l 1
EndSplineSet
Validated: 524289
Ligature2: "'liga' Standard Ligatures in Latin lookup 0 per glyph data 53" i n b o x
Ligature2: "'liga' Standard Ligatures in Latin lookup 0 per glyph data 53" I n b o x
Ligature2: "'liga' Standard Ligatures in Latin lookup 0 per glyph data 53" I N B O X
EndChar

StartChar: redo
Encoding: 61470 61470 88
Width: 512
GlyphClass: 3
Flags: W
LayerCount: 2
Fore
SplineSet
500.330078125 448 m 2
 506.954101562 448 512.330078125 442.624023438 512.330078125 436 c 2
 512.330078125 235.66015625 l 2
 512.330078125 229.036132812 506.954101562 223.66015625 500.330078125 223.66015625 c 2
 300 223.66015625 l 2
 293.375976562 223.66015625 288 229.036132812 288 235.66015625 c 2
 288 283.0703125 l 1
 288 283.083984375 l 2
 288 289.708007812 293.375976562 295.083984375 300 295.083984375 c 0
 300.157226562 295.083984375 300.413085938 295.077148438 300.5703125 295.0703125 c 2
 402.099609375 290.200195312 l 1
 373.227539062 333.161132812 307.78515625 368.028320312 256.0234375 368.028320312 c 0
 158.872070312 368.028320312 80.0234375 289.1796875 80.0234375 192.028320312 c 0
 80.0234375 94.8759765625 158.872070312 16.0283203125 256.0234375 16.0283203125 c 0
 292.677734375 16.0283203125 344.760742188 35.6787109375 372.280273438 59.8896484375 c 0
 374.15234375 61.5263671875 377.689453125 62.853515625 380.17578125 62.853515625 c 0
 382.918945312 62.853515625 386.719726562 61.279296875 388.66015625 59.33984375 c 2
 422.66015625 25.33984375 l 2
 424.6015625 23.3994140625 426.177734375 19.5966796875 426.177734375 16.8515625 c 0
 426.177734375 13.890625 424.38671875 9.884765625 422.1796875 7.91015625 c 0
 383.208984375 -27.3681640625 308.916015625 -56 256.348632812 -56 c 2
 256 -56 l 2
 119.099609375 -56 8.099609375 54.9296875 8 191.809570312 c 0
 7.900390625 328.469726562 119.33984375 440 256 440 c 2
 256.272460938 440 l 2
 319.497070312 440 404.01171875 400.875976562 444.919921875 352.669921875 c 1
 440.919921875 435.4296875 l 2
 440.912109375 435.586914062 440.90625 435.842773438 440.90625 436 c 0
 440.90625 442.624023438 446.282226562 448 452.90625 448 c 2
 452.919921875 448 l 1
 500.330078125 448 l 2
EndSplineSet
Validated: 524321
Ligature2: "'liga' Standard Ligatures in Latin lookup 0 per glyph data 57" r e d o
Ligature2: "'liga' Standard Ligatures in Latin lookup 0 per glyph data 57" R E D O
Ligature2: "'liga' Standard Ligatures in Latin lookup 0 per glyph data 57" R e d o
EndChar

StartChar: sync
Encoding: 61473 61473 89
Width: 512
GlyphClass: 3
Flags: W
LayerCount: 2
Fore
SplineSet
440.650390625 435.4296875 m 2
 440.642578125 435.586914062 440.63671875 435.842773438 440.63671875 436 c 0
 440.63671875 442.620117188 446.009765625 447.99609375 452.629882812 448 c 2
 500 448 l 2
 506.624023438 448 512 442.624023438 512 436 c 2
 512 235.650390625 l 2
 512 229.026367188 506.624023438 223.650390625 500 223.650390625 c 2
 299.780273438 223.650390625 l 2
 293.15625 223.650390625 287.780273438 229.026367188 287.780273438 235.650390625 c 2
 287.780273438 283.059570312 l 1
 287.780273438 283.073242188 l 2
 287.780273438 289.697265625 293.15625 295.073242188 299.780273438 295.073242188 c 0
 299.9375 295.073242188 300.192382812 295.067382812 300.349609375 295.059570312 c 2
 401.809570312 290.200195312 l 1
 372.951171875 333.125 307.549804688 367.962890625 255.825195312 367.962890625 c 0
 179.341796875 367.962890625 102.7265625 307.616210938 84.8095703125 233.259765625 c 0
 83.6123046875 228.154296875 78.384765625 224.005859375 73.1396484375 224 c 2
 24.08984375 224 l 2
 17.4658203125 224 12.08984375 229.375976562 12.08984375 236 c 0
 12.08984375 236.606445312 12.1796875 237.583007812 12.2900390625 238.1796875 c 0
 33.91015625 353.080078125 134.73046875 440 255.830078125 440 c 2
 256.114257812 440 l 2
 319.317382812 440 403.78125 400.872070312 444.650390625 352.66015625 c 1
 440.650390625 435.4296875 l 2
255.830078125 16 m 2
 332.327148438 16 408.973632812 76.36328125 426.860351562 150.740234375 c 0
 428.057617188 155.845703125 433.28515625 159.994140625 438.530273438 160 c 2
 487.580078125 160 l 2
 494.204101562 160 499.580078125 154.624023438 499.580078125 148 c 0
 499.580078125 147.393554688 499.490234375 146.416992188 499.379882812 145.8203125 c 0
 477.759765625 30.919921875 376.940429688 -56 255.830078125 -56 c 2
 255.595703125 -56 l 2
 192.466796875 -56 108.065429688 -16.9482421875 67.2001953125 31.169921875 c 1
 71.349609375 -51.400390625 l 2
 71.3583984375 -51.5654296875 71.365234375 -51.833984375 71.365234375 -52 c 0
 71.365234375 -58.6240234375 65.9892578125 -64 59.365234375 -64 c 2
 59.349609375 -64 l 1
 12 -64 l 2
 5.3759765625 -64 0 -58.6240234375 0 -52 c 2
 0 148.330078125 l 2
 0 154.954101562 5.3759765625 160.330078125 12 160.330078125 c 2
 212.200195312 160.330078125 l 2
 218.82421875 160.330078125 224.200195312 154.954101562 224.200195312 148.330078125 c 2
 224.200195312 100.9296875 l 1
 224.200195312 100.916015625 l 2
 224.200195312 94.2919921875 218.82421875 88.916015625 212.200195312 88.916015625 c 0
 212.04296875 88.916015625 211.787109375 88.9228515625 211.629882812 88.9296875 c 2
 109.830078125 93.7998046875 l 1
 138.629882812 50.8544921875 203.970703125 16 255.6796875 16 c 2
 255.830078125 16 l 2
EndSplineSet
Validated: 524289
Ligature2: "'liga' Standard Ligatures in Latin lookup 0 per glyph data 57" s y n c
Ligature2: "'liga' Standard Ligatures in Latin lookup 0 per glyph data 57" S y n c
Ligature2: "'liga' Standard Ligatures in Latin lookup 0 per glyph data 57" S Y N C
EndChar

StartChar: list-alt
Encoding: 61474 61474 90
Width: 512
GlyphClass: 3
Flags: W
LayerCount: 2
Fore
SplineSet
464 -32 m 2
 48 -32 l 2
 21.490234375 -32 0 -10.509765625 0 16 c 2
 0 368 l 2
 0 394.509765625 21.490234375 416 48 416 c 2
 464 416 l 2
 490.509765625 416 512 394.509765625 512 368 c 2
 512 16 l 2
 512 -10.509765625 490.509765625 -32 464 -32 c 2
128 328 m 0
 105.909179688 328 88 310.090820312 88 288 c 0
 88 265.909179688 105.909179688 248 128 248 c 0
 150.090820312 248 168 265.909179688 168 288 c 0
 168 310.090820312 150.090820312 328 128 328 c 0
128 232 m 0
 105.909179688 232 88 214.090820312 88 192 c 0
 88 169.909179688 105.909179688 152 128 152 c 0
 150.090820312 152 168 169.909179688 168 192 c 0
 168 214.090820312 150.090820312 232 128 232 c 0
128 136 m 0
 105.909179688 136 88 118.090820312 88 96 c 0
 88 73.9091796875 105.909179688 56 128 56 c 0
 150.090820312 56 168 73.9091796875 168 96 c 0
 168 118.090820312 150.090820312 136 128 136 c 0
416 272 m 2
 416 304 l 2
 416 310.626953125 410.626953125 316 404 316 c 2
 204 316 l 2
 197.373046875 316 192 310.626953125 192 304 c 2
 192 272 l 2
 192 265.373046875 197.373046875 260 204 260 c 2
 404 260 l 2
 410.626953125 260 416 265.373046875 416 272 c 2
416 176 m 2
 416 208 l 2
 416 214.626953125 410.626953125 220 404 220 c 2
 204 220 l 2
 197.373046875 220 192 214.626953125 192 208 c 2
 192 176 l 2
 192 169.373046875 197.373046875 164 204 164 c 2
 404 164 l 2
 410.626953125 164 416 169.373046875 416 176 c 2
416 80 m 2
 416 112 l 2
 416 118.626953125 410.626953125 124 404 124 c 2
 204 124 l 2
 197.373046875 124 192 118.626953125 192 112 c 2
 192 80 l 2
 192 73.373046875 197.373046875 68 204 68 c 2
 404 68 l 2
 410.626953125 68 416 73.373046875 416 80 c 2
EndSplineSet
Validated: 524801
Ligature2: "'liga' Standard Ligatures in Latin lookup 0 per glyph data 44" l i s t hyphen a l t
Ligature2: "'liga' Standard Ligatures in Latin lookup 0 per glyph data 44" L i s t hyphen A l t
Ligature2: "'liga' Standard Ligatures in Latin lookup 0 per glyph data 44" L i s t hyphen a l t
Ligature2: "'liga' Standard Ligatures in Latin lookup 0 per glyph data 44" L I S T hyphen A L T
EndChar

StartChar: lock
Encoding: 61475 61475 91
Width: 448
GlyphClass: 3
Flags: W
LayerCount: 2
Fore
SplineSet
400 224 m 2
 426.5 224 448 202.5 448 176 c 2
 448 -16 l 2
 448 -42.5 426.5 -64 400 -64 c 2
 48 -64 l 2
 21.5 -64 0 -42.5 0 -16 c 2
 0 176 l 2
 0 202.5 21.5 224 48 224 c 2
 72 224 l 1
 72 296 l 2
 72 379.799804688 140.200195312 448 224 448 c 0
 307.799804688 448 376 379.799804688 376 296 c 2
 376 224 l 1
 400 224 l 2
296 224 m 1
 296 296 l 2
 296 335.700195312 263.700195312 368 224 368 c 0
 184.299804688 368 152 335.700195312 152 296 c 2
 152 224 l 1
 296 224 l 1
EndSplineSet
Validated: 524289
Ligature2: "'liga' Standard Ligatures in Latin lookup 0 per glyph data 57" l o c k
Ligature2: "'liga' Standard Ligatures in Latin lookup 0 per glyph data 57" L o c k
Ligature2: "'liga' Standard Ligatures in Latin lookup 0 per glyph data 57" L O C K
EndChar

StartChar: flag
Encoding: 61476 61476 92
Width: 512
GlyphClass: 3
Flags: W
LayerCount: 2
Fore
SplineSet
349.565429688 349.216796875 m 0
 390.060546875 349.216796875 432.176757812 365.123046875 466.514648438 381.071289062 c 0
 487.731445312 390.924804688 512 375.448242188 512 352.0546875 c 2
 512 108.955078125 l 2
 512 98.4287109375 506.83984375 88.5478515625 498.157226562 82.5966796875 c 0
 462.319335938 58.033203125 423.821289062 41.7392578125 375.65234375 41.7392578125 c 0
 308.279296875 41.7392578125 264.0234375 76.5224609375 210.434570312 76.5224609375 c 0
 159.58203125 76.5224609375 124.310546875 66.4638671875 96 54.400390625 c 1
 96 -40 l 2
 96 -53.2548828125 85.2548828125 -64 72 -64 c 2
 56 -64 l 2
 42.7451171875 -64 32 -53.2548828125 32 -40 c 2
 32 346.0546875 l 1
 17.4970703125 356.174804688 8 372.973632812 8 392 c 0
 8 423.704101562 34.3447265625 449.25390625 66.337890625 447.952148438 c 0
 94.8056640625 446.793945312 118.1171875 423.985351562 119.888671875 395.548828125 c 0
 119.951171875 394.568359375 120.001953125 392.975585938 120.001953125 391.993164062 c 0
 120.001953125 386.282226562 118.344726562 377.319335938 116.302734375 371.987304688 c 1
 137.0390625 379.616210938 159.392578125 384 184.34765625 384 c 0
 251.720703125 384 295.977539062 349.216796875 349.565429688 349.216796875 c 0
EndSplineSet
Validated: 524321
Ligature2: "'liga' Standard Ligatures in Latin lookup 0 per glyph data 57" f l a g
Ligature2: "'liga' Standard Ligatures in Latin lookup 0 per glyph data 57" F l a g
Ligature2: "'liga' Standard Ligatures in Latin lookup 0 per glyph data 57" F L A G
EndChar

StartChar: headphones
Encoding: 61477 61477 93
Width: 512
GlyphClass: 3
Flags: W
LayerCount: 2
Fore
SplineSet
256 416 m 0
 397.50390625 416 512 301.478515625 512 160 c 2
 512 112 l 2
 512 101.083007812 504.075195312 88.259765625 494.309570312 83.3779296875 c 2
 479.927734375 76.1865234375 l 1
 477.916992188 16.09765625 428.579101562 -32 368 -32 c 2
 344 -32 l 2
 330.745117188 -32 320 -21.2548828125 320 -8 c 2
 320 168 l 2
 320 181.254882812 330.745117188 192 344 192 c 2
 368 192 l 2
 399.341796875 192 427.670898438 179.12109375 448 158.373046875 c 1
 448 160 l 2
 448 265.869140625 361.869140625 352 256 352 c 0
 150.130859375 352 64 265.869140625 64 160 c 2
 64 158.373046875 l 1
 84.3291015625 179.12109375 112.658203125 192 144 192 c 2
 168 192 l 2
 181.254882812 192 192 181.254882812 192 168 c 2
 192 -8 l 2
 192 -21.2548828125 181.254882812 -32 168 -32 c 2
 144 -32 l 2
 83.4208984375 -32 34.0830078125 16.0966796875 32.072265625 76.1865234375 c 1
 17.689453125 83.3779296875 l 2
 7.9248046875 88.259765625 0 101.083007812 0 112 c 1
 0 112 l 1
 0 160 l 2
 0 301.50390625 114.51953125 416 256 416 c 0
EndSplineSet
Validated: 524293
Ligature2: "'liga' Standard Ligatures in Latin lookup 0 per glyph data 39" h e a d p h o n e s
Ligature2: "'liga' Standard Ligatures in Latin lookup 0 per glyph data 39" H e a d p h o n e s
Ligature2: "'liga' Standard Ligatures in Latin lookup 0 per glyph data 39" H E A D P H O N E S
EndChar

StartChar: volume-off
Encoding: 61478 61478 94
Width: 256
GlyphClass: 3
Flags: W
LayerCount: 2
Fore
SplineSet
215 377 m 2
 230 392 256 381.469726562 256 360 c 2
 256 24 l 2
 256 2.5302734375 230 -8 215 7 c 2
 126.059570312 96 l 1
 24 96 l 2
 10.751953125 96 0 106.751953125 0 120 c 2
 0 264 l 2
 0 277.248046875 10.751953125 288 24 288 c 2
 126 288 l 1
 215 377 l 2
EndSplineSet
Validated: 524833
Ligature2: "'liga' Standard Ligatures in Latin lookup 0 per glyph data 39" v o l u m e hyphen o f f
Ligature2: "'liga' Standard Ligatures in Latin lookup 0 per glyph data 39" V o l u m e hyphen O f f
Ligature2: "'liga' Standard Ligatures in Latin lookup 0 per glyph data 39" V o l u m e hyphen o f f
Ligature2: "'liga' Standard Ligatures in Latin lookup 0 per glyph data 39" V O L U M E hyphen O F F
EndChar

StartChar: volume-down
Encoding: 61479 61479 95
Width: 384
GlyphClass: 3
Flags: W
LayerCount: 2
Fore
SplineSet
215.030273438 375.959960938 m 2
 230.040039062 390.959960938 256 380.450195312 256 358.98046875 c 2
 256 23.01953125 l 2
 256 1.580078125 230.059570312 -8.98046875 215.030273438 6.0498046875 c 2
 126.059570312 95 l 1
 24 95 l 2
 10.740234375 95 0 105.75 0 119 c 2
 0 263 l 2
 0 276.259765625 10.740234375 287 24 287 c 2
 126.059570312 287 l 1
 215.030273438 375.959960938 l 2
338.23046875 267.879882812 m 0
 366.469726562 252.330078125 384.009765625 222.889648438 384.009765625 191.009765625 c 0
 384.009765625 159.129882812 366.469726562 129.6796875 338.240234375 114.129882812 c 0
 326.6796875 107.780273438 312.059570312 111.919921875 305.629882812 123.580078125 c 0
 299.240234375 135.190429688 303.469726562 149.780273438 315.080078125 156.190429688 c 0
 327.98046875 163.280273438 336 176.620117188 336 191 c 0
 336 205.379882812 327.98046875 218.719726562 315.0703125 225.8203125 c 0
 303.459960938 232.23046875 299.23046875 246.8203125 305.620117188 258.4296875 c 0
 312.040039062 270.040039062 326.650390625 274.209960938 338.23046875 267.879882812 c 0
EndSplineSet
Validated: 524833
Ligature2: "'liga' Standard Ligatures in Latin lookup 0 per glyph data 37" v o l u m e hyphen d o w n
Ligature2: "'liga' Standard Ligatures in Latin lookup 0 per glyph data 37" V o l u m e hyphen D o w n
Ligature2: "'liga' Standard Ligatures in Latin lookup 0 per glyph data 37" V o l u m e hyphen d o w n
Ligature2: "'liga' Standard Ligatures in Latin lookup 0 per glyph data 37" V O L U M E hyphen D O W N
EndChar

StartChar: volume-up
Encoding: 61480 61480 96
Width: 576
GlyphClass: 3
Flags: W
LayerCount: 2
Fore
SplineSet
215.030273438 376.950195312 m 2
 230.040039062 391.959960938 256 381.440429688 256 359.98046875 c 2
 256 24.01953125 l 2
 256 2.580078125 230.059570312 -7.98046875 215.030273438 7.0498046875 c 2
 126.059570312 96 l 1
 24 96 l 2
 10.740234375 96 0 106.75 0 120 c 2
 0 264 l 2
 0 277.259765625 10.740234375 288 24 288 c 2
 126.059570312 288 l 1
 215.030273438 376.950195312 l 2
448.349609375 428.030273438 m 0
 528.26953125 375.5703125 576 287.330078125 576 192 c 0
 576 96.669921875 528.26953125 8.419921875 448.349609375 -44.0400390625 c 0
 436.76953125 -51.650390625 421.879882812 -47.7998046875 414.83984375 -37.08984375 c 0
 407.5 -25.9296875 410.620117188 -10.91015625 421.790039062 -3.58984375 c 0
 488.059570312 39.900390625 527.610351562 113.009765625 527.610351562 191.990234375 c 0
 527.610351562 270.969726562 488.059570312 344.080078125 421.790039062 387.5703125 c 0
 410.620117188 394.900390625 407.5 409.91015625 414.83984375 421.080078125 c 0
 422.169921875 432.26953125 437.1796875 435.360351562 448.349609375 428.030273438 c 0
480 192 m 0
 480 128.459960938 447.940429688 70.0595703125 394.23046875 35.759765625 c 0
 382.23046875 28.080078125 367.620117188 32.8603515625 361.110351562 43.2197265625 c 0
 354.01953125 54.509765625 357.330078125 69.4404296875 368.51953125 76.580078125 c 0
 408.26953125 101.969726562 432 145.110351562 432 192 c 0
 432 238.889648438 408.26953125 282.030273438 368.51953125 307.419921875 c 0
 357.330078125 314.5703125 354.01953125 329.5 361.110351562 340.780273438 c 0
 368.200195312 352.059570312 383.040039062 355.379882812 394.23046875 348.240234375 c 0
 447.940429688 313.940429688 480 255.530273438 480 192 c 0
338.23046875 268.870117188 m 0
 366.469726562 253.330078125 384.009765625 223.889648438 384.009765625 192.009765625 c 0
 384.009765625 160.129882812 366.469726562 130.6796875 338.240234375 115.129882812 c 0
 326.6796875 108.780273438 312.059570312 112.919921875 305.629882812 124.580078125 c 0
 299.240234375 136.190429688 303.469726562 150.780273438 315.080078125 157.190429688 c 0
 327.98046875 164.280273438 336 177.620117188 336 192 c 0
 336 206.370117188 327.98046875 219.719726562 315.0703125 226.809570312 c 0
 303.459960938 233.219726562 299.23046875 247.809570312 305.620117188 259.419921875 c 0
 312.040039062 271.030273438 326.650390625 275.200195312 338.23046875 268.870117188 c 0
EndSplineSet
Validated: 524833
Ligature2: "'liga' Standard Ligatures in Latin lookup 0 per glyph data 43" v o l u m e hyphen u p
Ligature2: "'liga' Standard Ligatures in Latin lookup 0 per glyph data 43" V O L U M E hyphen U P
Ligature2: "'liga' Standard Ligatures in Latin lookup 0 per glyph data 43" V o l u m e hyphen U p
Ligature2: "'liga' Standard Ligatures in Latin lookup 0 per glyph data 43" V o l u m e hyphen u p
EndChar

StartChar: qrcode
Encoding: 61481 61481 97
Width: 448
GlyphClass: 3
Flags: W
LayerCount: 2
Fore
SplineSet
0 224 m 1
 0 416 l 1
 192 416 l 1
 192 224 l 1
 0 224 l 1
64 352 m 1
 64 288 l 1
 128 288 l 1
 128 352 l 1
 64 352 l 1
256 416 m 1
 448 416 l 1
 448 224 l 1
 256 224 l 1
 256 416 l 1
384 288 m 1
 384 352 l 1
 320 352 l 1
 320 288 l 1
 384 288 l 1
0 -32 m 1
 0 160 l 1
 192 160 l 1
 192 -32 l 1
 0 -32 l 1
64 96 m 1
 64 32 l 1
 128 32 l 1
 128 96 l 1
 64 96 l 1
416 160 m 1
 448 160 l 1
 448 32 l 1
 352 32 l 1
 352 64 l 1
 320 64 l 1
 320 -32 l 1
 256 -32 l 1
 256 160 l 1
 352 160 l 1
 352 128 l 1
 416 128 l 1
 416 160 l 1
416 0 m 1
 448 0 l 1
 448 -32 l 1
 416 -32 l 1
 416 0 l 1
352 0 m 1
 384 0 l 1
 384 -32 l 1
 352 -32 l 1
 352 0 l 1
EndSplineSet
Validated: 1
Ligature2: "'liga' Standard Ligatures in Latin lookup 0 per glyph data 52" q r c o d e
Ligature2: "'liga' Standard Ligatures in Latin lookup 0 per glyph data 52" Q R C O D E
Ligature2: "'liga' Standard Ligatures in Latin lookup 0 per glyph data 52" Q r c o d e
EndChar

StartChar: barcode
Encoding: 61482 61482 98
Width: 512
GlyphClass: 3
Flags: W
LayerCount: 2
Fore
SplineSet
0 0 m 1
 0 384 l 1
 18 384 l 1
 18 0 l 1
 0 0 l 1
26.857421875 0.2734375 m 1
 26.857421875 384 l 1
 36 384 l 1
 36 0.2734375 l 1
 26.857421875 0.2734375 l 1
54 0.2734375 m 1
 54 384 l 1
 62.857421875 384 l 1
 62.857421875 0.2734375 l 1
 54 0.2734375 l 1
98.857421875 0.2734375 m 1
 98.857421875 384 l 1
 107.713867188 384 l 1
 107.713867188 0.2734375 l 1
 98.857421875 0.2734375 l 1
134.857421875 0.2734375 m 1
 134.857421875 384 l 1
 152.571289062 384 l 1
 152.571289062 0.2734375 l 1
 134.857421875 0.2734375 l 1
179.713867188 0.2734375 m 1
 179.713867188 384 l 1
 188.571289062 384 l 1
 188.571289062 0.2734375 l 1
 179.713867188 0.2734375 l 1
197.713867188 0.2734375 m 1
 197.713867188 384 l 1
 206.571289062 384 l 1
 206.571289062 0.2734375 l 1
 197.713867188 0.2734375 l 1
215.713867188 0.2734375 m 1
 215.713867188 384 l 1
 224.571289062 384 l 1
 224.571289062 0.2734375 l 1
 215.713867188 0.2734375 l 1
251.428710938 0.2734375 m 1
 251.428710938 384 l 1
 269.428710938 384 l 1
 269.428710938 0.2734375 l 1
 251.428710938 0.2734375 l 1
296.286132812 0.2734375 m 1
 296.286132812 384 l 1
 314.286132812 384 l 1
 314.286132812 0.2734375 l 1
 296.286132812 0.2734375 l 1
332.28515625 0.2734375 m 1
 332.28515625 384 l 1
 350.286132812 384 l 1
 350.286132812 0.2734375 l 1
 332.28515625 0.2734375 l 1
368.286132812 0.2734375 m 1
 368.286132812 384 l 1
 386.287109375 384 l 1
 386.287109375 0.2734375 l 1
 368.286132812 0.2734375 l 1
395.142578125 0.2734375 m 1
 395.142578125 384 l 1
 413.142578125 384 l 1
 413.142578125 0.2734375 l 1
 395.142578125 0.2734375 l 1
440.286132812 0.2734375 m 1
 440.286132812 384 l 1
 467.142578125 384 l 1
 467.142578125 0.2734375 l 1
 440.286132812 0.2734375 l 1
476 0.2734375 m 1
 476 384 l 1
 485.142578125 384 l 1
 485.142578125 0.2734375 l 1
 476 0.2734375 l 1
494 0 m 1
 494 384 l 1
 512 384 l 1
 512 0 l 1
 494 0 l 1
EndSplineSet
Validated: 524289
Ligature2: "'liga' Standard Ligatures in Latin lookup 0 per glyph data 49" b a r c o d e
Ligature2: "'liga' Standard Ligatures in Latin lookup 0 per glyph data 49" B A R C O D E
Ligature2: "'liga' Standard Ligatures in Latin lookup 0 per glyph data 49" B a r c o d e
EndChar

StartChar: tag
Encoding: 61483 61483 99
Width: 512
GlyphClass: 3
Flags: W
LayerCount: 2
Fore
SplineSet
0 195.881835938 m 2
 0 400 l 2
 0 426.509765625 21.490234375 448 48 448 c 2
 252.118164062 448 l 2
 263.092773438 448 278.298828125 441.701171875 286.05859375 433.94140625 c 2
 497.94140625 222.05859375 l 2
 516.685546875 203.314453125 516.685546875 172.921875 497.94140625 154.176757812 c 2
 293.823242188 -49.94140625 l 2
 275.078125 -68.685546875 244.685546875 -68.685546875 225.94140625 -49.94140625 c 2
 14.05859375 161.94140625 l 2
 6.298828125 169.701171875 0 184.907226562 0 195.881835938 c 2
112 384 m 0
 85.490234375 384 64 362.509765625 64 336 c 0
 64 309.490234375 85.490234375 288 112 288 c 0
 138.509765625 288 160 309.490234375 160 336 c 0
 160 362.509765625 138.509765625 384 112 384 c 0
EndSplineSet
Validated: 524321
Ligature2: "'liga' Standard Ligatures in Latin lookup 0 per glyph data 60" t a g
Ligature2: "'liga' Standard Ligatures in Latin lookup 0 per glyph data 60" T A G
Ligature2: "'liga' Standard Ligatures in Latin lookup 0 per glyph data 60" T a g
EndChar

StartChar: tags
Encoding: 61484 61484 100
Width: 640
GlyphClass: 3
Flags: W
LayerCount: 2
Fore
SplineSet
497.94140625 222.05859375 m 2
 516.685546875 203.314453125 516.685546875 172.921875 497.94140625 154.176757812 c 2
 293.823242188 -49.94140625 l 2
 275.077148438 -68.6865234375 244.684570312 -68.685546875 225.94140625 -49.94140625 c 2
 14.05859375 161.94140625 l 2
 6.298828125 169.701171875 0 184.907226562 0 195.881835938 c 2
 0 400 l 2
 0 426.509765625 21.490234375 448 48 448 c 2
 252.118164062 448 l 2
 263.092773438 448 278.298828125 441.701171875 286.05859375 433.94140625 c 2
 497.94140625 222.05859375 l 2
112 288 m 0
 138.509765625 288 160 309.490234375 160 336 c 0
 160 362.509765625 138.509765625 384 112 384 c 0
 85.490234375 384 64 362.509765625 64 336 c 0
 64 309.490234375 85.490234375 288 112 288 c 0
625.94140625 154.176757812 m 2
 421.823242188 -49.94140625 l 2
 403.078125 -68.685546875 372.685546875 -68.685546875 353.94140625 -49.94140625 c 2
 353.581054688 -49.5810546875 l 1
 527.639648438 124.477539062 l 2
 544.638671875 141.4765625 554 164.078125 554 188.118164062 c 0
 554 212.158203125 544.637695312 234.758789062 527.639648438 251.7578125 c 2
 331.397460938 448 l 1
 380.118164062 448 l 2
 391.092773438 448 406.298828125 441.701171875 414.05859375 433.94140625 c 2
 625.94140625 222.05859375 l 2
 644.685546875 203.314453125 644.685546875 172.921875 625.94140625 154.176757812 c 2
EndSplineSet
Validated: 524321
Ligature2: "'liga' Standard Ligatures in Latin lookup 0 per glyph data 58" t a g s
Ligature2: "'liga' Standard Ligatures in Latin lookup 0 per glyph data 58" T A G S
Ligature2: "'liga' Standard Ligatures in Latin lookup 0 per glyph data 58" T a g s
EndChar

StartChar: book
Encoding: 61485 61485 101
Width: 448
GlyphClass: 3
Flags: W
LayerCount: 2
Fore
SplineSet
448 88 m 2
 448 80.5 444.5 73.7001953125 439.099609375 69.400390625 c 1
 434.900390625 54 434.900390625 10.099609375 439.099609375 -5.2998046875 c 1
 444.5 -9.7001953125 448 -16.5 448 -24 c 2
 448 -40 l 2
 448 -53.2998046875 437.299804688 -64 424 -64 c 2
 96 -64 l 2
 43 -64 0 -21 0 32 c 2
 0 352 l 2
 0 405 43 448 96 448 c 2
 424 448 l 2
 437.299804688 448 448 437.299804688 448 424 c 2
 448 88 l 2
128 314 m 2
 128 294 l 2
 128 290.700195312 130.700195312 288 134 288 c 2
 346 288 l 2
 349.299804688 288 352 290.700195312 352 294 c 2
 352 314 l 2
 352 317.299804688 349.299804688 320 346 320 c 2
 134 320 l 2
 130.700195312 320 128 317.299804688 128 314 c 2
128 250 m 2
 128 230 l 2
 128 226.700195312 130.700195312 224 134 224 c 2
 346 224 l 2
 349.299804688 224 352 226.700195312 352 230 c 2
 352 250 l 2
 352 253.299804688 349.299804688 256 346 256 c 2
 134 256 l 2
 130.700195312 256 128 253.299804688 128 250 c 2
381.400390625 0 m 1
 379.5 17.099609375 379.5 46.900390625 381.400390625 64 c 1
 96 64 l 2
 78.400390625 64 64 49.599609375 64 32 c 0
 64 14.2998046875 78.2998046875 0 96 0 c 2
 381.400390625 0 l 1
EndSplineSet
Validated: 524321
Ligature2: "'liga' Standard Ligatures in Latin lookup 0 per glyph data 57" b o o k
Ligature2: "'liga' Standard Ligatures in Latin lookup 0 per glyph data 57" B o o k
Ligature2: "'liga' Standard Ligatures in Latin lookup 0 per glyph data 57" B O O K
EndChar

StartChar: bookmark
Encoding: 61486 61486 102
Width: 384
GlyphClass: 3
Flags: W
LayerCount: 2
Fore
SplineSet
0 -64 m 1
 0 400 l 2
 0 426.509765625 21.490234375 448 48 448 c 2
 336 448 l 2
 362.509765625 448 384 426.509765625 384 400 c 2
 384 -64 l 1
 192 48 l 1
 0 -64 l 1
EndSplineSet
Validated: 524289
Ligature2: "'liga' Standard Ligatures in Latin lookup 0 per glyph data 44" b o o k m a r k
Ligature2: "'liga' Standard Ligatures in Latin lookup 0 per glyph data 44" B o o k m a r k
Ligature2: "'liga' Standard Ligatures in Latin lookup 0 per glyph data 44" B O O K M A R K
EndChar

StartChar: print
Encoding: 61487 61487 103
Width: 512
GlyphClass: 3
Flags: W
LayerCount: 2
Fore
SplineSet
448 256 m 1
 483.349609375 256 512 227.349609375 512 192 c 2
 512 80 l 2
 512 71.16015625 504.83984375 64 496 64 c 2
 448 64 l 1
 448 -32 l 2
 448 -49.669921875 433.669921875 -64 416 -64 c 2
 96 -64 l 2
 78.330078125 -64 64 -49.669921875 64 -32 c 2
 64 64 l 1
 16 64 l 2
 7.16015625 64 0 71.16015625 0 80 c 2
 0 192 l 2
 0 227.349609375 28.650390625 256 64 256 c 1
 64 416 l 2
 64 433.669921875 78.330078125 448 96 448 c 2
 370.740234375 448 l 2
 379.23046875 448 387.370117188 444.629882812 393.370117188 438.629882812 c 2
 438.629882812 393.379882812 l 2
 444.629882812 387.370117188 448 379.240234375 448 370.75 c 2
 448 256 l 1
384 0 m 1
 384 96 l 1
 128 96 l 1
 128 0 l 1
 384 0 l 1
384 224 m 1
 384 320 l 1
 336 320 l 2
 327.16015625 320 320 327.16015625 320 336 c 2
 320 384 l 1
 128 384 l 1
 128 224 l 1
 384 224 l 1
432 152 m 0
 445.25 152 456 162.75 456 176 c 0
 456 189.259765625 445.25 200 432 200 c 0
 418.75 200 408 189.259765625 408 176 c 0
 408 162.75 418.75 152 432 152 c 0
EndSplineSet
Validated: 524289
Ligature2: "'liga' Standard Ligatures in Latin lookup 0 per glyph data 54" p r i n t
Ligature2: "'liga' Standard Ligatures in Latin lookup 0 per glyph data 54" P r i n t
Ligature2: "'liga' Standard Ligatures in Latin lookup 0 per glyph data 54" P R I N T
EndChar

StartChar: camera
Encoding: 61488 61488 104
Width: 512
GlyphClass: 3
Flags: W
LayerCount: 2
Fore
SplineSet
512 304 m 2
 512 16 l 2
 512 -10.5 490.5 -32 464 -32 c 2
 48 -32 l 2
 21.5 -32 0 -10.5 0 16 c 2
 0 304 l 2
 0 330.5 21.5 352 48 352 c 2
 136 352 l 1
 148.299804688 384.900390625 l 2
 155.299804688 403.599609375 173.200195312 416 193.200195312 416 c 2
 318.700195312 416 l 2
 338.700195312 416 356.599609375 403.599609375 363.599609375 384.900390625 c 2
 376 352 l 1
 464 352 l 2
 490.5 352 512 330.5 512 304 c 2
376 160 m 0
 376 226.200195312 322.200195312 280 256 280 c 0
 189.799804688 280 136 226.200195312 136 160 c 0
 136 93.7998046875 189.799804688 40 256 40 c 0
 322.200195312 40 376 93.7998046875 376 160 c 0
344 160 m 0
 344 111.5 304.5 72 256 72 c 0
 207.5 72 168 111.5 168 160 c 0
 168 208.5 207.5 248 256 248 c 0
 304.5 248 344 208.5 344 160 c 0
EndSplineSet
Validated: 524289
Ligature2: "'liga' Standard Ligatures in Latin lookup 0 per glyph data 51" c a m e r a
Ligature2: "'liga' Standard Ligatures in Latin lookup 0 per glyph data 51" C a m e r a
Ligature2: "'liga' Standard Ligatures in Latin lookup 0 per glyph data 51" C A M E R A
EndChar

StartChar: font
Encoding: 61489 61489 105
Width: 448
GlyphClass: 3
Flags: W
LayerCount: 2
Fore
SplineSet
432 32 m 2
 440.83203125 32 448 24.83203125 448 16 c 2
 448 -16 l 2
 448 -24.83203125 440.83203125 -32 432 -32 c 2
 304 -32 l 2
 295.16796875 -32 288 -24.83203125 288 -16 c 2
 288 16 l 2
 288 24.83203125 295.16796875 32 304 32 c 2
 323.580078125 32 l 1
 300.280273438 96 l 1
 147.719726562 96 l 1
 124.419921875 32 l 1
 144 32 l 2
 152.83203125 32 160 24.83203125 160 16 c 2
 160 -16 l 2
 160 -24.83203125 152.83203125 -32 144 -32 c 2
 16 -32 l 2
 7.16796875 -32 0 -24.83203125 0 -16 c 2
 0 16 l 2
 0 24.83203125 7.16796875 32 16 32 c 2
 39.41015625 32 l 1
 170.120117188 394.309570312 l 2
 174.194335938 406.283203125 187.766601562 416 200.4140625 416 c 2
 200.419921875 416 l 1
 247.580078125 416 l 1
 247.5859375 416 l 2
 260.233398438 416 273.805664062 406.283203125 277.879882812 394.309570312 c 2
 408.58984375 32 l 1
 432 32 l 2
176.849609375 176 m 1
 271.150390625 176 l 1
 224 305.490234375 l 1
 176.849609375 176 l 1
EndSplineSet
Validated: 524289
Ligature2: "'liga' Standard Ligatures in Latin lookup 0 per glyph data 56" f o n t
Ligature2: "'liga' Standard Ligatures in Latin lookup 0 per glyph data 56" F o n t
Ligature2: "'liga' Standard Ligatures in Latin lookup 0 per glyph data 56" F O N T
EndChar

StartChar: bold
Encoding: 61490 61490 106
Width: 384
GlyphClass: 3
Flags: W
LayerCount: 2
Fore
SplineSet
333.490234375 210 m 1
 367.9296875 182.459960938 389.059570312 138.849609375 384.3203125 90.400390625 c 0
 377.459960938 19.75 314.120117188 -32 243.3203125 -32 c 2
 34 -32 l 2
 25.16796875 -32 18 -24.83203125 18 -16 c 2
 18 32 l 2
 18 40.83203125 25.16796875 48 34 48 c 2
 65.8701171875 48 l 1
 65.8701171875 336 l 1
 34 336 l 2
 25.16796875 336 18 343.16796875 18 352 c 2
 18 400 l 2
 18 408.83203125 25.16796875 416 34 416 c 2
 233.419921875 416 l 2
 308 416 367.870117188 351.509765625 360.490234375 275.209960938 c 0
 358.4765625 254.959960938 346.380859375 225.74609375 333.490234375 210 c 1
145.66015625 336 m 1
 145.66015625 240 l 1
 233.419921875 240 l 2
 259.916015625 240 281.419921875 261.50390625 281.419921875 288 c 0
 281.419921875 314.49609375 259.916015625 336 233.419921875 336 c 2
 145.66015625 336 l 1
233.419921875 48 m 2
 264.33203125 48 289.419921875 73.087890625 289.419921875 104 c 0
 289.419921875 134.912109375 264.33203125 160 233.419921875 160 c 2
 145.66015625 160 l 1
 145.66015625 48 l 1
 233.419921875 48 l 2
EndSplineSet
Validated: 524321
Ligature2: "'liga' Standard Ligatures in Latin lookup 0 per glyph data 56" b o l d
Ligature2: "'liga' Standard Ligatures in Latin lookup 0 per glyph data 56" B o l d
Ligature2: "'liga' Standard Ligatures in Latin lookup 0 per glyph data 56" B O L D
EndChar

StartChar: italic
Encoding: 61491 61491 107
Width: 320
GlyphClass: 3
Flags: W
LayerCount: 2
Fore
SplineSet
320 400 m 2
 320 368 l 2
 320 359.16796875 312.83203125 352 304 352 c 2
 241.240234375 352 l 1
 161.240234375 32 l 1
 208 32 l 2
 216.83203125 32 224 24.83203125 224 16 c 2
 224 -16 l 2
 224 -24.83203125 216.83203125 -32 208 -32 c 2
 16 -32 l 2
 7.16796875 -32 0 -24.83203125 0 -16 c 2
 0 16 l 2
 0 24.83203125 7.16796875 32 16 32 c 2
 78.759765625 32 l 1
 158.759765625 352 l 1
 112 352 l 2
 103.16796875 352 96 359.16796875 96 368 c 2
 96 400 l 2
 96 408.83203125 103.16796875 416 112 416 c 2
 304 416 l 2
 312.83203125 416 320 408.83203125 320 400 c 2
EndSplineSet
Validated: 524289
Ligature2: "'liga' Standard Ligatures in Latin lookup 0 per glyph data 51" i t a l i c
Ligature2: "'liga' Standard Ligatures in Latin lookup 0 per glyph data 51" I t a l i c
Ligature2: "'liga' Standard Ligatures in Latin lookup 0 per glyph data 51" I T A L I C
EndChar

StartChar: text-height
Encoding: 61492 61492 108
Width: 576
GlyphClass: 3
Flags: W
LayerCount: 2
Fore
SplineSet
304 416 m 2
 312.83203125 416 320 408.83203125 320 400 c 2
 320 304 l 2
 320 295.16796875 312.83203125 288 304 288 c 2
 272 288 l 2
 263.16796875 288 256 295.16796875 256 304 c 2
 256 336 l 1
 200 336 l 1
 200 32 l 1
 240 32 l 2
 248.83203125 32 256 24.83203125 256 16 c 2
 256 -16 l 2
 256 -24.83203125 248.83203125 -32 240 -32 c 2
 80 -32 l 2
 71.16796875 -32 64 -24.83203125 64 -16 c 2
 64 16 l 2
 64 24.83203125 71.16796875 32 80 32 c 2
 120 32 l 1
 120 336 l 1
 64 336 l 1
 64 304 l 2
 64 295.16796875 56.83203125 288 48 288 c 2
 16 288 l 2
 7.16796875 288 0 295.16796875 0 304 c 2
 0 400 l 2
 0 408.83203125 7.16796875 416 16 416 c 2
 304 416 l 2
560 80 m 2
 575.639648438 80 580.639648438 62 571.309570312 52.6904296875 c 2
 491.309570312 -27.3095703125 l 2
 488.723632812 -29.89453125 483.65625 -31.9921875 480 -31.9921875 c 0
 476.34375 -31.9921875 471.276367188 -29.89453125 468.690429688 -27.3095703125 c 2
 388.690429688 52.6904296875 l 2
 378.6796875 62.6904296875 385.690429688 80 400 80 c 2
 448 80 l 1
 448 304 l 1
 400 304 l 2
 384.360351562 304 379.360351562 322 388.690429688 331.309570312 c 2
 468.690429688 411.309570312 l 2
 471.276367188 413.89453125 476.34375 415.9921875 480 415.9921875 c 0
 483.65625 415.9921875 488.723632812 413.89453125 491.309570312 411.309570312 c 2
 571.309570312 331.309570312 l 2
 581.330078125 321.309570312 574.309570312 304 560 304 c 2
 512 304 l 1
 512 80 l 1
 560 80 l 2
EndSplineSet
Validated: 524833
Ligature2: "'liga' Standard Ligatures in Latin lookup 0 per glyph data 35" t e x t hyphen h e i g h t
Ligature2: "'liga' Standard Ligatures in Latin lookup 0 per glyph data 35" T e x t hyphen h e i g h t
Ligature2: "'liga' Standard Ligatures in Latin lookup 0 per glyph data 35" T E X T hyphen H E I G H T
Ligature2: "'liga' Standard Ligatures in Latin lookup 0 per glyph data 35" T e x t hyphen H e i g h t
EndChar

StartChar: text-width
Encoding: 61493 61493 109
Width: 448
GlyphClass: 3
Flags: W
LayerCount: 2
Fore
SplineSet
432 416 m 2
 440.83203125 416 448 408.83203125 448 400 c 2
 448 320 l 2
 448 311.16796875 440.83203125 304 432 304 c 2
 400 304 l 2
 391.16796875 304 384 311.16796875 384 320 c 2
 384 336 l 1
 264 336 l 1
 264 224 l 1
 288 224 l 2
 296.83203125 224 304 216.83203125 304 208 c 2
 304 176 l 2
 304 167.16796875 296.83203125 160 288 160 c 2
 160 160 l 2
 151.16796875 160 144 167.16796875 144 176 c 2
 144 208 l 2
 144 216.83203125 151.16796875 224 160 224 c 2
 184 224 l 1
 184 336 l 1
 64 336 l 1
 64 320 l 2
 64 311.16796875 56.83203125 304 48 304 c 2
 16 304 l 2
 7.16796875 304 0 311.16796875 0 320 c 2
 0 400 l 2
 0 408.83203125 7.16796875 416 16 416 c 2
 432 416 l 2
363.309570312 155.309570312 m 2
 443.309570312 75.3095703125 l 2
 445.89453125 72.7236328125 447.9921875 67.65625 447.9921875 64 c 0
 447.9921875 60.34375 445.89453125 55.2763671875 443.309570312 52.6904296875 c 2
 363.309570312 -27.3095703125 l 2
 353.309570312 -37.330078125 336 -30.3095703125 336 -16 c 2
 336 32 l 1
 112 32 l 1
 112 -16 l 2
 112 -31.6396484375 94 -36.6396484375 84.6904296875 -27.3095703125 c 2
 4.6904296875 52.6904296875 l 2
 2.10546875 55.2763671875 0.0078125 60.34375 0.0078125 64 c 0
 0.0078125 67.65625 2.10546875 72.7236328125 4.6904296875 75.3095703125 c 2
 84.6904296875 155.309570312 l 2
 94.6904296875 165.3203125 112 158.309570312 112 144 c 2
 112 96 l 1
 336 96 l 1
 336 144 l 2
 336 159.639648438 354 164.639648438 363.309570312 155.309570312 c 2
EndSplineSet
Validated: 524833
Ligature2: "'liga' Standard Ligatures in Latin lookup 0 per glyph data 38" t e x t hyphen w i d t h
Ligature2: "'liga' Standard Ligatures in Latin lookup 0 per glyph data 38" T e x t hyphen W i d t h
Ligature2: "'liga' Standard Ligatures in Latin lookup 0 per glyph data 38" T e x t hyphen w i d t h
Ligature2: "'liga' Standard Ligatures in Latin lookup 0 per glyph data 38" T E X T hyphen W I D T H
EndChar

StartChar: align-left
Encoding: 61494 61494 110
Width: 448
GlyphClass: 3
Flags: W
LayerCount: 2
Fore
SplineSet
12.830078125 96 m 2
 5.7529296875 96 0 101.743164062 0 108.8203125 c 2
 0 108.830078125 l 1
 0 147.169921875 l 1
 0 147.1796875 l 2
 0 154.256835938 5.7431640625 160 12.8203125 160 c 2
 12.830078125 160 l 1
 275.169921875 160 l 1
 275.1796875 160 l 2
 282.256835938 160 288 154.256835938 288 147.1796875 c 2
 288 147.169921875 l 1
 288 108.830078125 l 1
 288 108.8203125 l 2
 288 101.743164062 282.256835938 96 275.1796875 96 c 2
 275.169921875 96 l 1
 12.830078125 96 l 2
12.830078125 352 m 2
 5.7529296875 352 0 357.743164062 0 364.8203125 c 2
 0 364.830078125 l 1
 0 403.169921875 l 1
 0 403.1796875 l 2
 0 410.256835938 5.7431640625 416 12.8203125 416 c 2
 12.830078125 416 l 1
 275.169921875 416 l 1
 275.1796875 416 l 2
 282.256835938 416 288 410.256835938 288 403.1796875 c 2
 288 403.169921875 l 1
 288 364.830078125 l 1
 288 364.8203125 l 2
 288 357.743164062 282.256835938 352 275.1796875 352 c 2
 275.169921875 352 l 1
 12.830078125 352 l 2
432 288 m 2
 440.83203125 288 448 280.83203125 448 272 c 2
 448 240 l 2
 448 231.16796875 440.83203125 224 432 224 c 2
 16 224 l 2
 7.16796875 224 0 231.16796875 0 240 c 2
 0 272 l 2
 0 280.83203125 7.16796875 288 16 288 c 2
 432 288 l 2
432 32 m 2
 440.83203125 32 448 24.83203125 448 16 c 2
 448 -16 l 2
 448 -24.83203125 440.83203125 -32 432 -32 c 2
 16 -32 l 2
 7.16796875 -32 0 -24.83203125 0 -16 c 2
 0 16 l 2
 0 24.83203125 7.16796875 32 16 32 c 2
 432 32 l 2
EndSplineSet
Validated: 524801
Ligature2: "'liga' Standard Ligatures in Latin lookup 0 per glyph data 38" a l i g n hyphen l e f t
Ligature2: "'liga' Standard Ligatures in Latin lookup 0 per glyph data 38" A l i g n hyphen L e f t
Ligature2: "'liga' Standard Ligatures in Latin lookup 0 per glyph data 38" A l i g n hyphen l e f t
Ligature2: "'liga' Standard Ligatures in Latin lookup 0 per glyph data 38" A L I G N hyphen L E F T
EndChar

StartChar: align-center
Encoding: 61495 61495 111
Width: 448
GlyphClass: 3
Flags: W
LayerCount: 2
Fore
SplineSet
432 288 m 2
 440.83203125 288 448 280.83203125 448 272 c 2
 448 240 l 2
 448 231.16796875 440.83203125 224 432 224 c 2
 16 224 l 2
 7.16796875 224 0 231.16796875 0 240 c 2
 0 272 l 2
 0 280.83203125 7.16796875 288 16 288 c 2
 432 288 l 2
432 32 m 2
 440.83203125 32 448 24.83203125 448 16 c 2
 448 -16 l 2
 448 -24.83203125 440.83203125 -32 432 -32 c 2
 16 -32 l 2
 7.16796875 -32 0 -24.83203125 0 -16 c 2
 0 16 l 2
 0 24.83203125 7.16796875 32 16 32 c 2
 432 32 l 2
108.099609375 352 m 2
 101.420898438 352 96 357.420898438 96 364.099609375 c 2
 96 403.91015625 l 2
 96 410.583984375 101.416015625 416 108.08984375 416 c 2
 108.099609375 416 l 1
 339.91015625 416 l 2
 346.583984375 416 352 410.583984375 352 403.91015625 c 2
 352 364.099609375 l 1
 352 364.08984375 l 2
 352 357.416015625 346.583984375 352 339.91015625 352 c 1
 339.91015625 352 l 1
 108.099609375 352 l 2
339.91015625 96 m 1
 108.099609375 96 l 2
 101.420898438 96 96 101.420898438 96 108.099609375 c 2
 96 147.91015625 l 2
 96 154.583984375 101.416015625 160 108.08984375 160 c 2
 108.099609375 160 l 1
 339.91015625 160 l 2
 346.583984375 160 352 154.583984375 352 147.91015625 c 2
 352 108.099609375 l 1
 352 108.08984375 l 2
 352 101.416015625 346.583984375 96 339.91015625 96 c 1
 339.91015625 96 l 1
EndSplineSet
Validated: 524805
Ligature2: "'liga' Standard Ligatures in Latin lookup 0 per glyph data 34" a l i g n hyphen c e n t e r
Ligature2: "'liga' Standard Ligatures in Latin lookup 0 per glyph data 34" A l i g n hyphen C e n t e r
Ligature2: "'liga' Standard Ligatures in Latin lookup 0 per glyph data 34" A l i g n hyphen c e n t e r
Ligature2: "'liga' Standard Ligatures in Latin lookup 0 per glyph data 34" A L I G N hyphen C E N T E R
EndChar

StartChar: align-right
Encoding: 61496 61496 112
Width: 448
GlyphClass: 3
Flags: W
LayerCount: 2
Fore
SplineSet
16 224 m 2
 7.16796875 224 0 231.16796875 0 240 c 2
 0 272 l 2
 0 280.83203125 7.16796875 288 16 288 c 2
 432 288 l 2
 440.83203125 288 448 280.83203125 448 272 c 2
 448 240 l 2
 448 231.16796875 440.83203125 224 432 224 c 2
 16 224 l 2
432 32 m 2
 440.83203125 32 448 24.83203125 448 16 c 2
 448 -16 l 2
 448 -24.83203125 440.83203125 -32 432 -32 c 2
 16 -32 l 2
 7.16796875 -32 0 -24.83203125 0 -16 c 2
 0 16 l 2
 0 24.83203125 7.16796875 32 16 32 c 2
 432 32 l 2
435.169921875 416 m 2
 442.247070312 416 448 410.256835938 448 403.1796875 c 2
 448 403.169921875 l 1
 448 364.830078125 l 1
 448 364.8203125 l 2
 448 357.743164062 442.256835938 352 435.1796875 352 c 2
 435.169921875 352 l 1
 172.830078125 352 l 1
 172.8203125 352 l 2
 165.743164062 352 160 357.743164062 160 364.8203125 c 2
 160 364.830078125 l 1
 160 403.169921875 l 1
 160 403.1796875 l 2
 160 410.256835938 165.743164062 416 172.8203125 416 c 2
 172.830078125 416 l 1
 435.169921875 416 l 2
435.169921875 160 m 2
 442.247070312 160 448 154.256835938 448 147.1796875 c 2
 448 147.169921875 l 1
 448 108.830078125 l 1
 448 108.8203125 l 2
 448 101.743164062 442.256835938 96 435.1796875 96 c 2
 435.169921875 96 l 1
 172.830078125 96 l 1
 172.8203125 96 l 2
 165.743164062 96 160 101.743164062 160 108.8203125 c 2
 160 108.830078125 l 1
 160 147.169921875 l 1
 160 147.1796875 l 2
 160 154.256835938 165.743164062 160 172.8203125 160 c 2
 172.830078125 160 l 1
 435.169921875 160 l 2
EndSplineSet
Validated: 524801
Ligature2: "'liga' Standard Ligatures in Latin lookup 0 per glyph data 35" a l i g n hyphen r i g h t
Ligature2: "'liga' Standard Ligatures in Latin lookup 0 per glyph data 35" A l i g n hyphen R i g h t
Ligature2: "'liga' Standard Ligatures in Latin lookup 0 per glyph data 35" A l i g n hyphen r i g h t
Ligature2: "'liga' Standard Ligatures in Latin lookup 0 per glyph data 35" A L I G N hyphen R I G H T
EndChar

StartChar: align-justify
Encoding: 61497 61497 113
Width: 448
GlyphClass: 3
Flags: W
LayerCount: 2
Fore
SplineSet
432 32 m 2
 440.83203125 32 448 24.83203125 448 16 c 2
 448 -16 l 2
 448 -24.83203125 440.83203125 -32 432 -32 c 2
 16 -32 l 2
 7.16796875 -32 0 -24.83203125 0 -16 c 2
 0 16 l 2
 0 24.83203125 7.16796875 32 16 32 c 2
 432 32 l 2
432 160 m 2
 440.83203125 160 448 152.83203125 448 144 c 2
 448 112 l 2
 448 103.16796875 440.83203125 96 432 96 c 2
 16 96 l 2
 7.16796875 96 0 103.16796875 0 112 c 2
 0 144 l 2
 0 152.83203125 7.16796875 160 16 160 c 2
 432 160 l 2
432 288 m 2
 440.83203125 288 448 280.83203125 448 272 c 2
 448 240 l 2
 448 231.16796875 440.83203125 224 432 224 c 2
 16 224 l 2
 7.16796875 224 0 231.16796875 0 240 c 2
 0 272 l 2
 0 280.83203125 7.16796875 288 16 288 c 2
 432 288 l 2
432 416 m 2
 440.83203125 416 448 408.83203125 448 400 c 2
 448 368 l 2
 448 359.16796875 440.83203125 352 432 352 c 2
 16 352 l 2
 7.16796875 352 0 359.16796875 0 368 c 2
 0 400 l 2
 0 408.83203125 7.16796875 416 16 416 c 2
 432 416 l 2
EndSplineSet
Validated: 524801
Ligature2: "'liga' Standard Ligatures in Latin lookup 0 per glyph data 31" a l i g n hyphen j u s t i f y
Ligature2: "'liga' Standard Ligatures in Latin lookup 0 per glyph data 31" A l i g n hyphen J u s t i f y
Ligature2: "'liga' Standard Ligatures in Latin lookup 0 per glyph data 31" A l i g n hyphen j u s t i f y
Ligature2: "'liga' Standard Ligatures in Latin lookup 0 per glyph data 31" A L I G N hyphen J U S T I F Y
EndChar

StartChar: list
Encoding: 61498 61498 114
Width: 512
GlyphClass: 3
Flags: W
LayerCount: 2
Fore
SplineSet
80 80 m 2
 88.83203125 80 96 72.83203125 96 64 c 2
 96 0 l 2
 96 -8.83203125 88.83203125 -16 80 -16 c 2
 16 -16 l 2
 7.16796875 -16 0 -8.83203125 0 0 c 2
 0 64 l 2
 0 72.83203125 7.16796875 80 16 80 c 2
 80 80 l 2
80 400 m 2
 88.83203125 400 96 392.83203125 96 384 c 2
 96 320 l 2
 96 311.16796875 88.83203125 304 80 304 c 2
 16 304 l 2
 7.16796875 304 0 311.16796875 0 320 c 2
 0 384 l 2
 0 392.83203125 7.16796875 400 16 400 c 2
 80 400 l 2
80 240 m 2
 88.83203125 240 96 232.83203125 96 224 c 2
 96 160 l 2
 96 151.16796875 88.83203125 144 80 144 c 2
 16 144 l 2
 7.16796875 144 0 151.16796875 0 160 c 2
 0 224 l 2
 0 232.83203125 7.16796875 240 16 240 c 2
 80 240 l 2
496 64 m 2
 504.83203125 64 512 56.83203125 512 48 c 2
 512 16 l 2
 512 7.16796875 504.83203125 0 496 0 c 2
 176 0 l 2
 167.16796875 0 160 7.16796875 160 16 c 2
 160 48 l 2
 160 56.83203125 167.16796875 64 176 64 c 2
 496 64 l 2
496 384 m 2
 504.83203125 384 512 376.83203125 512 368 c 2
 512 336 l 2
 512 327.16796875 504.83203125 320 496 320 c 2
 176 320 l 2
 167.16796875 320 160 327.16796875 160 336 c 2
 160 368 l 2
 160 376.83203125 167.16796875 384 176 384 c 2
 496 384 l 2
496 224 m 2
 504.83203125 224 512 216.83203125 512 208 c 2
 512 176 l 2
 512 167.16796875 504.83203125 160 496 160 c 2
 176 160 l 2
 167.16796875 160 160 167.16796875 160 176 c 2
 160 208 l 2
 160 216.83203125 167.16796875 224 176 224 c 2
 496 224 l 2
EndSplineSet
Validated: 524289
Ligature2: "'liga' Standard Ligatures in Latin lookup 0 per glyph data 57" l i s t
Ligature2: "'liga' Standard Ligatures in Latin lookup 0 per glyph data 57" L I S T
Ligature2: "'liga' Standard Ligatures in Latin lookup 0 per glyph data 57" L i s t
EndChar

StartChar: outdent
Encoding: 61499 61499 115
Width: 448
GlyphClass: 3
Flags: W
LayerCount: 2
Fore
SplineSet
100.690429688 84.7099609375 m 2
 4.6904296875 180.690429688 l 2
 2.10546875 183.276367188 0.0078125 188.34375 0.0078125 192 c 0
 0.0078125 195.65625 2.10546875 200.723632812 4.6904296875 203.309570312 c 2
 100.690429688 299.309570312 l 2
 110.669921875 309.309570312 128 302.3203125 128 288 c 2
 128 96.01953125 l 2
 128 81.7802734375 110.690429688 74.7099609375 100.690429688 84.7099609375 c 2
432 32 m 2
 440.83203125 32 448 24.83203125 448 16 c 2
 448 -16 l 2
 448 -24.83203125 440.83203125 -32 432 -32 c 2
 16 -32 l 2
 7.16796875 -32 0 -24.83203125 0 -16 c 2
 0 16 l 2
 0 24.83203125 7.16796875 32 16 32 c 2
 432 32 l 2
435.169921875 160 m 2
 442.247070312 160 448 154.256835938 448 147.1796875 c 2
 448 147.169921875 l 1
 448 108.830078125 l 1
 448 108.8203125 l 2
 448 101.743164062 442.256835938 96 435.1796875 96 c 2
 435.169921875 96 l 1
 204.830078125 96 l 1
 204.8203125 96 l 2
 197.743164062 96 192 101.743164062 192 108.8203125 c 2
 192 108.830078125 l 1
 192 147.169921875 l 1
 192 147.1796875 l 2
 192 154.256835938 197.743164062 160 204.8203125 160 c 2
 204.830078125 160 l 1
 435.169921875 160 l 2
435.169921875 288 m 2
 442.247070312 288 448 282.256835938 448 275.1796875 c 2
 448 275.169921875 l 1
 448 236.830078125 l 1
 448 236.8203125 l 2
 448 229.743164062 442.256835938 224 435.1796875 224 c 2
 435.169921875 224 l 1
 204.830078125 224 l 1
 204.8203125 224 l 2
 197.743164062 224 192 229.743164062 192 236.8203125 c 2
 192 236.830078125 l 1
 192 275.169921875 l 1
 192 275.1796875 l 2
 192 282.256835938 197.743164062 288 204.8203125 288 c 2
 204.830078125 288 l 1
 435.169921875 288 l 2
432 416 m 2
 440.83203125 416 448 408.83203125 448 400 c 2
 448 368 l 2
 448 359.16796875 440.83203125 352 432 352 c 2
 16 352 l 2
 7.16796875 352 0 359.16796875 0 368 c 2
 0 400 l 2
 0 408.83203125 7.16796875 416 16 416 c 2
 432 416 l 2
EndSplineSet
Validated: 524321
Ligature2: "'liga' Standard Ligatures in Latin lookup 0 per glyph data 49" o u t d e n t
Ligature2: "'liga' Standard Ligatures in Latin lookup 0 per glyph data 49" O u t d e n t
Ligature2: "'liga' Standard Ligatures in Latin lookup 0 per glyph data 49" O U T D E N T
EndChar

StartChar: indent
Encoding: 61500 61500 116
Width: 448
GlyphClass: 3
Flags: W
LayerCount: 2
Fore
SplineSet
27.3095703125 84.7001953125 m 2
 17.330078125 74.7001953125 0 81.6904296875 0 96 c 2
 0 288 l 2
 0 302.219726562 17.26953125 309.33984375 27.3095703125 299.3203125 c 2
 123.309570312 203.3203125 l 2
 125.89453125 200.733398438 127.9921875 195.666992188 127.9921875 192.009765625 c 0
 127.9921875 188.353515625 125.89453125 183.286132812 123.309570312 180.700195312 c 2
 27.3095703125 84.7001953125 l 2
432 32 m 2
 440.83203125 32 448 24.83203125 448 16 c 2
 448 -16 l 2
 448 -24.83203125 440.83203125 -32 432 -32 c 2
 16 -32 l 2
 7.16796875 -32 0 -24.83203125 0 -16 c 2
 0 16 l 2
 0 24.83203125 7.16796875 32 16 32 c 2
 432 32 l 2
435.169921875 160 m 2
 442.247070312 160 448 154.256835938 448 147.1796875 c 2
 448 147.169921875 l 1
 448 108.830078125 l 1
 448 108.8203125 l 2
 448 101.743164062 442.256835938 96 435.1796875 96 c 2
 435.169921875 96 l 1
 204.830078125 96 l 1
 204.8203125 96 l 2
 197.743164062 96 192 101.743164062 192 108.8203125 c 2
 192 108.830078125 l 1
 192 147.169921875 l 1
 192 147.1796875 l 2
 192 154.256835938 197.743164062 160 204.8203125 160 c 2
 204.830078125 160 l 1
 435.169921875 160 l 2
435.169921875 288 m 2
 442.247070312 288 448 282.256835938 448 275.1796875 c 2
 448 275.169921875 l 1
 448 236.830078125 l 1
 448 236.8203125 l 2
 448 229.743164062 442.256835938 224 435.1796875 224 c 2
 435.169921875 224 l 1
 204.830078125 224 l 1
 204.8203125 224 l 2
 197.743164062 224 192 229.743164062 192 236.8203125 c 2
 192 236.830078125 l 1
 192 275.169921875 l 1
 192 275.1796875 l 2
 192 282.256835938 197.743164062 288 204.8203125 288 c 2
 204.830078125 288 l 1
 435.169921875 288 l 2
432 416 m 2
 440.83203125 416 448 408.83203125 448 400 c 2
 448 368 l 2
 448 359.16796875 440.83203125 352 432 352 c 2
 16 352 l 2
 7.16796875 352 0 359.16796875 0 368 c 2
 0 400 l 2
 0 408.83203125 7.16796875 416 16 416 c 2
 432 416 l 2
EndSplineSet
Validated: 524321
Ligature2: "'liga' Standard Ligatures in Latin lookup 0 per glyph data 52" i n d e n t
Ligature2: "'liga' Standard Ligatures in Latin lookup 0 per glyph data 52" I N D E N T
Ligature2: "'liga' Standard Ligatures in Latin lookup 0 per glyph data 52" I n d e n t
EndChar

StartChar: video
Encoding: 61501 61501 117
Width: 576
GlyphClass: 3
Flags: W
LayerCount: 2
Fore
SplineSet
336.200195312 384 m 2
 362.599609375 384 384 362.599609375 384 336.200195312 c 2
 384 47.7998046875 l 2
 384 21.400390625 362.599609375 0 336.200195312 0 c 2
 47.7998046875 0 l 2
 21.400390625 0 0 21.400390625 0 47.7998046875 c 2
 0 336.200195312 l 2
 0 362.599609375 21.400390625 384 47.7998046875 384 c 2
 336.200195312 384 l 2
525.599609375 346.299804688 m 2
 546.900390625 360.900390625 576 345.900390625 576 320.5 c 2
 576 63.599609375 l 2
 576 38.099609375 546.799804688 23.2001953125 525.599609375 37.7998046875 c 2
 416 113.299804688 l 1
 416 270.700195312 l 1
 525.599609375 346.299804688 l 2
EndSplineSet
Validated: 524321
Ligature2: "'liga' Standard Ligatures in Latin lookup 0 per glyph data 54" v i d e o
Ligature2: "'liga' Standard Ligatures in Latin lookup 0 per glyph data 54" V i d e o
Ligature2: "'liga' Standard Ligatures in Latin lookup 0 per glyph data 54" V I D E O
EndChar

StartChar: image
Encoding: 61502 61502 118
Width: 512
GlyphClass: 3
Flags: W
LayerCount: 2
Fore
SplineSet
464 0 m 2
 48 0 l 2
 21.490234375 0 0 21.490234375 0 48 c 2
 0 336 l 2
 0 362.509765625 21.490234375 384 48 384 c 2
 464 384 l 2
 490.509765625 384 512 362.509765625 512 336 c 2
 512 48 l 2
 512 21.490234375 490.509765625 0 464 0 c 2
112 328 m 0
 81.072265625 328 56 302.927734375 56 272 c 0
 56 241.072265625 81.072265625 216 112 216 c 0
 142.927734375 216 168 241.072265625 168 272 c 0
 168 302.927734375 142.927734375 328 112 328 c 0
64 64 m 1
 448 64 l 1
 448 176 l 1
 360.485351562 263.514648438 l 2
 355.798828125 268.201171875 348.201171875 268.201171875 343.513671875 263.514648438 c 2
 208 128 l 1
 152.485351562 183.514648438 l 2
 147.798828125 188.201171875 140.201171875 188.201171875 135.513671875 183.514648438 c 2
 64 112 l 1
 64 64 l 1
EndSplineSet
Validated: 524321
Ligature2: "'liga' Standard Ligatures in Latin lookup 0 per glyph data 55" i m a g e
Ligature2: "'liga' Standard Ligatures in Latin lookup 0 per glyph data 55" I M A G E
Ligature2: "'liga' Standard Ligatures in Latin lookup 0 per glyph data 55" I m a g e
EndChar

StartChar: map-marker
Encoding: 61505 61505 119
Width: 384
GlyphClass: 3
Flags: W
LayerCount: 2
Fore
SplineSet
172.267578125 -53.669921875 m 0
 26.9697265625 156.96875 0 178.586914062 0 256 c 0
 0 362.0390625 85.9609375 448 192 448 c 0
 298.0390625 448 384 362.0390625 384 256 c 0
 384 178.586914062 357.030273438 156.96875 211.732421875 -53.669921875 c 0
 202.197265625 -67.4443359375 181.801757812 -67.443359375 172.267578125 -53.669921875 c 0
EndSplineSet
Validated: 524833
Ligature2: "'liga' Standard Ligatures in Latin lookup 0 per glyph data 38" m a p hyphen m a r k e r
Ligature2: "'liga' Standard Ligatures in Latin lookup 0 per glyph data 38" M a p hyphen M a r k e r
Ligature2: "'liga' Standard Ligatures in Latin lookup 0 per glyph data 38" M a p hyphen m a r k e r
Ligature2: "'liga' Standard Ligatures in Latin lookup 0 per glyph data 38" M A P hyphen M A R K E R
EndChar

StartChar: adjust
Encoding: 61506 61506 120
Width: 512
GlyphClass: 3
Flags: W
LayerCount: 2
Fore
SplineSet
8 192 m 0
 8 328.966796875 119.034179688 440 256 440 c 0
 392.965820312 440 504 328.965820312 504 192 c 0
 504 55.0341796875 392.966796875 -56 256 -56 c 0
 119.033203125 -56 8 55.0341796875 8 192 c 0
256 8 m 1
 357.689453125 8 440 90.294921875 440 192 c 0
 440 293.689453125 357.705078125 376 256 376 c 1
 256 8 l 1
EndSplineSet
Validated: 524289
Ligature2: "'liga' Standard Ligatures in Latin lookup 0 per glyph data 51" a d j u s t
Ligature2: "'liga' Standard Ligatures in Latin lookup 0 per glyph data 51" A d j u s t
Ligature2: "'liga' Standard Ligatures in Latin lookup 0 per glyph data 51" A D J U S T
EndChar

StartChar: tint
Encoding: 61507 61507 121
Width: 352
GlyphClass: 3
Flags: W
LayerCount: 2
Fore
SplineSet
205.219726562 425.91015625 m 0
 252.209960938 267.4296875 352 225.83984375 352 114.08984375 c 0
 352 15.650390625 273.280273438 -64 176 -64 c 0
 78.7197265625 -64 0 15.650390625 0 114.08984375 c 0
 0 225.280273438 100.009765625 268.150390625 146.780273438 425.91015625 c 0
 155.780273438 456.030273438 197.280273438 454.690429688 205.219726562 425.91015625 c 0
176 0 m 0
 184.83984375 0 192 7.16015625 192 16 c 0
 192 24.83984375 184.83984375 32 176 32 c 0
 131.889648438 32 96 67.8896484375 96 112 c 0
 96 120.83984375 88.83984375 128 80 128 c 0
 71.16015625 128 64 120.83984375 64 112 c 0
 64 50.25 114.25 0 176 0 c 0
EndSplineSet
Validated: 524321
Ligature2: "'liga' Standard Ligatures in Latin lookup 0 per glyph data 56" t i n t
Ligature2: "'liga' Standard Ligatures in Latin lookup 0 per glyph data 56" T i n t
Ligature2: "'liga' Standard Ligatures in Latin lookup 0 per glyph data 56" T I N T
EndChar

StartChar: edit
Encoding: 61508 61508 122
Width: 576
GlyphClass: 3
Flags: W
LayerCount: 2
Fore
SplineSet
402.599609375 364.799804688 m 2
 492.799804688 274.599609375 l 2
 496.599609375 270.799804688 496.599609375 264.599609375 492.799804688 260.799804688 c 2
 274.400390625 42.400390625 l 1
 181.599609375 32.099609375 l 2
 169.200195312 30.7001953125 158.700195312 41.2001953125 160.099609375 53.599609375 c 2
 170.400390625 146.400390625 l 1
 388.799804688 364.799804688 l 2
 392.599609375 368.599609375 398.799804688 368.599609375 402.599609375 364.799804688 c 2
564.599609375 387.700195312 m 2
 579.799804688 372.5 579.799804688 347.799804688 564.599609375 332.5 c 2
 529.200195312 297.099609375 l 2
 525.400390625 293.299804688 519.200195312 293.299804688 515.400390625 297.099609375 c 2
 425.200195312 387.299804688 l 2
 421.400390625 391.099609375 421.400390625 397.299804688 425.200195312 401.099609375 c 2
 460.599609375 436.5 l 2
 475.900390625 451.700195312 500.599609375 451.700195312 515.799804688 436.5 c 2
 564.599609375 387.700195312 l 2
384 101.799804688 m 2
 384 105 385.299804688 108 387.5 110.299804688 c 2
 427.5 150.299804688 l 2
 435.099609375 157.799804688 448 152.5 448 141.799804688 c 2
 448 -16 l 2
 448 -42.5 426.5 -64 400 -64 c 2
 48 -64 l 2
 21.5 -64 0 -42.5 0 -16 c 2
 0 336 l 2
 0 362.5 21.5 384 48 384 c 2
 333.799804688 384 l 2
 344.5 384 349.900390625 371.099609375 342.299804688 363.5 c 2
 302.299804688 323.5 l 2
 300 321.299804688 297 320 293.799804688 320 c 2
 64 320 l 1
 64 0 l 1
 384 0 l 1
 384 101.799804688 l 2
EndSplineSet
Validated: 524321
Ligature2: "'liga' Standard Ligatures in Latin lookup 0 per glyph data 58" e d i t
Ligature2: "'liga' Standard Ligatures in Latin lookup 0 per glyph data 58" E d i t
Ligature2: "'liga' Standard Ligatures in Latin lookup 0 per glyph data 58" E D I T
EndChar

StartChar: step-backward
Encoding: 61512 61512 123
Width: 448
GlyphClass: 3
Flags: W
LayerCount: 2
Fore
SplineSet
64 -20 m 2
 64 404 l 2
 64 410.599609375 69.400390625 416 76 416 c 2
 124 416 l 2
 130.599609375 416 136 410.599609375 136 404 c 2
 136 227.599609375 l 1
 331.5 408.599609375 l 2
 352.099609375 425.700195312 384 411.400390625 384 384 c 2
 384 0 l 2
 384 -27.400390625 352.099609375 -41.7001953125 331.5 -24.599609375 c 2
 136 155.299804688 l 1
 136 -20 l 2
 136 -26.599609375 130.599609375 -32 124 -32 c 2
 76 -32 l 2
 69.400390625 -32 64 -26.599609375 64 -20 c 2
EndSplineSet
Validated: 524833
Ligature2: "'liga' Standard Ligatures in Latin lookup 0 per glyph data 31" s t e p hyphen b a c k w a r d
Ligature2: "'liga' Standard Ligatures in Latin lookup 0 per glyph data 31" S t e p hyphen B a c k w a r d
Ligature2: "'liga' Standard Ligatures in Latin lookup 0 per glyph data 31" S t e p hyphen b a c k w a r d
Ligature2: "'liga' Standard Ligatures in Latin lookup 0 per glyph data 31" S T E P hyphen B A C K W A R D
EndChar

StartChar: fast-backward
Encoding: 61513 61513 124
Width: 512
GlyphClass: 3
Flags: W
LayerCount: 2
Fore
SplineSet
0 12 m 2
 0 372 l 2
 0 378.599609375 5.400390625 384 12 384 c 2
 52 384 l 2
 58.599609375 384 64 378.599609375 64 372 c 2
 64 220.099609375 l 1
 235.5 376.599609375 l 2
 256.099609375 393.700195312 288 379.400390625 288 352 c 2
 288 220.099609375 l 1
 459.5 376.599609375 l 2
 480.099609375 393.700195312 512 379.400390625 512 352 c 2
 512 32 l 2
 512 4.599609375 480.099609375 -9.7001953125 459.5 7.400390625 c 2
 288 162.700195312 l 1
 288 32 l 2
 288 4.599609375 256.099609375 -9.7001953125 235.5 7.400390625 c 2
 64 162.700195312 l 1
 64 12 l 2
 64 5.400390625 58.599609375 0 52 0 c 2
 12 0 l 2
 5.400390625 0 0 5.400390625 0 12 c 2
EndSplineSet
Validated: 524833
Ligature2: "'liga' Standard Ligatures in Latin lookup 0 per glyph data 30" f a s t hyphen b a c k w a r d
Ligature2: "'liga' Standard Ligatures in Latin lookup 0 per glyph data 30" F a s t hyphen B a c k w a r d
Ligature2: "'liga' Standard Ligatures in Latin lookup 0 per glyph data 30" F a s t hyphen b a c k w a r d
Ligature2: "'liga' Standard Ligatures in Latin lookup 0 per glyph data 30" F A S T hyphen B A C K W A R D
EndChar

StartChar: backward
Encoding: 61514 61514 125
Width: 512
GlyphClass: 3
Flags: W
LayerCount: 2
Fore
SplineSet
11.5 167.400390625 m 2
 -3.7998046875 180.200195312 -3.7998046875 203.799804688 11.5 216.599609375 c 2
 203.5 376.599609375 l 2
 224.099609375 393.799804688 256 379.400390625 256 352 c 2
 256 32 l 2
 256 4.599609375 224.099609375 -9.7998046875 203.5 7.400390625 c 2
 11.5 167.400390625 l 2
267.5 167.400390625 m 2
 252.200195312 180.200195312 252.200195312 203.799804688 267.5 216.599609375 c 2
 459.5 376.599609375 l 2
 480.099609375 393.799804688 512 379.400390625 512 352 c 2
 512 32 l 2
 512 4.599609375 480.099609375 -9.7998046875 459.5 7.400390625 c 2
 267.5 167.400390625 l 2
EndSplineSet
Validated: 524321
Ligature2: "'liga' Standard Ligatures in Latin lookup 0 per glyph data 45" b a c k w a r d
Ligature2: "'liga' Standard Ligatures in Latin lookup 0 per glyph data 45" B a c k w a r d
Ligature2: "'liga' Standard Ligatures in Latin lookup 0 per glyph data 45" B A C K W A R D
EndChar

StartChar: play
Encoding: 61515 61515 126
Width: 448
GlyphClass: 3
Flags: W
LayerCount: 2
Fore
SplineSet
424.400390625 233.299804688 m 2
 455.900390625 214.799804688 455.799804688 169.200195312 424.400390625 150.700195312 c 2
 72.400390625 -57.2998046875 l 2
 40.7001953125 -76.099609375 0 -53.5 0 -16 c 2
 0 400.099609375 l 2
 0 441.900390625 43.7998046875 458.299804688 72.400390625 441.400390625 c 2
 424.400390625 233.299804688 l 2
EndSplineSet
Validated: 524321
Ligature2: "'liga' Standard Ligatures in Latin lookup 0 per glyph data 57" p l a y
Ligature2: "'liga' Standard Ligatures in Latin lookup 0 per glyph data 57" P l a y
Ligature2: "'liga' Standard Ligatures in Latin lookup 0 per glyph data 57" P L A Y
EndChar

StartChar: pause
Encoding: 61516 61516 127
Width: 448
GlyphClass: 3
Flags: W
LayerCount: 2
Fore
SplineSet
144 -31 m 2
 48 -31 l 2
 21.5 -31 0 -9.5 0 17 c 2
 0 369 l 2
 0 395.5 21.5 417 48 417 c 2
 144 417 l 2
 170.5 417 192 395.5 192 369 c 2
 192 17 l 2
 192 -9.5 170.5 -31 144 -31 c 2
448 17 m 2
 448 -9.5 426.5 -31 400 -31 c 2
 304 -31 l 2
 277.5 -31 256 -9.5 256 17 c 2
 256 369 l 2
 256 395.5 277.5 417 304 417 c 2
 400 417 l 2
 426.5 417 448 395.5 448 369 c 2
 448 17 l 2
EndSplineSet
Validated: 524289
Ligature2: "'liga' Standard Ligatures in Latin lookup 0 per glyph data 55" p a u s e
Ligature2: "'liga' Standard Ligatures in Latin lookup 0 per glyph data 55" P A U S E
Ligature2: "'liga' Standard Ligatures in Latin lookup 0 per glyph data 55" P a u s e
EndChar

StartChar: stop
Encoding: 61517 61517 128
Width: 448
GlyphClass: 3
Flags: W
LayerCount: 2
Fore
SplineSet
400 416 m 2
 426.5 416 448 394.5 448 368 c 2
 448 16 l 2
 448 -10.5 426.5 -32 400 -32 c 2
 48 -32 l 2
 21.5 -32 0 -10.5 0 16 c 2
 0 368 l 2
 0 394.5 21.5 416 48 416 c 2
 400 416 l 2
EndSplineSet
Validated: 524289
Ligature2: "'liga' Standard Ligatures in Latin lookup 0 per glyph data 56" s t o p
Ligature2: "'liga' Standard Ligatures in Latin lookup 0 per glyph data 56" S t o p
Ligature2: "'liga' Standard Ligatures in Latin lookup 0 per glyph data 56" S T O P
EndChar

StartChar: forward
Encoding: 61518 61518 129
Width: 512
GlyphClass: 3
Flags: W
LayerCount: 2
Fore
SplineSet
500.5 216.599609375 m 2
 515.799804688 203.799804688 515.799804688 180.200195312 500.5 167.400390625 c 2
 308.5 7.400390625 l 2
 287.900390625 -9.7998046875 256 4.599609375 256 32 c 2
 256 352 l 2
 256 379.400390625 287.900390625 393.700195312 308.5 376.599609375 c 2
 500.5 216.599609375 l 2
244.5 216.599609375 m 2
 259.799804688 203.799804688 259.799804688 180.200195312 244.5 167.400390625 c 2
 52.5 7.400390625 l 2
 31.900390625 -9.7998046875 0 4.599609375 0 32 c 2
 0 352 l 2
 0 379.400390625 31.900390625 393.700195312 52.5 376.599609375 c 2
 244.5 216.599609375 l 2
EndSplineSet
Validated: 524321
Ligature2: "'liga' Standard Ligatures in Latin lookup 0 per glyph data 47" f o r w a r d
Ligature2: "'liga' Standard Ligatures in Latin lookup 0 per glyph data 47" F o r w a r d
Ligature2: "'liga' Standard Ligatures in Latin lookup 0 per glyph data 47" F O R W A R D
EndChar

StartChar: fast-forward
Encoding: 61520 61520 130
Width: 512
GlyphClass: 3
Flags: W
LayerCount: 2
Fore
SplineSet
512 372 m 2
 512 12 l 2
 512 5.400390625 506.599609375 0 500 0 c 2
 460 0 l 2
 453.400390625 0 448 5.400390625 448 12 c 2
 448 163.900390625 l 1
 276.5 7.400390625 l 2
 255.900390625 -9.7998046875 224 4.599609375 224 32 c 2
 224 163.900390625 l 1
 52.5 7.400390625 l 2
 31.900390625 -9.7998046875 0 4.599609375 0 32 c 2
 0 352 l 2
 0 379.400390625 31.900390625 393.700195312 52.5 376.599609375 c 2
 224 221.200195312 l 1
 224 352 l 2
 224 379.400390625 255.900390625 393.700195312 276.5 376.599609375 c 2
 448 221.200195312 l 1
 448 372 l 2
 448 378.599609375 453.400390625 384 460 384 c 2
 500 384 l 2
 506.599609375 384 512 378.599609375 512 372 c 2
EndSplineSet
Validated: 524833
Ligature2: "'liga' Standard Ligatures in Latin lookup 0 per glyph data 34" f a s t hyphen f o r w a r d
Ligature2: "'liga' Standard Ligatures in Latin lookup 0 per glyph data 34" F a s t hyphen F o r w a r d
Ligature2: "'liga' Standard Ligatures in Latin lookup 0 per glyph data 34" F a s t hyphen f o r w a r d
Ligature2: "'liga' Standard Ligatures in Latin lookup 0 per glyph data 34" F A S T hyphen F O R W A R D
EndChar

StartChar: step-forward
Encoding: 61521 61521 131
Width: 448
GlyphClass: 3
Flags: W
LayerCount: 2
Fore
SplineSet
384 404 m 2
 384 -20 l 2
 384 -26.599609375 378.599609375 -32 372 -32 c 2
 324 -32 l 2
 317.400390625 -32 312 -26.599609375 312 -20 c 2
 312 156.400390625 l 1
 116.5 -24.599609375 l 2
 95.900390625 -41.7001953125 64 -27.400390625 64 0 c 2
 64 384 l 2
 64 411.400390625 95.900390625 425.700195312 116.5 408.599609375 c 2
 312 228.700195312 l 1
 312 404 l 2
 312 410.599609375 317.400390625 416 324 416 c 2
 372 416 l 2
 378.599609375 416 384 410.599609375 384 404 c 2
EndSplineSet
Validated: 524833
Ligature2: "'liga' Standard Ligatures in Latin lookup 0 per glyph data 32" s t e p hyphen f o r w a r d
Ligature2: "'liga' Standard Ligatures in Latin lookup 0 per glyph data 32" S t e p hyphen F o r w a r d
Ligature2: "'liga' Standard Ligatures in Latin lookup 0 per glyph data 32" S t e p hyphen f o r w a r d
Ligature2: "'liga' Standard Ligatures in Latin lookup 0 per glyph data 32" S T E P hyphen F O R W A R D
EndChar

StartChar: eject
Encoding: 61522 61522 132
Width: 448
GlyphClass: 3
Flags: W
LayerCount: 2
Fore
SplineSet
448 64 m 2
 448 0 l 2
 448 -17.6728515625 433.672851562 -32 416 -32 c 2
 32 -32 l 2
 14.3271484375 -32 0 -17.6728515625 0 0 c 2
 0 64 l 2
 0 81.6728515625 14.3271484375 96 32 96 c 2
 416 96 l 2
 433.672851562 96 448 81.6728515625 448 64 c 2
48.052734375 128 m 2
 6.32421875 128 -15.474609375 177.732421875 12.669921875 208.434570312 c 2
 188.616210938 400.442382812 l 2
 207.631835938 421.185546875 240.369140625 421.184570312 259.3828125 400.442382812 c 2
 435.322265625 208.434570312 l 2
 463.51953125 177.673828125 441.58984375 128 399.939453125 128 c 2
 48.052734375 128 l 2
EndSplineSet
Validated: 524321
Ligature2: "'liga' Standard Ligatures in Latin lookup 0 per glyph data 53" e j e c t
Ligature2: "'liga' Standard Ligatures in Latin lookup 0 per glyph data 53" E j e c t
Ligature2: "'liga' Standard Ligatures in Latin lookup 0 per glyph data 53" E J E C T
EndChar

StartChar: chevron-left
Encoding: 61523 61523 133
Width: 320
GlyphClass: 3
Flags: W
LayerCount: 2
Fore
SplineSet
34.51953125 208.969726562 m 2
 228.870117188 403.309570312 l 2
 238.240234375 412.6796875 253.440429688 412.6796875 262.809570312 403.309570312 c 2
 285.48046875 380.639648438 l 2
 294.83984375 371.280273438 294.849609375 356.120117188 285.51953125 346.740234375 c 2
 131.490234375 192 l 1
 285.509765625 37.25 l 2
 294.849609375 27.8701171875 294.830078125 12.7099609375 285.469726562 3.349609375 c 2
 262.799804688 -19.3203125 l 2
 253.4296875 -28.6904296875 238.23046875 -28.6904296875 228.860351562 -19.3203125 c 2
 34.51953125 175.030273438 l 2
 25.150390625 184.400390625 25.150390625 199.599609375 34.51953125 208.969726562 c 2
EndSplineSet
Validated: 524833
Ligature2: "'liga' Standard Ligatures in Latin lookup 0 per glyph data 33" c h e v r o n hyphen l e f t
Ligature2: "'liga' Standard Ligatures in Latin lookup 0 per glyph data 33" C h e v r o n hyphen L e f t
Ligature2: "'liga' Standard Ligatures in Latin lookup 0 per glyph data 33" C h e v r o n hyphen l e f t
Ligature2: "'liga' Standard Ligatures in Latin lookup 0 per glyph data 33" C H E V R O N hyphen L E F T
EndChar

StartChar: chevron-right
Encoding: 61524 61524 134
Width: 320
GlyphClass: 3
Flags: W
LayerCount: 2
Fore
SplineSet
285.475585938 175.029296875 m 2
 91.1318359375 -19.314453125 l 2
 81.7587890625 -28.6865234375 66.5634765625 -28.6865234375 57.19140625 -19.314453125 c 2
 34.5244140625 3.3525390625 l 2
 25.1669921875 12.7099609375 25.1494140625 27.875 34.484375 37.25390625 c 2
 188.504882812 192 l 1
 34.484375 346.745117188 l 2
 25.1494140625 356.124023438 25.1669921875 371.2890625 34.5244140625 380.646484375 c 2
 57.19140625 403.313476562 l 2
 66.564453125 412.685546875 81.759765625 412.685546875 91.1318359375 403.313476562 c 2
 285.474609375 208.969726562 l 2
 294.84765625 199.59765625 294.84765625 184.40234375 285.475585938 175.029296875 c 2
EndSplineSet
Validated: 524833
Ligature2: "'liga' Standard Ligatures in Latin lookup 0 per glyph data 30" c h e v r o n hyphen r i g h t
Ligature2: "'liga' Standard Ligatures in Latin lookup 0 per glyph data 30" C h e v r o n hyphen R i g h t
Ligature2: "'liga' Standard Ligatures in Latin lookup 0 per glyph data 30" C h e v r o n hyphen r i g h t
Ligature2: "'liga' Standard Ligatures in Latin lookup 0 per glyph data 30" C H E V R O N hyphen R I G H T
EndChar

StartChar: plus-circle
Encoding: 61525 61525 135
Width: 512
GlyphClass: 3
Flags: W
LayerCount: 2
Fore
SplineSet
256 440 m 0
 393 440 504 329 504 192 c 0
 504 55 393 -56 256 -56 c 0
 119 -56 8 55 8 192 c 0
 8 329 119 440 256 440 c 0
400 164 m 2
 400 220 l 2
 400 226.599609375 394.599609375 232 388 232 c 2
 296 232 l 1
 296 324 l 2
 296 330.599609375 290.599609375 336 284 336 c 2
 228 336 l 2
 221.400390625 336 216 330.599609375 216 324 c 2
 216 232 l 1
 124 232 l 2
 117.400390625 232 112 226.599609375 112 220 c 2
 112 164 l 2
 112 157.400390625 117.400390625 152 124 152 c 2
 216 152 l 1
 216 60 l 2
 216 53.400390625 221.400390625 48 228 48 c 2
 284 48 l 2
 290.599609375 48 296 53.400390625 296 60 c 2
 296 152 l 1
 388 152 l 2
 394.599609375 152 400 157.400390625 400 164 c 2
EndSplineSet
Validated: 524801
Ligature2: "'liga' Standard Ligatures in Latin lookup 0 per glyph data 37" p l u s hyphen c i r c l e
Ligature2: "'liga' Standard Ligatures in Latin lookup 0 per glyph data 37" P l u s hyphen C i r c l e
Ligature2: "'liga' Standard Ligatures in Latin lookup 0 per glyph data 37" P l u s hyphen c i r c l e
Ligature2: "'liga' Standard Ligatures in Latin lookup 0 per glyph data 37" P L U S hyphen C I R C L E
EndChar

StartChar: minus-circle
Encoding: 61526 61526 136
Width: 512
GlyphClass: 3
Flags: W
LayerCount: 2
Fore
SplineSet
256 440 m 0
 393 440 504 329 504 192 c 0
 504 55 393 -56 256 -56 c 0
 119 -56 8 55 8 192 c 0
 8 329 119 440 256 440 c 0
124 152 m 2
 388 152 l 2
 394.599609375 152 400 157.400390625 400 164 c 2
 400 220 l 2
 400 226.599609375 394.599609375 232 388 232 c 2
 124 232 l 2
 117.400390625 232 112 226.599609375 112 220 c 2
 112 164 l 2
 112 157.400390625 117.400390625 152 124 152 c 2
EndSplineSet
Validated: 524801
Ligature2: "'liga' Standard Ligatures in Latin lookup 0 per glyph data 33" m i n u s hyphen c i r c l e
Ligature2: "'liga' Standard Ligatures in Latin lookup 0 per glyph data 33" M i n u s hyphen C i r c l e
Ligature2: "'liga' Standard Ligatures in Latin lookup 0 per glyph data 33" M i n u s hyphen c i r c l e
Ligature2: "'liga' Standard Ligatures in Latin lookup 0 per glyph data 33" M I N U S hyphen C I R C L E
EndChar

StartChar: times-circle
Encoding: 61527 61527 137
Width: 512
GlyphClass: 3
Flags: W
LayerCount: 2
Fore
SplineSet
256 440 m 0
 393 440 504 329 504 192 c 0
 504 55 393 -56 256 -56 c 0
 119 -56 8 55 8 192 c 0
 8 329 119 440 256 440 c 0
377.599609375 126.900390625 m 2
 312 192 l 1
 377.700195312 257 l 2
 382.400390625 261.700195312 382.400390625 269.299804688 377.700195312 274 c 2
 338.099609375 313.599609375 l 2
 333.400390625 318.299804688 325.799804688 318.299804688 321.099609375 313.599609375 c 2
 256 248 l 1
 191 313.700195312 l 2
 186.299804688 318.400390625 178.700195312 318.400390625 174 313.700195312 c 2
 134.400390625 274.099609375 l 2
 129.700195312 269.400390625 129.700195312 261.799804688 134.400390625 257.099609375 c 2
 200 192 l 1
 134.400390625 127 l 2
 129.700195312 122.299804688 129.700195312 114.700195312 134.400390625 110 c 2
 173.900390625 70.400390625 l 2
 178.599609375 65.7001953125 186.200195312 65.7001953125 190.900390625 70.400390625 c 2
 256 136 l 1
 321 70.400390625 l 2
 325.700195312 65.7001953125 333.299804688 65.7001953125 338 70.400390625 c 2
 377.599609375 109.900390625 l 2
 382.299804688 114.599609375 382.299804688 122.200195312 377.599609375 126.900390625 c 2
EndSplineSet
Validated: 524833
Ligature2: "'liga' Standard Ligatures in Latin lookup 0 per glyph data 34" t i m e s hyphen c i r c l e
Ligature2: "'liga' Standard Ligatures in Latin lookup 0 per glyph data 34" T i m e s hyphen C i r c l e
Ligature2: "'liga' Standard Ligatures in Latin lookup 0 per glyph data 34" T i m e s hyphen c i r c l e
Ligature2: "'liga' Standard Ligatures in Latin lookup 0 per glyph data 34" T I M E S hyphen C I R C L E
EndChar

StartChar: check-circle
Encoding: 61528 61528 138
Width: 512
GlyphClass: 3
Flags: W
LayerCount: 2
Fore
SplineSet
504 192 m 0
 504 55.033203125 392.966796875 -56 256 -56 c 0
 119.033203125 -56 8 55.033203125 8 192 c 0
 8 328.966796875 119.033203125 440 256 440 c 0
 392.966796875 440 504 328.966796875 504 192 c 0
227.314453125 60.685546875 m 2
 411.314453125 244.685546875 l 2
 417.561523438 250.93359375 417.561523438 261.065429688 411.314453125 267.313476562 c 2
 388.686523438 289.940429688 l 2
 382.439453125 296.189453125 372.307617188 296.189453125 366.05859375 289.940429688 c 2
 216 139.881835938 l 1
 145.94140625 209.94140625 l 2
 139.693359375 216.189453125 129.561523438 216.189453125 123.313476562 209.94140625 c 2
 100.685546875 187.314453125 l 2
 94.4384765625 181.06640625 94.4384765625 170.934570312 100.685546875 164.686523438 c 2
 204.685546875 60.6865234375 l 2
 210.934570312 54.4384765625 221.065429688 54.4384765625 227.314453125 60.685546875 c 2
EndSplineSet
Validated: 524833
Ligature2: "'liga' Standard Ligatures in Latin lookup 0 per glyph data 32" c h e c k hyphen c i r c l e
Ligature2: "'liga' Standard Ligatures in Latin lookup 0 per glyph data 32" C h e c k hyphen C i r c l e
Ligature2: "'liga' Standard Ligatures in Latin lookup 0 per glyph data 32" C h e c k hyphen c i r c l e
Ligature2: "'liga' Standard Ligatures in Latin lookup 0 per glyph data 32" C H E C K hyphen C I R C L E
EndChar

StartChar: question-circle
Encoding: 61529 61529 139
Width: 512
GlyphClass: 3
Flags: W
LayerCount: 2
Fore
SplineSet
504 192 m 0
 504 55.0029296875 392.95703125 -56 256 -56 c 0
 119.04296875 -56 8 55.0029296875 8 192 c 0
 8 328.916992188 119.04296875 440 256 440 c 0
 392.95703125 440 504 328.916992188 504 192 c 0
262.655273438 358 m 0
 208.158203125 358 173.400390625 335.04296875 146.106445312 294.2421875 c 0
 142.5703125 288.956054688 143.752929688 281.827148438 148.821289062 277.984375 c 2
 183.51953125 251.673828125 l 2
 188.724609375 247.7265625 196.140625 248.666015625 200.184570312 253.795898438 c 0
 218.048828125 276.454101562 230.297851562 289.592773438 257.48828125 289.592773438 c 0
 277.916992188 289.592773438 303.185546875 276.4453125 303.185546875 256.634765625 c 0
 303.185546875 241.659179688 290.823242188 233.967773438 270.65234375 222.659179688 c 0
 247.127929688 209.471679688 216 193.05859375 216 152 c 2
 216 148 l 2
 216 141.373046875 221.373046875 136 228 136 c 2
 284 136 l 2
 290.626953125 136 296 141.373046875 296 148 c 2
 296 149.333007812 l 2
 296 177.794921875 379.185546875 178.98046875 379.185546875 256 c 0
 379.185546875 314.001953125 319.021484375 358 262.655273438 358 c 0
256 110 m 0
 230.634765625 110 210 89.365234375 210 64 c 0
 210 38.6357421875 230.634765625 18 256 18 c 0
 281.365234375 18 302 38.6357421875 302 64 c 0
 302 89.365234375 281.365234375 110 256 110 c 0
EndSplineSet
Validated: 524833
Ligature2: "'liga' Standard Ligatures in Latin lookup 0 per glyph data 24" q u e s t i o n hyphen c i r c l e
Ligature2: "'liga' Standard Ligatures in Latin lookup 0 per glyph data 24" Q u e s t i o n hyphen C i r c l e
Ligature2: "'liga' Standard Ligatures in Latin lookup 0 per glyph data 24" Q u e s t i o n hyphen c i r c l e
Ligature2: "'liga' Standard Ligatures in Latin lookup 0 per glyph data 24" Q U E S T I O N hyphen C I R C L E
EndChar

StartChar: info-circle
Encoding: 61530 61530 140
Width: 512
GlyphClass: 3
Flags: W
LayerCount: 2
Fore
SplineSet
256 440 m 0
 392.95703125 440 504 328.916992188 504 192 c 0
 504 55.0029296875 392.95703125 -56 256 -56 c 0
 119.04296875 -56 8 55.0029296875 8 192 c 0
 8 328.916992188 119.04296875 440 256 440 c 0
256 330 m 0
 232.803710938 330 214 311.196289062 214 288 c 0
 214 264.803710938 232.803710938 246 256 246 c 0
 279.196289062 246 298 264.803710938 298 288 c 0
 298 311.196289062 279.196289062 330 256 330 c 0
312 76 m 2
 312 100 l 2
 312 106.626953125 306.626953125 112 300 112 c 2
 288 112 l 1
 288 212 l 2
 288 218.626953125 282.626953125 224 276 224 c 2
 212 224 l 2
 205.373046875 224 200 218.626953125 200 212 c 2
 200 188 l 2
 200 181.373046875 205.373046875 176 212 176 c 2
 224 176 l 1
 224 112 l 1
 212 112 l 2
 205.373046875 112 200 106.626953125 200 100 c 2
 200 76 l 2
 200 69.373046875 205.373046875 64 212 64 c 2
 300 64 l 2
 306.626953125 64 312 69.373046875 312 76 c 2
EndSplineSet
Validated: 524801
Ligature2: "'liga' Standard Ligatures in Latin lookup 0 per glyph data 36" i n f o hyphen c i r c l e
Ligature2: "'liga' Standard Ligatures in Latin lookup 0 per glyph data 36" I n f o hyphen C i r c l e
Ligature2: "'liga' Standard Ligatures in Latin lookup 0 per glyph data 36" I n f o hyphen c i r c l e
Ligature2: "'liga' Standard Ligatures in Latin lookup 0 per glyph data 36" I N F O hyphen C I R C L E
EndChar

StartChar: crosshairs
Encoding: 61531 61531 141
Width: 512
GlyphClass: 3
Flags: W
LayerCount: 2
Fore
SplineSet
500 224 m 2
 506.626953125 224 512 218.626953125 512 212 c 2
 512 172 l 2
 512 165.373046875 506.626953125 160 500 160 c 2
 469.635742188 160 l 1
 455.723632812 66.3251953125 381.674804688 -7.7236328125 288 -21.6357421875 c 1
 288 -52 l 2
 288 -58.626953125 282.626953125 -64 276 -64 c 2
 236 -64 l 2
 229.373046875 -64 224 -58.626953125 224 -52 c 2
 224 -21.6357421875 l 1
 130.325195312 -7.7236328125 56.2763671875 66.3251953125 42.3642578125 160 c 1
 12 160 l 2
 5.373046875 160 0 165.373046875 0 172 c 2
 0 212 l 2
 0 218.626953125 5.373046875 224 12 224 c 2
 42.3642578125 224 l 1
 56.2763671875 317.674804688 130.325195312 391.723632812 224 405.635742188 c 1
 224 436 l 2
 224 442.626953125 229.373046875 448 236 448 c 2
 276 448 l 2
 282.626953125 448 288 442.626953125 288 436 c 2
 288 405.635742188 l 1
 381.674804688 391.723632812 455.723632812 317.674804688 469.635742188 224 c 1
 500 224 l 2
288 43.3662109375 m 1
 346.243164062 55.783203125 392.232421875 101.826171875 404.633789062 160 c 1
 364 160 l 2
 357.373046875 160 352 165.373046875 352 172 c 2
 352 212 l 2
 352 218.626953125 357.373046875 224 364 224 c 2
 404.633789062 224 l 1
 392.216796875 282.243164062 346.173828125 328.232421875 288 340.633789062 c 1
 288 300 l 2
 288 293.373046875 282.626953125 288 276 288 c 2
 236 288 l 2
 229.373046875 288 224 293.373046875 224 300 c 2
 224 340.633789062 l 1
 165.756835938 328.216796875 119.767578125 282.173828125 107.366210938 224 c 1
 148 224 l 2
 154.626953125 224 160 218.626953125 160 212 c 2
 160 172 l 2
 160 165.373046875 154.626953125 160 148 160 c 2
 107.366210938 160 l 1
 119.783203125 101.756835938 165.826171875 55.767578125 224 43.3662109375 c 1
 224 84 l 2
 224 90.626953125 229.373046875 96 236 96 c 2
 276 96 l 2
 282.626953125 96 288 90.626953125 288 84 c 2
 288 43.3662109375 l 1
288 192 m 0
 288 174.327148438 273.672851562 160 256 160 c 0
 238.327148438 160 224 174.327148438 224 192 c 0
 224 209.672851562 238.327148438 224 256 224 c 0
 273.672851562 224 288 209.672851562 288 192 c 0
EndSplineSet
Validated: 524289
Ligature2: "'liga' Standard Ligatures in Latin lookup 0 per glyph data 38" c r o s s h a i r s
Ligature2: "'liga' Standard Ligatures in Latin lookup 0 per glyph data 38" C r o s s h a i r s
Ligature2: "'liga' Standard Ligatures in Latin lookup 0 per glyph data 38" C R O S S H A I R S
EndChar

StartChar: ban
Encoding: 61534 61534 142
Width: 512
GlyphClass: 3
Flags: W
LayerCount: 2
Fore
SplineSet
256 440 m 0
 392.966796875 440 504 328.965820312 504 192 c 0
 504 55.0341796875 392.965820312 -56 256 -56 c 0
 119.034179688 -56 8 55.033203125 8 192 c 0
 8 328.966796875 119.034179688 440 256 440 c 0
386.108398438 322.108398438 m 0
 320.696289062 387.518554688 220.673828125 392.139648438 150.469726562 342.784179688 c 1
 406.78515625 86.470703125 l 1
 456.108398438 156.626953125 451.555664062 256.66015625 386.108398438 322.108398438 c 0
125.891601562 61.8916015625 m 0
 191.303710938 -3.51953125 291.327148438 -8.1396484375 361.530273438 41.2158203125 c 1
 105.21484375 297.529296875 l 1
 55.8916015625 227.373046875 60.4443359375 127.33984375 125.891601562 61.8916015625 c 0
EndSplineSet
Validated: 524321
Ligature2: "'liga' Standard Ligatures in Latin lookup 0 per glyph data 60" b a n
Ligature2: "'liga' Standard Ligatures in Latin lookup 0 per glyph data 60" B a n
Ligature2: "'liga' Standard Ligatures in Latin lookup 0 per glyph data 60" B A N
EndChar

StartChar: arrow-left
Encoding: 61536 61536 143
Width: 448
GlyphClass: 3
Flags: W
LayerCount: 2
Fore
SplineSet
257.5 2.900390625 m 2
 235.299804688 -19.2998046875 l 2
 225.900390625 -28.7001953125 210.700195312 -28.7001953125 201.400390625 -19.2998046875 c 2
 7 175 l 2
 -2.400390625 184.400390625 -2.400390625 199.599609375 7 208.900390625 c 2
 201.400390625 403.299804688 l 2
 210.799804688 412.700195312 226 412.700195312 235.299804688 403.299804688 c 2
 257.5 381.099609375 l 2
 267 371.599609375 266.799804688 356.099609375 257.099609375 346.799804688 c 2
 136.599609375 232 l 1
 424 232 l 2
 437.299804688 232 448 221.299804688 448 208 c 2
 448 176 l 2
 448 162.700195312 437.299804688 152 424 152 c 2
 136.599609375 152 l 1
 257.099609375 37.2001953125 l 2
 266.900390625 27.900390625 267.099609375 12.400390625 257.5 2.900390625 c 2
EndSplineSet
Validated: 524833
Ligature2: "'liga' Standard Ligatures in Latin lookup 0 per glyph data 38" a r r o w hyphen l e f t
Ligature2: "'liga' Standard Ligatures in Latin lookup 0 per glyph data 38" A r r o w hyphen L e f t
Ligature2: "'liga' Standard Ligatures in Latin lookup 0 per glyph data 38" A r r o w hyphen l e f t
Ligature2: "'liga' Standard Ligatures in Latin lookup 0 per glyph data 38" A R R O W hyphen L E F T
EndChar

StartChar: arrow-right
Encoding: 61537 61537 144
Width: 448
GlyphClass: 3
Flags: W
LayerCount: 2
Fore
SplineSet
190.5 381.099609375 m 2
 212.700195312 403.299804688 l 2
 222.099609375 412.700195312 237.299804688 412.700195312 246.599609375 403.299804688 c 2
 441 209 l 2
 450.400390625 199.599609375 450.400390625 184.400390625 441 175.099609375 c 2
 246.599609375 -19.2998046875 l 2
 237.200195312 -28.7001953125 222 -28.7001953125 212.700195312 -19.2998046875 c 2
 190.5 2.900390625 l 2
 181 12.400390625 181.200195312 27.900390625 190.900390625 37.2001953125 c 2
 311.400390625 152 l 1
 24 152 l 2
 10.7001953125 152 0 162.700195312 0 176 c 2
 0 208 l 2
 0 221.299804688 10.7001953125 232 24 232 c 2
 311.400390625 232 l 1
 190.900390625 346.799804688 l 2
 181.099609375 356.099609375 180.900390625 371.599609375 190.5 381.099609375 c 2
EndSplineSet
Validated: 524833
Ligature2: "'liga' Standard Ligatures in Latin lookup 0 per glyph data 35" a r r o w hyphen r i g h t
Ligature2: "'liga' Standard Ligatures in Latin lookup 0 per glyph data 35" A r r o w hyphen R i g h t
Ligature2: "'liga' Standard Ligatures in Latin lookup 0 per glyph data 35" A r r o w hyphen r i g h t
Ligature2: "'liga' Standard Ligatures in Latin lookup 0 per glyph data 35" A R R O W hyphen R I G H T
EndChar

StartChar: arrow-up
Encoding: 61538 61538 145
Width: 448
GlyphClass: 3
Flags: W
LayerCount: 2
Fore
SplineSet
34.900390625 158.5 m 2
 12.7001953125 180.700195312 l 2
 3.2998046875 190.099609375 3.2998046875 205.299804688 12.7001953125 214.599609375 c 2
 207 409 l 2
 216.400390625 418.400390625 231.599609375 418.400390625 240.900390625 409 c 2
 435.200195312 214.700195312 l 2
 444.599609375 205.299804688 444.599609375 190.099609375 435.200195312 180.799804688 c 2
 413 158.599609375 l 2
 403.5 149.099609375 388 149.299804688 378.700195312 159 c 2
 264 279.400390625 l 1
 264 -8 l 2
 264 -21.2998046875 253.299804688 -32 240 -32 c 2
 208 -32 l 2
 194.700195312 -32 184 -21.2998046875 184 -8 c 2
 184 279.400390625 l 1
 69.2001953125 158.900390625 l 2
 59.900390625 149.099609375 44.400390625 148.900390625 34.900390625 158.5 c 2
EndSplineSet
Validated: 524833
Ligature2: "'liga' Standard Ligatures in Latin lookup 0 per glyph data 46" a r r o w hyphen u p
Ligature2: "'liga' Standard Ligatures in Latin lookup 0 per glyph data 46" A r r o w hyphen U p
Ligature2: "'liga' Standard Ligatures in Latin lookup 0 per glyph data 46" A r r o w hyphen u p
Ligature2: "'liga' Standard Ligatures in Latin lookup 0 per glyph data 46" A R R O W hyphen U P
EndChar

StartChar: arrow-down
Encoding: 61539 61539 146
Width: 448
GlyphClass: 3
Flags: W
LayerCount: 2
Fore
SplineSet
413.099609375 225.5 m 2
 435.299804688 203.299804688 l 2
 444.700195312 193.900390625 444.700195312 178.700195312 435.299804688 169.400390625 c 2
 241 -25 l 2
 231.599609375 -34.400390625 216.400390625 -34.400390625 207.099609375 -25 c 2
 12.7001953125 169.400390625 l 2
 3.2998046875 178.799804688 3.2998046875 194 12.7001953125 203.299804688 c 2
 34.900390625 225.5 l 2
 44.400390625 235 59.900390625 234.799804688 69.2001953125 225.099609375 c 2
 184 104.599609375 l 1
 184 392 l 2
 184 405.299804688 194.700195312 416 208 416 c 2
 240 416 l 2
 253.299804688 416 264 405.299804688 264 392 c 2
 264 104.599609375 l 1
 378.799804688 225.099609375 l 2
 388.099609375 234.900390625 403.599609375 235.099609375 413.099609375 225.5 c 2
EndSplineSet
Validated: 524833
Ligature2: "'liga' Standard Ligatures in Latin lookup 0 per glyph data 39" a r r o w hyphen d o w n
Ligature2: "'liga' Standard Ligatures in Latin lookup 0 per glyph data 39" A r r o w hyphen D o w n
Ligature2: "'liga' Standard Ligatures in Latin lookup 0 per glyph data 39" A r r o w hyphen d o w n
Ligature2: "'liga' Standard Ligatures in Latin lookup 0 per glyph data 39" A R R O W hyphen D O W N
EndChar

StartChar: share
Encoding: 61540 61540 147
Width: 512
GlyphClass: 3
Flags: W
LayerCount: 2
Fore
SplineSet
503.69140625 258.1640625 m 2
 514.77734375 248.588867188 514.76171875 231.3984375 503.69140625 221.8359375 c 2
 327.686523438 69.8359375 l 2
 312.299804688 56.546875 288 67.2998046875 288 88 c 2
 288 175.915039062 l 1
 132.916992188 173.68359375 66.06640625 135.185546875 111.41015625 -9.8271484375 c 0
 116.444335938 -25.9248046875 96.986328125 -38.388671875 83.3330078125 -28.4580078125 c 0
 39.5810546875 3.365234375 0 64.2333984375 0 125.673828125 c 0
 0 277.900390625 127.37109375 310.092773438 288 311.931640625 c 1
 288 391.985351562 l 2
 288 412.653320312 312.28125 423.454101562 327.686523438 410.149414062 c 2
 503.69140625 258.1640625 l 2
EndSplineSet
Validated: 524321
Ligature2: "'liga' Standard Ligatures in Latin lookup 0 per glyph data 53" s h a r e
Ligature2: "'liga' Standard Ligatures in Latin lookup 0 per glyph data 53" S h a r e
Ligature2: "'liga' Standard Ligatures in Latin lookup 0 per glyph data 53" S H A R E
EndChar

StartChar: expand
Encoding: 61541 61541 148
Width: 448
GlyphClass: 3
Flags: W
LayerCount: 2
Fore
SplineSet
0 268 m 2
 0 392 l 2
 0 405.299804688 10.7001953125 416 24 416 c 2
 148 416 l 2
 154.599609375 416 160 410.599609375 160 404 c 2
 160 364 l 2
 160 357.400390625 154.599609375 352 148 352 c 2
 64 352 l 1
 64 268 l 2
 64 261.400390625 58.599609375 256 52 256 c 2
 12 256 l 2
 5.400390625 256 0 261.400390625 0 268 c 2
288 404 m 2
 288 410.599609375 293.400390625 416 300 416 c 2
 424 416 l 2
 437.299804688 416 448 405.299804688 448 392 c 2
 448 268 l 2
 448 261.400390625 442.599609375 256 436 256 c 2
 396 256 l 2
 389.400390625 256 384 261.400390625 384 268 c 2
 384 352 l 1
 300 352 l 2
 293.400390625 352 288 357.400390625 288 364 c 2
 288 404 l 2
436 128 m 2
 442.599609375 128 448 122.599609375 448 116 c 2
 448 -8 l 2
 448 -21.2998046875 437.299804688 -32 424 -32 c 2
 300 -32 l 2
 293.400390625 -32 288 -26.599609375 288 -20 c 2
 288 20 l 2
 288 26.599609375 293.400390625 32 300 32 c 2
 384 32 l 1
 384 116 l 2
 384 122.599609375 389.400390625 128 396 128 c 2
 436 128 l 2
160 -20 m 2
 160 -26.599609375 154.599609375 -32 148 -32 c 2
 24 -32 l 2
 10.7001953125 -32 0 -21.2998046875 0 -8 c 2
 0 116 l 2
 0 122.599609375 5.400390625 128 12 128 c 2
 52 128 l 2
 58.599609375 128 64 122.599609375 64 116 c 2
 64 32 l 1
 148 32 l 2
 154.599609375 32 160 26.599609375 160 20 c 2
 160 -20 l 2
EndSplineSet
Validated: 524289
Ligature2: "'liga' Standard Ligatures in Latin lookup 0 per glyph data 50" e x p a n d
Ligature2: "'liga' Standard Ligatures in Latin lookup 0 per glyph data 50" E x p a n d
Ligature2: "'liga' Standard Ligatures in Latin lookup 0 per glyph data 50" E X P A N D
EndChar

StartChar: compress
Encoding: 61542 61542 149
Width: 448
GlyphClass: 3
Flags: W
LayerCount: 2
Fore
SplineSet
436 256 m 2
 312 256 l 2
 298.700195312 256 288 266.700195312 288 280 c 2
 288 404 l 2
 288 410.599609375 293.400390625 416 300 416 c 2
 340 416 l 2
 346.599609375 416 352 410.599609375 352 404 c 2
 352 320 l 1
 436 320 l 2
 442.599609375 320 448 314.599609375 448 308 c 2
 448 268 l 2
 448 261.400390625 442.599609375 256 436 256 c 2
160 280 m 2
 160 266.700195312 149.299804688 256 136 256 c 2
 12 256 l 2
 5.400390625 256 0 261.400390625 0 268 c 2
 0 308 l 2
 0 314.599609375 5.400390625 320 12 320 c 2
 96 320 l 1
 96 404 l 2
 96 410.599609375 101.400390625 416 108 416 c 2
 148 416 l 2
 154.599609375 416 160 410.599609375 160 404 c 2
 160 280 l 2
160 -20 m 2
 160 -26.599609375 154.599609375 -32 148 -32 c 2
 108 -32 l 2
 101.400390625 -32 96 -26.599609375 96 -20 c 2
 96 64 l 1
 12 64 l 2
 5.400390625 64 0 69.400390625 0 76 c 2
 0 116 l 2
 0 122.599609375 5.400390625 128 12 128 c 2
 136 128 l 2
 149.299804688 128 160 117.299804688 160 104 c 2
 160 -20 l 2
352 -20 m 2
 352 -26.599609375 346.599609375 -32 340 -32 c 2
 300 -32 l 2
 293.400390625 -32 288 -26.599609375 288 -20 c 2
 288 104 l 2
 288 117.299804688 298.700195312 128 312 128 c 2
 436 128 l 2
 442.599609375 128 448 122.599609375 448 116 c 2
 448 76 l 2
 448 69.400390625 442.599609375 64 436 64 c 2
 352 64 l 1
 352 -20 l 2
EndSplineSet
Validated: 524289
Ligature2: "'liga' Standard Ligatures in Latin lookup 0 per glyph data 45" c o m p r e s s
Ligature2: "'liga' Standard Ligatures in Latin lookup 0 per glyph data 45" C o m p r e s s
Ligature2: "'liga' Standard Ligatures in Latin lookup 0 per glyph data 45" C O M P R E S S
EndChar

StartChar: plus
Encoding: 61543 61543 150
Width: 448
GlyphClass: 3
Flags: W
LayerCount: 2
Fore
SplineSet
416 240 m 2
 433.669921875 240 448 225.669921875 448 208 c 2
 448 176 l 2
 448 158.330078125 433.669921875 144 416 144 c 2
 272 144 l 1
 272 0 l 2
 272 -17.669921875 257.669921875 -32 240 -32 c 2
 208 -32 l 2
 190.330078125 -32 176 -17.669921875 176 0 c 2
 176 144 l 1
 32 144 l 2
 14.330078125 144 0 158.330078125 0 176 c 2
 0 208 l 2
 0 225.669921875 14.330078125 240 32 240 c 2
 176 240 l 1
 176 384 l 2
 176 401.669921875 190.330078125 416 208 416 c 2
 240 416 l 2
 257.669921875 416 272 401.669921875 272 384 c 2
 272 240 l 1
 416 240 l 2
EndSplineSet
Validated: 524289
Ligature2: "'liga' Standard Ligatures in Latin lookup 0 per glyph data 58" p l u s
Ligature2: "'liga' Standard Ligatures in Latin lookup 0 per glyph data 58" P l u s
Ligature2: "'liga' Standard Ligatures in Latin lookup 0 per glyph data 58" P L U S
EndChar

StartChar: minus
Encoding: 61544 61544 151
Width: 448
GlyphClass: 3
Flags: W
LayerCount: 2
Fore
SplineSet
416 240 m 2
 433.669921875 240 448 225.669921875 448 208 c 2
 448 176 l 2
 448 158.330078125 433.669921875 144 416 144 c 2
 32 144 l 2
 14.330078125 144 0 158.330078125 0 176 c 2
 0 208 l 2
 0 225.669921875 14.330078125 240 32 240 c 2
 416 240 l 2
EndSplineSet
Validated: 524289
Ligature2: "'liga' Standard Ligatures in Latin lookup 0 per glyph data 54" m i n u s
Ligature2: "'liga' Standard Ligatures in Latin lookup 0 per glyph data 54" M i n u s
Ligature2: "'liga' Standard Ligatures in Latin lookup 0 per glyph data 54" M I N U S
EndChar

StartChar: asterisk
Encoding: 61545 61545 152
Width: 512
GlyphClass: 3
Flags: W
LayerCount: 2
Fore
SplineSet
478.209960938 113.907226562 m 2
 490.004882812 107.4296875 494.169921875 92.5244140625 487.442382812 80.87109375 c 2
 467.961914062 47.1298828125 l 2
 461.234375 35.4765625 446.241210938 31.630859375 434.735351562 38.607421875 c 2
 296 122.717773438 l 1
 299.475585938 -39.486328125 l 2
 299.763671875 -52.939453125 288.936523438 -64 275.481445312 -64 c 2
 236.51953125 -64 l 2
 223.064453125 -64 212.237304688 -52.939453125 212.525390625 -39.486328125 c 2
 216 122.717773438 l 1
 77.2646484375 38.6064453125 l 2
 65.7587890625 31.6298828125 50.765625 35.4755859375 44.0380859375 47.12890625 c 2
 24.5576171875 80.8701171875 l 2
 17.8291015625 92.5234375 21.9951171875 107.4296875 33.7900390625 113.907226562 c 2
 176 192 l 1
 33.791015625 270.091796875 l 2
 21.99609375 276.569335938 17.830078125 291.475585938 24.5576171875 303.12890625 c 2
 44.0380859375 336.870117188 l 2
 50.765625 348.5234375 65.7587890625 352.369140625 77.2646484375 345.392578125 c 2
 216 261.282226562 l 1
 212.526367188 423.486328125 l 2
 212.237304688 436.939453125 223.064453125 448 236.51953125 448 c 2
 275.48046875 448 l 2
 288.936523438 448 299.762695312 436.939453125 299.474609375 423.486328125 c 2
 296 261.282226562 l 1
 434.735351562 345.393554688 l 2
 446.2421875 352.370117188 461.234375 348.524414062 467.961914062 336.87109375 c 2
 487.442382812 303.129882812 l 2
 494.170898438 291.4765625 490.004882812 276.5703125 478.209960938 270.092773438 c 2
 336 192 l 1
 478.209960938 113.907226562 l 2
EndSplineSet
Validated: 524321
Ligature2: "'liga' Standard Ligatures in Latin lookup 0 per glyph data 45" a s t e r i s k
Ligature2: "'liga' Standard Ligatures in Latin lookup 0 per glyph data 45" A s t e r i s k
Ligature2: "'liga' Standard Ligatures in Latin lookup 0 per glyph data 45" A S T E R I S K
EndChar

StartChar: exclamation-circle
Encoding: 61546 61546 153
Width: 512
GlyphClass: 3
Flags: W
LayerCount: 2
Fore
SplineSet
504 192 m 0
 504 55.0029296875 392.95703125 -56 256 -56 c 0
 119.04296875 -56 8 55.0029296875 8 192 c 0
 8 328.916992188 119.04296875 440 256 440 c 0
 392.95703125 440 504 328.916992188 504 192 c 0
256 142 m 0
 230.594726562 142 210 121.405273438 210 96 c 0
 210 70.5947265625 230.594726562 50 256 50 c 0
 281.405273438 50 302 70.5947265625 302 96 c 0
 302 121.405273438 281.405273438 142 256 142 c 0
212.327148438 307.345703125 m 2
 219.745117188 171.345703125 l 2
 220.091796875 164.982421875 225.353515625 160 231.7265625 160 c 2
 280.2734375 160 l 2
 286.646484375 160 291.908203125 164.982421875 292.254882812 171.345703125 c 2
 299.672851562 307.345703125 l 2
 300.047851562 314.219726562 294.575195312 320 287.69140625 320 c 2
 224.307617188 320 l 2
 217.423828125 320 211.952148438 314.219726562 212.327148438 307.345703125 c 2
EndSplineSet
Validated: 524833
Ligature2: "'liga' Standard Ligatures in Latin lookup 0 per glyph data 15" e x c l a m a t i o n hyphen c i r c l e
Ligature2: "'liga' Standard Ligatures in Latin lookup 0 per glyph data 15" E x c l a m a t i o n hyphen C i r c l e
Ligature2: "'liga' Standard Ligatures in Latin lookup 0 per glyph data 15" E x c l a m a t i o n hyphen c i r c l e
Ligature2: "'liga' Standard Ligatures in Latin lookup 0 per glyph data 15" E X C L A M A T I O N hyphen C I R C L E
EndChar

StartChar: gift
Encoding: 61547 61547 154
Width: 512
GlyphClass: 3
Flags: W
LayerCount: 2
Fore
SplineSet
32 0 m 2
 32 128 l 1
 224 128 l 1
 224 -32 l 1
 64 -32 l 2
 46.2998046875 -32 32 -17.7001953125 32 0 c 2
288 -32 m 1
 288 128 l 1
 480 128 l 1
 480 0 l 2
 480 -17.7001953125 465.700195312 -32 448 -32 c 2
 288 -32 l 1
480 288 m 2
 497.700195312 288 512 273.700195312 512 256 c 2
 512 176 l 2
 512 167.200195312 504.799804688 160 496 160 c 2
 16 160 l 2
 7.2001953125 160 0 167.200195312 0 176 c 2
 0 256 l 2
 0 273.700195312 14.2998046875 288 32 288 c 2
 76.099609375 288 l 1
 69.7998046875 300.099609375 66 313.5 66 328 c 0
 66 376.5 105.5 416 154 416 c 0
 195.599609375 416 222.5 394.700195312 257 347.700195312 c 1
 291.5 394.700195312 318.400390625 416 360 416 c 0
 408.5 416 448 376.5 448 328 c 0
 448 313.5 444.099609375 300.099609375 437.900390625 288 c 1
 480 288 l 2
153.900390625 288 m 2
 240 288 l 1
 188.5 364.700195312 173.799804688 368 153.900390625 368 c 0
 131.799804688 368 113.900390625 350.099609375 113.900390625 328 c 0
 113.900390625 305.900390625 131.799804688 288 153.900390625 288 c 2
360 288 m 2
 382.099609375 288 400 305.900390625 400 328 c 0
 400 350.099609375 382.099609375 368 360 368 c 0
 339.599609375 368 325.299804688 364.5 273.900390625 288 c 1
 360 288 l 2
EndSplineSet
Validated: 524289
Ligature2: "'liga' Standard Ligatures in Latin lookup 0 per glyph data 58" g i f t
Ligature2: "'liga' Standard Ligatures in Latin lookup 0 per glyph data 58" G i f t
Ligature2: "'liga' Standard Ligatures in Latin lookup 0 per glyph data 58" G I F T
EndChar

StartChar: leaf
Encoding: 61548 61548 155
Width: 576
GlyphClass: 3
Flags: W
LayerCount: 2
Fore
SplineSet
546.200195312 438.299804688 m 0
 565.200195312 395.900390625 576 343.900390625 576 293.700195312 c 0
 576 121.299804688 465.5 -19.5 308.5 -30.900390625 c 0
 227.599609375 -39.5 166 2.400390625 133.599609375 46.2998046875 c 1
 82.599609375 3.599609375 63.2001953125 -40.7001953125 61.7001953125 -44.2998046875 c 0
 54.900390625 -60.5 36.2998046875 -68.400390625 19.900390625 -61.599609375 c 0
 3.599609375 -54.900390625 -4.2001953125 -36.2998046875 2.400390625 -20 c 0
 26 37.900390625 132.599609375 192 384 192 c 0
 392.799804688 192 400 199.200195312 400 208 c 0
 400 216.799804688 392.799804688 224 384 224 c 0
 253.400390625 224 161.299804688 185.200195312 97.5 139.5 c 1
 96.7998046875 146.299804688 96 153 96 160 c 0
 96 266 182 352 288 352 c 2
 368 352 l 2
 431.400390625 352 486.900390625 385.599609375 517.900390625 439.5 c 0
 524.599609375 451.299804688 540.599609375 450.799804688 546.200195312 438.299804688 c 0
EndSplineSet
Validated: 524321
Ligature2: "'liga' Standard Ligatures in Latin lookup 0 per glyph data 58" l e a f
Ligature2: "'liga' Standard Ligatures in Latin lookup 0 per glyph data 58" L E A F
Ligature2: "'liga' Standard Ligatures in Latin lookup 0 per glyph data 58" L e a f
EndChar

StartChar: fire
Encoding: 61549 61549 156
Width: 384
GlyphClass: 3
Flags: W
LayerCount: 2
Fore
SplineSet
216 424.139648438 m 0
 216 321 384 298.290039062 384 128 c 0
 384 22.1298828125 297.870117188 -64 192 -64 c 0
 86.1298828125 -64 0 22.1298828125 0 128 c 0
 0 186.669921875 27.7998046875 234.83984375 54.5703125 262.959960938 c 0
 69.5302734375 278.690429688 96 268.16015625 96 246.459960938 c 2
 96 160.950195312 l 2
 96 125.780273438 123.98046875 96.4599609375 159.150390625 96.009765625 c 0
 194.889648438 95.5400390625 224 124.370117188 224 160 c 0
 224 248 48 256.150390625 171.849609375 437.1796875 c 0
 185.349609375 456.91015625 216 447.940429688 216 424.139648438 c 0
EndSplineSet
Validated: 524321
Ligature2: "'liga' Standard Ligatures in Latin lookup 0 per glyph data 56" f i r e
Ligature2: "'liga' Standard Ligatures in Latin lookup 0 per glyph data 56" F i r e
Ligature2: "'liga' Standard Ligatures in Latin lookup 0 per glyph data 56" F I R E
EndChar

StartChar: eye
Encoding: 61550 61550 157
Width: 576
GlyphClass: 3
Flags: W
LayerCount: 2
Fore
SplineSet
572.51953125 206.599609375 m 0
 574.440429688 202.80078125 575.999023438 196.26171875 575.999023438 192.004882812 c 0
 575.999023438 187.748046875 574.440429688 181.208984375 572.51953125 177.41015625 c 0
 518.3203125 71.6396484375 410.9296875 0 288 0 c 0
 165.0703125 0 57.7099609375 71.58984375 3.48046875 177.400390625 c 0
 1.5595703125 181.19921875 0.0009765625 187.73828125 0.0009765625 191.995117188 c 0
 0.0009765625 196.251953125 1.5595703125 202.791015625 3.48046875 206.58984375 c 0
 57.6796875 312.360351562 165.0703125 384 288 384 c 0
 410.9296875 384 518.290039062 312.41015625 572.51953125 206.599609375 c 0
288 48 m 2
 288.0703125 48 l 2
 367.51953125 48 432 112.48046875 432 191.9296875 c 2
 432 192 l 2
 432 271.48828125 367.48828125 336 288 336 c 0
 208.51171875 336 144 271.48828125 144 192 c 0
 144 112.51171875 208.51171875 48 288 48 c 2
288 288 m 2
 288.225585938 288 l 2
 341.095703125 288 384.005859375 245.090820312 384.005859375 192.220703125 c 0
 384.005859375 139.349609375 341.095703125 96.4404296875 288.225585938 96.4404296875 c 0
 235.354492188 96.4404296875 192.4453125 139.349609375 192.4453125 192.220703125 c 0
 192.4453125 199.268554688 193.943359375 210.5078125 195.790039062 217.309570312 c 1
 202.7734375 212.170898438 215.479492188 208 224.150390625 208 c 0
 250.563476562 208 272 229.436523438 272 255.849609375 c 0
 272 264.520507812 267.829101562 277.2265625 262.690429688 284.209960938 c 1
 269.534179688 286.202148438 280.873046875 287.900390625 288 288 c 2
EndSplineSet
Validated: 524289
Ligature2: "'liga' Standard Ligatures in Latin lookup 0 per glyph data 60" e y e
Ligature2: "'liga' Standard Ligatures in Latin lookup 0 per glyph data 60" E y e
Ligature2: "'liga' Standard Ligatures in Latin lookup 0 per glyph data 60" E Y E
EndChar

StartChar: eye-slash
Encoding: 61552 61552 158
Width: 640
GlyphClass: 3
Flags: W
LayerCount: 2
Fore
SplineSet
320 48 m 0
 327.241210938 48.0673828125 338.889648438 49.236328125 346 50.6103515625 c 1
 397.889648438 10.4599609375 l 1
 372.870117188 4 346.91015625 0 320 0 c 0
 197.0703125 0 89.7099609375 71.58984375 35.48046875 177.400390625 c 0
 33.5595703125 181.19921875 32.0009765625 187.73828125 32.0009765625 191.995117188 c 0
 32.0009765625 196.251953125 33.5595703125 202.791015625 35.48046875 206.58984375 c 0
 45.7197265625 226.58984375 58.41015625 244.879882812 72.2001953125 262.1796875 c 1
 177.099609375 181.110351562 l 1
 182.75 106.709960938 244.150390625 48 320 48 c 0
633.8203125 -10.099609375 m 2
 637.233398438 -12.751953125 640.00390625 -18.412109375 640.00390625 -22.7353515625 c 0
 640.00390625 -25.7626953125 638.497070312 -30.1591796875 636.639648438 -32.5498046875 c 2
 617 -57.8203125 l 2
 614.34765625 -61.232421875 608.688476562 -64.0029296875 604.366210938 -64.0029296875 c 0
 601.334960938 -64.0029296875 596.932617188 -62.4912109375 594.540039062 -60.6298828125 c 2
 6.1796875 394.099609375 l 2
 2.76953125 396.751953125 0.001953125 402.41015625 0.001953125 406.73046875 c 0
 0.001953125 409.759765625 1.5107421875 414.158203125 3.3701171875 416.549804688 c 2
 23 441.8203125 l 2
 25.65234375 445.232421875 31.3115234375 448.002929688 35.6337890625 448.002929688 c 0
 38.6650390625 448.002929688 43.0673828125 446.491210938 45.4599609375 444.629882812 c 2
 172.6796875 346.299804688 l 1
 210.69140625 367.057617188 276.690429688 383.947265625 320 384 c 0
 442.9296875 384 550.290039062 312.41015625 604.51953125 206.599609375 c 0
 606.440429688 202.80078125 607.999023438 196.26171875 607.999023438 192.004882812 c 0
 607.999023438 187.748046875 606.440429688 181.208984375 604.51953125 177.41015625 c 0
 587.752929688 144.734375 551.353515625 99.0068359375 523.26953125 75.33984375 c 1
 633.8203125 -10.099609375 l 2
450.099609375 131.900390625 m 1
 458.709960938 150.220703125 464 170.370117188 464 192 c 2
 464 192.080078125 l 2
 464 271.5234375 399.5234375 336 320.080078125 336 c 2
 320 336 l 2
 291.530273438 335.978515625 250.6953125 321.145507812 228.849609375 302.889648438 c 1
 302.459960938 246 l 2
 303.186523438 248.713867188 303.875976562 253.193359375 304 256 c 0
 303.984375 264.62890625 299.813476562 277.266601562 294.690429688 284.209960938 c 1
 301.870117188 286.306640625 313.768554688 288.0078125 321.248046875 288.0078125 c 0
 373.555664062 288.0078125 416.0078125 245.555664062 416.0078125 193.248046875 c 0
 416.0078125 192.903320312 416.004882812 192.344726562 416 192 c 0
 415.887695312 183.565429688 413.557617188 170.250976562 410.799804688 162.280273438 c 1
 450.099609375 131.900390625 l 1
EndSplineSet
Validated: 524801
Ligature2: "'liga' Standard Ligatures in Latin lookup 0 per glyph data 43" e y e hyphen s l a s h
Ligature2: "'liga' Standard Ligatures in Latin lookup 0 per glyph data 43" E y e hyphen S l a s h
Ligature2: "'liga' Standard Ligatures in Latin lookup 0 per glyph data 43" E y e hyphen s l a s h
Ligature2: "'liga' Standard Ligatures in Latin lookup 0 per glyph data 43" E Y E hyphen S L A S H
EndChar

StartChar: exclamation-triangle
Encoding: 61553 61553 159
Width: 576
GlyphClass: 3
Flags: W
LayerCount: 2
Fore
SplineSet
569.516601562 7.9873046875 m 2
 587.974609375 -24.0068359375 564.805664062 -64 527.940429688 -64 c 2
 48.0537109375 -64 l 2
 11.1171875 -64 -11.9453125 -23.9453125 6.4765625 7.9873046875 c 2
 246.422851562 424.014648438 l 2
 264.889648438 456.024414062 311.142578125 455.965820312 329.577148438 424.014648438 c 2
 569.516601562 7.9873046875 l 2
288 94 m 0
 262.594726562 94 242 73.4052734375 242 48 c 0
 242 22.5947265625 262.594726562 2 288 2 c 0
 313.405273438 2 334 22.5947265625 334 48 c 0
 334 73.4052734375 313.405273438 94 288 94 c 0
244.327148438 259.345703125 m 2
 251.745117188 123.345703125 l 2
 252.091796875 116.982421875 257.353515625 112 263.7265625 112 c 2
 312.2734375 112 l 2
 318.646484375 112 323.908203125 116.982421875 324.254882812 123.345703125 c 2
 331.672851562 259.345703125 l 2
 332.047851562 266.219726562 326.575195312 272 319.69140625 272 c 2
 256.307617188 272 l 2
 249.423828125 272 243.952148438 266.219726562 244.327148438 259.345703125 c 2
EndSplineSet
Validated: 524833
Ligature2: "'liga' Standard Ligatures in Latin lookup 0 per glyph data 9" e x c l a m a t i o n hyphen t r i a n g l e
Ligature2: "'liga' Standard Ligatures in Latin lookup 0 per glyph data 9" E x c l a m a t i o n hyphen T r i a n g l e
Ligature2: "'liga' Standard Ligatures in Latin lookup 0 per glyph data 9" E x c l a m a t i o n hyphen t r i a n g l e
Ligature2: "'liga' Standard Ligatures in Latin lookup 0 per glyph data 9" E X C L A M A T I O N hyphen T R I A N G L E
EndChar

StartChar: plane
Encoding: 61554 61554 160
Width: 576
GlyphClass: 3
Flags: W
LayerCount: 2
Fore
SplineSet
480 256 m 2
 515.349609375 256 576 227.349609375 576 192 c 0
 576 156.650390625 515.349609375 128 480 128 c 2
 365.709960938 128 l 1
 260.599609375 -55.9404296875 l 2
 257.75 -60.919921875 252.450195312 -64 246.709960938 -64 c 2
 181.209960938 -64 l 2
 170.580078125 -64 162.91015625 -53.8203125 165.830078125 -43.599609375 c 2
 214.860351562 128 l 1
 112 128 l 1
 68.7998046875 70.400390625 l 2
 65.7802734375 66.3701171875 61.0400390625 64 56 64 c 2
 16.009765625 64 l 2
 5.599609375 64 -2.0400390625 73.7802734375 0.490234375 83.8798828125 c 2
 32 192 l 1
 0.490234375 300.120117188 l 2
 -2.0400390625 310.219726562 5.599609375 320 16.009765625 320 c 2
 56 320 l 2
 61.0302734375 320 65.7802734375 317.629882812 68.7998046875 313.599609375 c 2
 112 256 l 1
 214.860351562 256 l 1
 165.830078125 427.610351562 l 2
 162.91015625 437.830078125 170.580078125 448 181.209960938 448 c 2
 246.709960938 448 l 1
 246.7109375 448 l 2
 251.836914062 448 258.063476562 444.388671875 260.610351562 439.940429688 c 2
 365.709960938 256 l 1
 480 256 l 2
EndSplineSet
Validated: 524321
Ligature2: "'liga' Standard Ligatures in Latin lookup 0 per glyph data 53" p l a n e
Ligature2: "'liga' Standard Ligatures in Latin lookup 0 per glyph data 53" P l a n e
Ligature2: "'liga' Standard Ligatures in Latin lookup 0 per glyph data 53" P L A N E
EndChar

StartChar: calendar-alt
Encoding: 61555 61555 161
Width: 448
GlyphClass: 3
Flags: W
LayerCount: 2
Fore
SplineSet
0 -16 m 2
 0 256 l 1
 448 256 l 1
 448 -16 l 2
 448 -42.5 426.5 -64 400 -64 c 2
 48 -64 l 2
 21.5 -64 0 -42.5 0 -16 c 2
320 180 m 2
 320 140 l 2
 320 133.400390625 325.400390625 128 332 128 c 2
 372 128 l 2
 378.599609375 128 384 133.400390625 384 140 c 2
 384 180 l 2
 384 186.599609375 378.599609375 192 372 192 c 2
 332 192 l 2
 325.400390625 192 320 186.599609375 320 180 c 2
320 52 m 2
 320 12 l 2
 320 5.400390625 325.400390625 0 332 0 c 2
 372 0 l 2
 378.599609375 0 384 5.400390625 384 12 c 2
 384 52 l 2
 384 58.599609375 378.599609375 64 372 64 c 2
 332 64 l 2
 325.400390625 64 320 58.599609375 320 52 c 2
192 180 m 2
 192 140 l 2
 192 133.400390625 197.400390625 128 204 128 c 2
 244 128 l 2
 250.599609375 128 256 133.400390625 256 140 c 2
 256 180 l 2
 256 186.599609375 250.599609375 192 244 192 c 2
 204 192 l 2
 197.400390625 192 192 186.599609375 192 180 c 2
192 52 m 2
 192 12 l 2
 192 5.400390625 197.400390625 0 204 0 c 2
 244 0 l 2
 250.599609375 0 256 5.400390625 256 12 c 2
 256 52 l 2
 256 58.599609375 250.599609375 64 244 64 c 2
 204 64 l 2
 197.400390625 64 192 58.599609375 192 52 c 2
64 180 m 2
 64 140 l 2
 64 133.400390625 69.400390625 128 76 128 c 2
 116 128 l 2
 122.599609375 128 128 133.400390625 128 140 c 2
 128 180 l 2
 128 186.599609375 122.599609375 192 116 192 c 2
 76 192 l 2
 69.400390625 192 64 186.599609375 64 180 c 2
64 52 m 2
 64 12 l 2
 64 5.400390625 69.400390625 0 76 0 c 2
 116 0 l 2
 122.599609375 0 128 5.400390625 128 12 c 2
 128 52 l 2
 128 58.599609375 122.599609375 64 116 64 c 2
 76 64 l 2
 69.400390625 64 64 58.599609375 64 52 c 2
400 384 m 2
 426.5 384 448 362.5 448 336 c 2
 448 288 l 1
 0 288 l 1
 0 336 l 2
 0 362.5 21.5 384 48 384 c 2
 96 384 l 1
 96 432 l 2
 96 440.799804688 103.200195312 448 112 448 c 2
 144 448 l 2
 152.799804688 448 160 440.799804688 160 432 c 2
 160 384 l 1
 288 384 l 1
 288 432 l 2
 288 440.799804688 295.200195312 448 304 448 c 2
 336 448 l 2
 344.799804688 448 352 440.799804688 352 432 c 2
 352 384 l 1
 400 384 l 2
EndSplineSet
Validated: 524801
Ligature2: "'liga' Standard Ligatures in Latin lookup 0 per glyph data 34" c a l e n d a r hyphen a l t
Ligature2: "'liga' Standard Ligatures in Latin lookup 0 per glyph data 34" C a l e n d a r hyphen A l t
Ligature2: "'liga' Standard Ligatures in Latin lookup 0 per glyph data 34" C a l e n d a r hyphen a l t
Ligature2: "'liga' Standard Ligatures in Latin lookup 0 per glyph data 34" C A L E N D A R hyphen A L T
EndChar

StartChar: random
Encoding: 61556 61556 162
Width: 512
GlyphClass: 3
Flags: W
LayerCount: 2
Fore
SplineSet
504.970703125 88.970703125 m 2
 514.34375 79.59765625 514.34375 64.40234375 504.970703125 55.0302734375 c 2
 424.970703125 -24.9541015625 l 2
 409.9609375 -39.9638671875 384 -29.4443359375 384 -7.9833984375 c 2
 384 32 l 1
 325.21484375 32 l 2
 322.336914062 32 318.40625 33.7080078125 316.442382812 35.8115234375 c 2
 245.885742188 111.408203125 l 1
 299.21875 168.55078125 l 1
 352 112 l 1
 384 112 l 1
 384 151.981445312 l 2
 384 173.418945312 409.943359375 183.978515625 424.970703125 168.952148438 c 2
 504.970703125 88.970703125 l 2
12 272 m 2
 5.373046875 272 0 277.373046875 0 284 c 2
 0 340 l 2
 0 346.626953125 5.373046875 352 12 352 c 2
 122.78515625 352 l 1
 122.786132812 352 l 2
 125.6640625 352 129.59375 350.291992188 131.557617188 348.188476562 c 2
 202.114257812 272.591796875 l 1
 148.78125 215.44921875 l 1
 96 272 l 1
 12 272 l 2
384 272 m 1
 352 272 l 1
 131.557617188 35.8115234375 l 2
 129.288085938 33.380859375 126.111328125 32 122.78515625 32 c 2
 12 32 l 2
 5.373046875 32 0 37.373046875 0 44 c 2
 0 100 l 2
 0 106.626953125 5.373046875 112 12 112 c 2
 96 112 l 1
 316.442382812 348.188476562 l 2
 318.40625 350.291992188 322.336914062 352 325.21484375 352 c 2
 384 352 l 1
 384 391.981445312 l 2
 384 413.41796875 409.943359375 423.978515625 424.970703125 408.951171875 c 2
 504.970703125 328.969726562 l 2
 514.34375 319.59765625 514.34375 304.40234375 504.970703125 295.029296875 c 2
 424.970703125 215.044921875 l 2
 409.9609375 200.036132812 384 210.555664062 384 232.015625 c 2
 384 272 l 1
EndSplineSet
Validated: 524321
Ligature2: "'liga' Standard Ligatures in Latin lookup 0 per glyph data 52" r a n d o m
Ligature2: "'liga' Standard Ligatures in Latin lookup 0 per glyph data 52" R a n d o m
Ligature2: "'liga' Standard Ligatures in Latin lookup 0 per glyph data 52" R A N D O M
EndChar

StartChar: comment
Encoding: 61557 61557 163
Width: 512
GlyphClass: 3
Flags: W
LayerCount: 2
Fore
SplineSet
256 416 m 0
 397.400390625 416 512 322.900390625 512 208 c 0
 512 93.099609375 397.400390625 0 256 0 c 0
 217.599609375 0 181.299804688 7.099609375 148.599609375 19.400390625 c 1
 124 -0.2001953125 74.2998046875 -32 8 -32 c 0
 4.7998046875 -32 2 -30.2001953125 0.7001953125 -27.2001953125 c 0
 -0.599609375 -24.2001953125 0 -20.7998046875 2.2001953125 -18.5 c 0
 2.7001953125 -18 44.5 26.900390625 57 77.2998046875 c 1
 21.400390625 113 0 158.400390625 0 208 c 0
 0 322.900390625 114.599609375 416 256 416 c 0
EndSplineSet
Validated: 524289
Ligature2: "'liga' Standard Ligatures in Latin lookup 0 per glyph data 49" c o m m e n t
Ligature2: "'liga' Standard Ligatures in Latin lookup 0 per glyph data 49" C o m m e n t
Ligature2: "'liga' Standard Ligatures in Latin lookup 0 per glyph data 49" C O M M E N T
EndChar

StartChar: magnet
Encoding: 61558 61558 164
Width: 512
GlyphClass: 3
Flags: W
LayerCount: 2
Fore
SplineSet
164.0703125 299.900390625 m 1
 12 299.900390625 l 2
 5.3759765625 299.900390625 0 305.276367188 0 311.900390625 c 2
 0 391.900390625 l 2
 0 411.772460938 16.1279296875 427.900390625 36 427.900390625 c 2
 140 427.900390625 l 2
 159.872070312 427.900390625 176 411.772460938 176 391.900390625 c 2
 176 311.900390625 l 2
 176 311.869140625 176.000976562 311.8203125 176.000976562 311.790039062 c 0
 176.000976562 305.2265625 170.673828125 299.900390625 164.110351562 299.900390625 c 2
 164.0703125 299.900390625 l 1
512 311.900390625 m 2
 512 305.336914062 506.672851562 299.999023438 500.110351562 299.999023438 c 0
 500.080078125 299.999023438 500.030273438 300 500 300 c 2
 348 300 l 2
 341.375976562 300 336 305.375976562 336 312 c 2
 336 392 l 2
 336 411.872070312 352.127929688 428 372 428 c 2
 476 428 l 2
 495.872070312 428 512 411.872070312 512 392 c 2
 512 311.900390625 l 2
348 267.900390625 m 2
 499.849609375 267.900390625 l 1
 499.850585938 267.900390625 l 2
 506.474609375 267.900390625 511.850585938 262.524414062 511.850585938 255.900390625 c 0
 511.850585938 255.872070312 511.850585938 255.827148438 511.849609375 255.799804688 c 0
 511.650390625 235.599609375 511.25 215.400390625 511.849609375 202.599609375 c 0
 511.849609375 51.900390625 377.4296875 -44.099609375 256.849609375 -44.099609375 c 0
 136.26953125 -44.099609375 0.099609375 51.900390625 0.099609375 202.5 c 0
 0.7001953125 215.5 0.2001953125 234.400390625 0.099609375 255.799804688 c 2
 0.099609375 255.900390625 l 2
 0.099609375 262.524414062 5.4755859375 267.900390625 12.099609375 267.900390625 c 1
 12.099609375 267.900390625 l 1
 164 267.900390625 l 2
 170.624023438 267.900390625 176 262.524414062 176 255.900390625 c 2
 176 203.900390625 l 2
 176 76 336 75.7998046875 336 203.900390625 c 2
 336 255.900390625 l 2
 336 262.524414062 341.375976562 267.900390625 348 267.900390625 c 2
EndSplineSet
Validated: 524325
Ligature2: "'liga' Standard Ligatures in Latin lookup 0 per glyph data 50" m a g n e t
Ligature2: "'liga' Standard Ligatures in Latin lookup 0 per glyph data 50" M A G N E T
Ligature2: "'liga' Standard Ligatures in Latin lookup 0 per glyph data 50" M a g n e t
EndChar

StartChar: chevron-up
Encoding: 61559 61559 165
Width: 448
GlyphClass: 3
Flags: W
LayerCount: 2
Fore
SplineSet
240.970703125 317.475585938 m 2
 435.314453125 123.1328125 l 2
 444.686523438 113.759765625 444.686523438 98.564453125 435.314453125 89.1923828125 c 2
 412.647460938 66.525390625 l 2
 403.290039062 57.16796875 388.125 57.150390625 378.74609375 66.4853515625 c 2
 224 220.504882812 l 1
 69.2548828125 66.484375 l 2
 59.8759765625 57.1494140625 44.7109375 57.1669921875 35.353515625 66.5244140625 c 2
 12.6865234375 89.19140625 l 2
 3.314453125 98.564453125 3.314453125 113.759765625 12.6865234375 123.131835938 c 2
 207.030273438 317.474609375 l 2
 216.40234375 326.84765625 231.59765625 326.84765625 240.970703125 317.475585938 c 2
EndSplineSet
Validated: 524833
Ligature2: "'liga' Standard Ligatures in Latin lookup 0 per glyph data 39" c h e v r o n hyphen u p
Ligature2: "'liga' Standard Ligatures in Latin lookup 0 per glyph data 39" C h e v r o n hyphen U p
Ligature2: "'liga' Standard Ligatures in Latin lookup 0 per glyph data 39" C h e v r o n hyphen u p
Ligature2: "'liga' Standard Ligatures in Latin lookup 0 per glyph data 39" C H E V R O N hyphen U P
EndChar

StartChar: chevron-down
Encoding: 61560 61560 166
Width: 448
GlyphClass: 3
Flags: W
LayerCount: 2
Fore
SplineSet
207.029296875 66.5244140625 m 2
 12.685546875 260.868164062 l 2
 3.3134765625 270.241210938 3.3134765625 285.436523438 12.685546875 294.80859375 c 2
 35.3525390625 317.475585938 l 2
 44.7099609375 326.833007812 59.875 326.850585938 69.25390625 317.515625 c 2
 224 163.495117188 l 1
 378.745117188 317.515625 l 2
 388.124023438 326.850585938 403.2890625 326.833007812 412.646484375 317.475585938 c 2
 435.313476562 294.80859375 l 2
 444.685546875 285.435546875 444.685546875 270.240234375 435.313476562 260.868164062 c 2
 240.970703125 66.5244140625 l 2
 231.59765625 57.15234375 216.40234375 57.15234375 207.029296875 66.5244140625 c 2
EndSplineSet
Validated: 524833
Ligature2: "'liga' Standard Ligatures in Latin lookup 0 per glyph data 32" c h e v r o n hyphen d o w n
Ligature2: "'liga' Standard Ligatures in Latin lookup 0 per glyph data 32" C h e v r o n hyphen D o w n
Ligature2: "'liga' Standard Ligatures in Latin lookup 0 per glyph data 32" C h e v r o n hyphen d o w n
Ligature2: "'liga' Standard Ligatures in Latin lookup 0 per glyph data 32" C H E V R O N hyphen D O W N
EndChar

StartChar: retweet
Encoding: 61561 61561 167
Width: 640
GlyphClass: 3
Flags: W
LayerCount: 2
Fore
SplineSet
629.657226562 104.40234375 m 2
 528.970703125 3.7158203125 l 2
 519.59765625 -5.65625 504.403320312 -5.65625 495.030273438 3.7158203125 c 2
 394.342773438 104.40234375 l 2
 384.969726562 113.775390625 384.969726562 128.970703125 394.342773438 138.342773438 c 2
 405.166015625 149.166015625 l 2
 414.727539062 158.727539062 430.298828125 158.505859375 439.584960938 148.673828125 c 2
 480 105.881835938 l 1
 480 288 l 1
 292.451171875 288 l 2
 286.963867188 288 279.360351562 291.149414062 275.48046875 295.029296875 c 2
 259.48046875 311.029296875 l 2
 244.361328125 326.149414062 255.069335938 352 276.451171875 352 c 2
 520 352 l 2
 533.254882812 352 544 341.254882812 544 328 c 2
 544 105.881835938 l 1
 584.416015625 148.673828125 l 2
 593.701171875 158.504882812 609.272460938 158.727539062 618.834960938 149.166015625 c 2
 629.658203125 138.342773438 l 2
 639.030273438 128.970703125 639.030273438 113.774414062 629.657226562 104.40234375 c 2
364.518554688 88.970703125 m 2
 380.51953125 72.970703125 l 2
 395.638671875 57.8505859375 384.930664062 32 363.548828125 32 c 2
 120 32 l 2
 106.745117188 32 96 42.7451171875 96 56 c 2
 96 278.119140625 l 1
 55.583984375 235.326171875 l 2
 46.2978515625 225.495117188 30.7265625 225.2734375 21.1650390625 234.834960938 c 2
 10.3427734375 245.657226562 l 2
 0.9697265625 255.029296875 0.9697265625 270.224609375 10.3427734375 279.59765625 c 2
 111.030273438 380.284179688 l 2
 120.40234375 389.657226562 135.59765625 389.657226562 144.970703125 380.284179688 c 2
 245.657226562 279.598632812 l 2
 255.030273438 270.2265625 255.030273438 255.03125 245.657226562 245.658203125 c 2
 234.834960938 234.8359375 l 2
 225.272460938 225.2734375 209.702148438 225.49609375 200.416015625 235.327148438 c 2
 160 278.119140625 l 1
 160 96 l 1
 347.547851562 96 l 1
 347.548828125 96 l 2
 353.036132812 96 360.638671875 92.8505859375 364.518554688 88.970703125 c 2
EndSplineSet
Validated: 524321
Ligature2: "'liga' Standard Ligatures in Latin lookup 0 per glyph data 47" r e t w e e t
Ligature2: "'liga' Standard Ligatures in Latin lookup 0 per glyph data 47" R e t w e e t
Ligature2: "'liga' Standard Ligatures in Latin lookup 0 per glyph data 47" R E T W E E T
EndChar

StartChar: shopping-cart
Encoding: 61562 61562 168
Width: 576
GlyphClass: 3
Flags: W
LayerCount: 2
Fore
SplineSet
528.120117188 146.680664062 m 2
 525.63671875 135.75390625 515.922851562 128 504.716796875 128 c 2
 211.572265625 128 l 1
 218.1171875 96 l 1
 486.53515625 96 l 2
 501.935546875 96 513.350585938 81.69921875 509.938476562 66.6806640625 c 2
 504.420898438 42.4052734375 l 1
 523.112304688 33.33203125 536 14.171875 536 -8 c 0
 536 -38.927734375 510.927734375 -64 480 -64 c 0
 449.072265625 -64 424 -38.927734375 424 -8 c 0
 424 7.673828125 430.447265625 21.8349609375 440.823242188 32 c 1
 231.17578125 32 l 1
 241.552734375 21.8349609375 248 7.673828125 248 -8 c 0
 248 -38.927734375 222.927734375 -64 192 -64 c 0
 161.072265625 -64 136 -38.927734375 136 -8 c 0
 136 12.7783203125 147.325195312 30.900390625 164.130859375 40.5654296875 c 1
 93.8828125 384 l 1
 24 384 l 2
 10.7451171875 384 0 394.745117188 0 408 c 2
 0 424 l 2
 0 437.254882812 10.7451171875 448 24 448 c 2
 126.529296875 448 l 2
 137.9296875 448 147.7578125 439.978515625 150.041992188 428.809570312 c 2
 159.208007812 384 l 1
 551.990234375 384 l 2
 567.390625 384 578.805664062 369.69921875 575.392578125 354.680664062 c 2
 528.120117188 146.680664062 l 2
EndSplineSet
Validated: 524833
Ligature2: "'liga' Standard Ligatures in Latin lookup 0 per glyph data 29" s h o p p i n g hyphen c a r t
Ligature2: "'liga' Standard Ligatures in Latin lookup 0 per glyph data 29" S h o p p i n g hyphen C a r t
Ligature2: "'liga' Standard Ligatures in Latin lookup 0 per glyph data 29" S h o p p i n g hyphen c a r t
Ligature2: "'liga' Standard Ligatures in Latin lookup 0 per glyph data 29" S H O P P I N G hyphen C A R T
EndChar

StartChar: folder
Encoding: 61563 61563 169
Width: 512
GlyphClass: 3
Flags: W
LayerCount: 2
Fore
SplineSet
464 320 m 2
 490.509765625 320 512 298.509765625 512 272 c 2
 512 48 l 2
 512 21.490234375 490.509765625 0 464 0 c 2
 48 0 l 2
 21.490234375 0 0 21.490234375 0 48 c 2
 0 336 l 2
 0 362.509765625 21.490234375 384 48 384 c 2
 208 384 l 1
 272 320 l 1
 464 320 l 2
EndSplineSet
Validated: 524289
Ligature2: "'liga' Standard Ligatures in Latin lookup 0 per glyph data 52" f o l d e r
Ligature2: "'liga' Standard Ligatures in Latin lookup 0 per glyph data 52" F o l d e r
Ligature2: "'liga' Standard Ligatures in Latin lookup 0 per glyph data 52" F O L D E R
EndChar

StartChar: folder-open
Encoding: 61564 61564 170
Width: 576
GlyphClass: 3
Flags: W
LayerCount: 2
Fore
SplineSet
572.694335938 155.907226562 m 2
 500.26953125 31.751953125 l 2
 490.045898438 14.224609375 465.28125 0 444.990234375 0 c 2
 444.989257812 0 l 1
 45.025390625 0 l 2
 26.501953125 0 14.9609375 20.0927734375 24.2939453125 36.0927734375 c 2
 96.7177734375 160.248046875 l 2
 106.942382812 177.775390625 131.708007812 192 152 192 c 1
 152 192 l 1
 551.963867188 192 l 2
 570.487304688 192 582.028320312 171.907226562 572.694335938 155.907226562 c 2
152 224 m 2
 117.989257812 224 86.2138671875 205.75 69.0771484375 176.372070312 c 2
 0 57.9541015625 l 1
 0 336 l 2
 0 362.509765625 21.490234375 384 48 384 c 2
 208 384 l 1
 272 320 l 1
 432 320 l 2
 458.509765625 320 480 298.509765625 480 272 c 2
 480 224 l 1
 152 224 l 2
EndSplineSet
Validated: 524837
Ligature2: "'liga' Standard Ligatures in Latin lookup 0 per glyph data 36" f o l d e r hyphen o p e n
Ligature2: "'liga' Standard Ligatures in Latin lookup 0 per glyph data 36" F o l d e r hyphen O p e n
Ligature2: "'liga' Standard Ligatures in Latin lookup 0 per glyph data 36" F o l d e r hyphen o p e n
Ligature2: "'liga' Standard Ligatures in Latin lookup 0 per glyph data 36" F O L D E R hyphen O P E N
EndChar

StartChar: chart-bar
Encoding: 61568 61568 171
Width: 512
GlyphClass: 3
Flags: W
LayerCount: 2
Fore
SplineSet
332.799804688 128 m 2
 326.400390625 128 320 134.400390625 320 140.799804688 c 2
 320 275.200195312 l 2
 320 281.599609375 326.400390625 288 332.799804688 288 c 2
 371.200195312 288 l 2
 377.599609375 288 384 281.599609375 384 275.200195312 c 2
 384 140.799804688 l 2
 384 134.400390625 377.599609375 128 371.200195312 128 c 2
 332.799804688 128 l 2
428.799804688 128 m 2
 422.400390625 128 416 134.400390625 416 140.799804688 c 2
 416 371.200195312 l 2
 416 377.599609375 422.400390625 384 428.799804688 384 c 2
 467.200195312 384 l 2
 473.599609375 384 480 377.599609375 480 371.200195312 c 2
 480 140.799804688 l 2
 480 134.400390625 473.599609375 128 467.200195312 128 c 2
 428.799804688 128 l 2
140.799804688 128 m 2
 134.400390625 128 128 134.400390625 128 140.799804688 c 2
 128 211.200195312 l 2
 128 217.599609375 134.400390625 224 140.799804688 224 c 2
 179.200195312 224 l 2
 185.599609375 224 192 217.599609375 192 211.200195312 c 2
 192 140.799804688 l 2
 192 134.400390625 185.599609375 128 179.200195312 128 c 2
 140.799804688 128 l 2
236.799804688 128 m 2
 230.400390625 128 224 134.400390625 224 140.799804688 c 2
 224 339.200195312 l 2
 224 345.599609375 230.400390625 352 236.799804688 352 c 2
 275.200195312 352 l 2
 281.599609375 352 288 345.599609375 288 339.200195312 c 2
 288 140.799804688 l 2
 288 134.400390625 281.599609375 128 275.200195312 128 c 2
 236.799804688 128 l 2
496 64 m 2
 504.83984375 64 512 56.83984375 512 48 c 2
 512 16 l 2
 512 7.16015625 504.83984375 0 496 0 c 2
 32 0 l 2
 14.330078125 0 0 14.330078125 0 32 c 2
 0 368 l 2
 0 376.83984375 7.16015625 384 16 384 c 2
 48 384 l 2
 56.83984375 384 64 376.83984375 64 368 c 2
 64 64 l 1
 496 64 l 2
EndSplineSet
Validated: 524801
Ligature2: "'liga' Standard Ligatures in Latin lookup 0 per glyph data 42" c h a r t hyphen b a r
Ligature2: "'liga' Standard Ligatures in Latin lookup 0 per glyph data 42" C h a r t hyphen B a r
Ligature2: "'liga' Standard Ligatures in Latin lookup 0 per glyph data 42" C h a r t hyphen b a r
Ligature2: "'liga' Standard Ligatures in Latin lookup 0 per glyph data 42" C H A R T hyphen B A R
EndChar

StartChar: camera-retro
Encoding: 61571 61571 172
Width: 512
GlyphClass: 3
Flags: W
LayerCount: 2
Fore
SplineSet
48 416 m 2
 464 416 l 2
 490.5 416 512 394.5 512 368 c 2
 512 16 l 2
 512 -10.5 490.5 -32 464 -32 c 2
 48 -32 l 2
 21.5 -32 0 -10.5 0 16 c 2
 0 368 l 2
 0 394.5 21.5 416 48 416 c 2
48 384 m 2
 39.2001953125 384 32 376.799804688 32 368 c 2
 32 358 l 2
 32 354.700195312 34.7001953125 352 38 352 c 2
 154 352 l 2
 157.299804688 352 160 354.700195312 160 358 c 2
 160 378 l 2
 160 381.299804688 157.299804688 384 154 384 c 2
 48 384 l 2
474 288 m 2
 477.299804688 288 480 290.700195312 480 294 c 2
 480 368 l 2
 480 376.799804688 472.799804688 384 464 384 c 2
 211.200195312 384 l 2
 209.200195312 384 207.299804688 383 206.200195312 381.299804688 c 2
 176 336 l 1
 38 336 l 2
 34.7001953125 336 32 333.299804688 32 330 c 2
 32 294 l 2
 32 290.700195312 34.7001953125 288 38 288 c 2
 474 288 l 2
256 24 m 0
 322.200195312 24 376 77.7998046875 376 144 c 0
 376 210.200195312 322.200195312 264 256 264 c 0
 189.799804688 264 136 210.200195312 136 144 c 0
 136 77.7998046875 189.799804688 24 256 24 c 0
256 232 m 0
 304.5 232 344 192.5 344 144 c 0
 344 95.5 304.5 56 256 56 c 0
 207.5 56 168 95.5 168 144 c 0
 168 192.5 207.5 232 256 232 c 0
208 128 m 0
 216.799804688 128 224 135.200195312 224 144 c 0
 224 161.599609375 238.400390625 176 256 176 c 0
 264.799804688 176 272 183.200195312 272 192 c 0
 272 200.799804688 264.799804688 208 256 208 c 0
 220.700195312 208 192 179.299804688 192 144 c 0
 192 135.200195312 199.200195312 128 208 128 c 0
EndSplineSet
Validated: 524801
Ligature2: "'liga' Standard Ligatures in Latin lookup 0 per glyph data 32" c a m e r a hyphen r e t r o
Ligature2: "'liga' Standard Ligatures in Latin lookup 0 per glyph data 32" C a m e r a hyphen R e t r o
Ligature2: "'liga' Standard Ligatures in Latin lookup 0 per glyph data 32" C a m e r a hyphen r e t r o
Ligature2: "'liga' Standard Ligatures in Latin lookup 0 per glyph data 32" C A M E R A hyphen R E T R O
EndChar

StartChar: key
Encoding: 61572 61572 173
Width: 512
GlyphClass: 3
Flags: W
LayerCount: 2
Fore
SplineSet
512 271.999023438 m 0
 512 174.796875 433.202148438 96 336 96 c 0
 324.780273438 96 313.809570312 97.0615234375 303.172851562 99.0693359375 c 1
 279.161132812 72.0546875 l 2
 275.208984375 67.6083984375 267.172851562 64 261.223632812 64 c 2
 261.22265625 64 l 1
 224 64 l 1
 224 24 l 2
 224 10.7451171875 213.254882812 0 200 0 c 2
 160 0 l 1
 160 -40 l 2
 160 -53.2548828125 149.254882812 -64 136 -64 c 2
 24 -64 l 2
 10.7451171875 -64 0 -53.2548828125 0 -40 c 2
 0 38.05859375 l 2
 0 44.423828125 2.529296875 50.529296875 7.029296875 55.0302734375 c 2
 168.831054688 216.83203125 l 1
 163.108398438 234.185546875 160 252.728515625 160 272 c 0
 160 369.202148438 238.796875 447.999023438 335.999023438 448 c 0
 433.48828125 448.000976562 512 369.489257812 512 271.999023438 c 0
336 320 m 0
 336 293.490234375 357.490234375 272 384 272 c 0
 410.509765625 272 432 293.490234375 432 320 c 0
 432 346.509765625 410.509765625 368 384 368 c 0
 357.490234375 368 336 346.509765625 336 320 c 0
EndSplineSet
Validated: 524321
Ligature2: "'liga' Standard Ligatures in Latin lookup 0 per glyph data 59" k e y
Ligature2: "'liga' Standard Ligatures in Latin lookup 0 per glyph data 59" K E Y
Ligature2: "'liga' Standard Ligatures in Latin lookup 0 per glyph data 59" K e y
EndChar

StartChar: cogs
Encoding: 61573 61573 174
Width: 640
GlyphClass: 3
Flags: W
LayerCount: 2
Fore
SplineSet
512.099609375 257 m 1
 503.900390625 242.700195312 l 2
 500.900390625 237.400390625 494.5 235.200195312 488.799804688 237.299804688 c 0
 477 241.700195312 466.200195312 248 456.700195312 255.900390625 c 0
 452.099609375 259.700195312 450.900390625 266.400390625 453.900390625 271.599609375 c 2
 462.099609375 285.900390625 l 1
 455.200195312 293.900390625 449.799804688 303.200195312 446.200195312 313.299804688 c 1
 429.700195312 313.299804688 l 2
 423.700195312 313.299804688 418.5 317.599609375 417.5 323.599609375 c 0
 415.5 335.599609375 415.400390625 348.200195312 417.5 360.700195312 c 0
 418.5 366.700195312 423.700195312 371.099609375 429.700195312 371.099609375 c 2
 446.200195312 371.099609375 l 1
 449.799804688 381.200195312 455.200195312 390.5 462.099609375 398.5 c 1
 453.900390625 412.799804688 l 2
 450.900390625 418 452 424.700195312 456.700195312 428.5 c 0
 466.200195312 436.400390625 477.099609375 442.700195312 488.799804688 447.099609375 c 0
 494.5 449.200195312 500.900390625 447 503.900390625 441.700195312 c 2
 512.099609375 427.400390625 l 1
 522.599609375 429.299804688 533.299804688 429.299804688 543.799804688 427.400390625 c 1
 552 441.700195312 l 2
 555 447 561.400390625 449.200195312 567.099609375 447.099609375 c 0
 578.900390625 442.700195312 589.700195312 436.400390625 599.200195312 428.5 c 0
 603.799804688 424.700195312 605 418 602 412.799804688 c 2
 593.799804688 398.5 l 1
 600.700195312 390.5 606.099609375 381.200195312 609.700195312 371.099609375 c 1
 626.200195312 371.099609375 l 2
 632.200195312 371.099609375 637.400390625 366.799804688 638.400390625 360.799804688 c 0
 640.400390625 348.799804688 640.5 336.200195312 638.400390625 323.700195312 c 0
 637.400390625 317.700195312 632.200195312 313.299804688 626.200195312 313.299804688 c 2
 609.700195312 313.299804688 l 1
 606.099609375 303.200195312 600.700195312 293.900390625 593.799804688 285.900390625 c 1
 602 271.599609375 l 2
 605 266.400390625 603.900390625 259.700195312 599.200195312 255.900390625 c 0
 589.700195312 248 578.799804688 241.700195312 567.099609375 237.299804688 c 0
 561.400390625 235.200195312 555 237.400390625 552 242.700195312 c 2
 543.799804688 257 l 1
 533.400390625 255.099609375 522.599609375 255.099609375 512.099609375 257 c 1
501.599609375 315.799804688 m 1
 540.099609375 286.200195312 584 330.099609375 554.400390625 368.599609375 c 1
 515.900390625 398.299804688 472 354.299804688 501.599609375 315.799804688 c 1
386.299804688 161.900390625 m 1
 420 145.099609375 l 2
 430.099609375 139.299804688 434.5 127 430.5 116 c 0
 421.599609375 91.7998046875 404.099609375 69.599609375 387.900390625 50.2001953125 c 0
 380.5 41.2998046875 367.700195312 39.099609375 357.599609375 44.900390625 c 2
 328.5 61.7001953125 l 1
 312.5 48 293.900390625 37.099609375 273.599609375 30 c 1
 273.599609375 -3.599609375 l 2
 273.599609375 -15.2001953125 265.299804688 -25.2001953125 253.900390625 -27.2001953125 c 0
 229.299804688 -31.400390625 203.5 -31.599609375 178 -27.2001953125 c 0
 166.5 -25.2001953125 158 -15.2998046875 158 -3.599609375 c 2
 158 30 l 1
 137.700195312 37.2001953125 119.099609375 48 103.099609375 61.7001953125 c 1
 74 45 l 2
 64 39.2001953125 51.099609375 41.400390625 43.7001953125 50.2998046875 c 0
 27.5 69.7001953125 10.400390625 91.900390625 1.5 116 c 0
 -2.5 126.900390625 1.900390625 139.200195312 12 145.099609375 c 2
 45.2998046875 161.900390625 l 1
 41.400390625 182.799804688 41.400390625 204.299804688 45.2998046875 225.299804688 c 1
 12 242.200195312 l 2
 1.900390625 248 -2.599609375 260.299804688 1.5 271.200195312 c 0
 10.400390625 295.400390625 27.5 317.599609375 43.7001953125 337 c 0
 51.099609375 345.900390625 63.900390625 348.099609375 74 342.299804688 c 2
 103.099609375 325.5 l 1
 119.099609375 339.200195312 137.700195312 350.099609375 158 357.200195312 c 1
 158 390.900390625 l 2
 158 402.400390625 166.200195312 412.400390625 177.599609375 414.400390625 c 0
 202.200195312 418.599609375 228.099609375 418.799804688 253.599609375 414.5 c 0
 265.099609375 412.5 273.599609375 402.599609375 273.599609375 390.900390625 c 2
 273.599609375 357.299804688 l 1
 293.900390625 350.099609375 312.5 339.299804688 328.5 325.599609375 c 1
 357.599609375 342.400390625 l 2
 367.599609375 348.200195312 380.5 346 387.900390625 337.099609375 c 0
 404.099609375 317.700195312 421.099609375 295.5 430 271.299804688 c 0
 434 260.400390625 430.099609375 248.099609375 420 242.200195312 c 2
 386.299804688 225.400390625 l 1
 390.200195312 204.400390625 390.200195312 182.900390625 386.299804688 161.900390625 c 1
268.700195312 140.799804688 m 1
 327.900390625 217.799804688 240 305.700195312 163 246.5 c 1
 103.799804688 169.5 191.700195312 81.599609375 268.700195312 140.799804688 c 1
512.099609375 -41.900390625 m 1
 503.900390625 -56.2001953125 l 2
 500.900390625 -61.5 494.5 -63.7001953125 488.799804688 -61.599609375 c 0
 477 -57.2001953125 466.200195312 -50.900390625 456.700195312 -43 c 0
 452.099609375 -39.2001953125 450.900390625 -32.5 453.900390625 -27.2998046875 c 2
 462.099609375 -13 l 1
 455.200195312 -5 449.799804688 4.2998046875 446.200195312 14.400390625 c 1
 429.700195312 14.400390625 l 2
 423.700195312 14.400390625 418.5 18.7001953125 417.5 24.7001953125 c 0
 415.5 36.7001953125 415.400390625 49.2998046875 417.5 61.7998046875 c 0
 418.5 67.7998046875 423.700195312 72.2001953125 429.700195312 72.2001953125 c 2
 446.200195312 72.2001953125 l 1
 449.799804688 82.2998046875 455.200195312 91.599609375 462.099609375 99.599609375 c 1
 453.900390625 113.900390625 l 2
 450.900390625 119.099609375 452 125.799804688 456.700195312 129.599609375 c 0
 466.200195312 137.5 477.099609375 143.799804688 488.799804688 148.200195312 c 0
 494.5 150.299804688 500.900390625 148.099609375 503.900390625 142.799804688 c 2
 512.099609375 128.5 l 1
 522.599609375 130.400390625 533.299804688 130.400390625 543.799804688 128.5 c 1
 552 142.799804688 l 2
 555 148.099609375 561.400390625 150.299804688 567.099609375 148.200195312 c 0
 578.900390625 143.799804688 589.700195312 137.5 599.200195312 129.599609375 c 0
 603.799804688 125.799804688 605 119.099609375 602 113.900390625 c 2
 593.799804688 99.599609375 l 1
 600.700195312 91.599609375 606.099609375 82.2998046875 609.700195312 72.2001953125 c 1
 626.200195312 72.2001953125 l 2
 632.200195312 72.2001953125 637.400390625 67.900390625 638.400390625 61.900390625 c 0
 640.400390625 49.900390625 640.5 37.2998046875 638.400390625 24.7998046875 c 0
 637.400390625 18.7998046875 632.200195312 14.400390625 626.200195312 14.400390625 c 2
 609.700195312 14.400390625 l 1
 606.099609375 4.2998046875 600.700195312 -5 593.799804688 -13 c 1
 602 -27.2998046875 l 2
 605 -32.5 603.900390625 -39.2001953125 599.200195312 -43 c 0
 589.700195312 -50.900390625 578.799804688 -57.2001953125 567.099609375 -61.599609375 c 0
 561.400390625 -63.7001953125 555 -61.5 552 -56.2001953125 c 2
 543.799804688 -41.900390625 l 1
 533.400390625 -43.7998046875 522.599609375 -43.7998046875 512.099609375 -41.900390625 c 1
501.599609375 17 m 1
 540.099609375 -12.599609375 584 31.2998046875 554.400390625 69.7998046875 c 1
 515.900390625 99.400390625 472 55.5 501.599609375 17 c 1
EndSplineSet
Validated: 524321
Ligature2: "'liga' Standard Ligatures in Latin lookup 0 per glyph data 57" c o g s
Ligature2: "'liga' Standard Ligatures in Latin lookup 0 per glyph data 57" C o g s
Ligature2: "'liga' Standard Ligatures in Latin lookup 0 per glyph data 57" C O G S
EndChar

StartChar: comments
Encoding: 61574 61574 175
Width: 576
GlyphClass: 3
Flags: W
LayerCount: 2
Fore
SplineSet
416 256 m 0
 416 167.599609375 322.900390625 96 208 96 c 0
 167 96 128.900390625 105.299804688 96.7001953125 121 c 1
 74.900390625 108.299804688 44.599609375 96 8 96 c 0
 4.7998046875 96 2 97.7998046875 0.7001953125 100.799804688 c 0
 -0.599609375 103.799804688 0 107.200195312 2.2001953125 109.5 c 0
 2.5 109.799804688 24.599609375 133.799804688 38 164 c 1
 14.099609375 190.099609375 0 221.700195312 0 256 c 0
 0 344.400390625 93.099609375 416 208 416 c 0
 322.900390625 416 416 344.400390625 416 256 c 0
538 36 m 1
 551.400390625 5.7001953125 573.5 -18.2001953125 573.799804688 -18.5 c 0
 576 -20.900390625 576.599609375 -24.2998046875 575.299804688 -27.2001953125 c 0
 574.099609375 -30.099609375 571.200195312 -32 568 -32 c 0
 531.400390625 -32 501.099609375 -19.7001953125 479.299804688 -7 c 1
 447.099609375 -22.7998046875 409 -32 368 -32 c 0
 281.799804688 -32 207.799804688 8.400390625 176.299804688 65.900390625 c 1
 186.700195312 64.7998046875 197.200195312 64 208 64 c 0
 340.299804688 64 448 150.099609375 448 256 c 0
 448 262.799804688 447.599609375 269.5 446.700195312 276.099609375 c 1
 522.5 252.200195312 576 194.900390625 576 128 c 0
 576 93.7001953125 561.900390625 62 538 36 c 1
EndSplineSet
Validated: 524289
Ligature2: "'liga' Standard Ligatures in Latin lookup 0 per glyph data 44" c o m m e n t s
Ligature2: "'liga' Standard Ligatures in Latin lookup 0 per glyph data 44" C o m m e n t s
Ligature2: "'liga' Standard Ligatures in Latin lookup 0 per glyph data 44" C O M M E N T S
EndChar

